STARTFONT 2.1
COMMENT
COMMENT Converted from OpenType font "ibmplex.ttf" by "otf2bdf 3.0".
COMMENT
FONT -FreeType-IBM Plex Sans Thin-Medium-R-Normal--19-140-100-100-P-87-ISO10646-1
SIZE 14 100 100
FONTBOUNDINGBOX 26 25 -3 -4
STARTPROPERTIES 19
FOUNDRY "FreeType"
FAMILY_NAME "IBM Plex Sans Thin"
WEIGHT_NAME "Medium"
SLANT "R"
SETWIDTH_NAME "Normal"
ADD_STYLE_NAME ""
PIXEL_SIZE 19
POINT_SIZE 140
RESOLUTION_X 100
RESOLUTION_Y 100
SPACING "P"
AVERAGE_WIDTH 87
CHARSET_REGISTRY "ISO10646"
CHARSET_ENCODING "1"
FONT_ASCENT 19
FONT_DESCENT 5
COPYRIGHT "Copyright 2018 IBM Corp. All rights reserved."
_OTF_FONTFILE "ibmplex.ttf"
_OTF_PSNAME "IBMPlexSans-Thin"
ENDPROPERTIES
CHARS 826
STARTCHAR 0000
ENCODING 0
SWIDTH 0 0
DWIDTH 0 0
BBX 0 0 0 0
BITMAP
ENDCHAR
STARTCHAR 000D
ENCODING 13
SWIDTH 205 0
DWIDTH 4 0
BBX 0 0 0 0
BITMAP
ENDCHAR
STARTCHAR 0020
ENCODING 32
SWIDTH 205 0
DWIDTH 4 0
BBX 0 0 0 0
BITMAP
ENDCHAR
STARTCHAR 0021
ENCODING 33
SWIDTH 205 0
DWIDTH 4 0
BBX 1 14 2 0
BITMAP
80
80
80
80
80
80
80
80
80
80
80
00
00
80
ENDCHAR
STARTCHAR 0022
ENCODING 34
SWIDTH 360 0
DWIDTH 7 0
BBX 3 2 2 11
BITMAP
A0
A0
ENDCHAR
STARTCHAR 0023
ENCODING 35
SWIDTH 668 0
DWIDTH 13 0
BBX 11 12 1 1
BITMAP
0880
0880
0880
0880
3740
1100
1100
1100
FFE0
1100
2200
2200
ENDCHAR
STARTCHAR 0024
ENCODING 36
SWIDTH 514 0
DWIDTH 10 0
BBX 8 17 1 -2
BITMAP
08
18
6F
88
88
88
88
68
1E
09
09
09
09
89
6A
1C
08
ENDCHAR
STARTCHAR 0025
ENCODING 37
SWIDTH 874 0
DWIDTH 17 0
BBX 15 14 1 0
BITMAP
3000
C810
8420
8440
8440
8480
4900
313C
0244
0442
0442
0842
1044
003C
ENDCHAR
STARTCHAR 0026
ENCODING 38
SWIDTH 668 0
DWIDTH 13 0
BBX 11 14 1 0
BITMAP
1E00
2100
4100
4100
4100
2200
1C00
2860
4440
8280
8180
8080
8140
7E20
ENDCHAR
STARTCHAR 0027
ENCODING 39
SWIDTH 205 0
DWIDTH 4 0
BBX 1 2 2 11
BITMAP
80
80
ENDCHAR
STARTCHAR 0028
ENCODING 40
SWIDTH 308 0
DWIDTH 6 0
BBX 4 18 2 -3
BITMAP
10
20
40
40
80
80
80
80
80
80
80
80
80
80
40
40
20
10
ENDCHAR
STARTCHAR 0029
ENCODING 41
SWIDTH 308 0
DWIDTH 6 0
BBX 3 16 1 -2
BITMAP
80
40
40
20
20
20
20
20
20
20
20
20
20
40
40
80
ENDCHAR
STARTCHAR 002A
ENCODING 42
SWIDTH 360 0
DWIDTH 7 0
BBX 5 6 1 8
BITMAP
20
20
20
F8
60
90
ENDCHAR
STARTCHAR 002B
ENCODING 43
SWIDTH 565 0
DWIDTH 11 0
BBX 7 8 2 2
BITMAP
10
10
10
10
FE
10
10
10
ENDCHAR
STARTCHAR 002C
ENCODING 44
SWIDTH 205 0
DWIDTH 4 0
BBX 2 4 1 -3
BITMAP
40
40
80
80
ENDCHAR
STARTCHAR 002D
ENCODING 45
SWIDTH 360 0
DWIDTH 7 0
BBX 2 1 3 5
BITMAP
C0
ENDCHAR
STARTCHAR 002E
ENCODING 46
SWIDTH 205 0
DWIDTH 4 0
BBX 1 1 2 0
BITMAP
80
ENDCHAR
STARTCHAR 002F
ENCODING 47
SWIDTH 308 0
DWIDTH 6 0
BBX 5 16 0 -2
BITMAP
08
10
10
10
10
20
20
20
20
40
40
40
40
80
80
80
ENDCHAR
STARTCHAR 0030
ENCODING 48
SWIDTH 565 0
DWIDTH 11 0
BBX 9 14 1 0
BITMAP
1C00
6300
4100
8080
8080
8080
8080
8080
8080
8080
8080
8080
4100
3E00
ENDCHAR
STARTCHAR 0031
ENCODING 49
SWIDTH 565 0
DWIDTH 11 0
BBX 8 13 2 1
BITMAP
30
50
90
10
10
10
10
10
10
10
10
10
7F
ENDCHAR
STARTCHAR 0032
ENCODING 50
SWIDTH 565 0
DWIDTH 11 0
BBX 7 14 2 0
BITMAP
38
C6
02
02
02
02
02
04
08
10
20
40
80
FE
ENDCHAR
STARTCHAR 0033
ENCODING 51
SWIDTH 565 0
DWIDTH 11 0
BBX 9 14 1 0
BITMAP
1C00
6300
0100
0100
0100
0100
0200
0E00
0100
0100
0080
0100
8100
7E00
ENDCHAR
STARTCHAR 0034
ENCODING 52
SWIDTH 565 0
DWIDTH 11 0
BBX 9 12 1 1
BITMAP
0200
0600
0A00
0A00
1200
2200
4200
4200
8200
8200
7F80
0200
ENDCHAR
STARTCHAR 0035
ENCODING 53
SWIDTH 565 0
DWIDTH 11 0
BBX 8 14 2 0
BITMAP
7E
80
80
80
80
80
BC
C2
01
01
01
01
82
7C
ENDCHAR
STARTCHAR 0036
ENCODING 54
SWIDTH 565 0
DWIDTH 11 0
BBX 8 14 2 0
BITMAP
04
18
20
40
80
80
FC
82
81
81
81
81
82
7C
ENDCHAR
STARTCHAR 0037
ENCODING 55
SWIDTH 565 0
DWIDTH 11 0
BBX 9 13 1 0
BITMAP
FF80
8080
8100
8100
0200
0200
0400
0400
0400
0800
0800
1000
1000
ENDCHAR
STARTCHAR 0038
ENCODING 56
SWIDTH 565 0
DWIDTH 11 0
BBX 9 14 1 0
BITMAP
1E00
6100
8080
8080
8080
4100
2200
3D00
C080
8080
8080
8080
8080
7F00
ENDCHAR
STARTCHAR 0039
ENCODING 57
SWIDTH 565 0
DWIDTH 11 0
BBX 8 14 2 0
BITMAP
3C
C2
81
81
81
81
83
43
3E
02
04
04
08
30
ENDCHAR
STARTCHAR 003A
ENCODING 58
SWIDTH 257 0
DWIDTH 5 0
BBX 1 10 2 0
BITMAP
80
00
00
00
00
00
00
00
00
80
ENDCHAR
STARTCHAR 003B
ENCODING 59
SWIDTH 257 0
DWIDTH 5 0
BBX 1 12 2 -3
BITMAP
80
00
00
00
00
00
00
00
00
80
80
80
ENDCHAR
STARTCHAR 003C
ENCODING 60
SWIDTH 565 0
DWIDTH 11 0
BBX 8 10 2 1
BITMAP
01
06
18
20
C0
80
40
30
0C
02
ENDCHAR
STARTCHAR 003D
ENCODING 61
SWIDTH 565 0
DWIDTH 11 0
BBX 9 4 1 4
BITMAP
FF80
0000
0000
7F00
ENDCHAR
STARTCHAR 003E
ENCODING 62
SWIDTH 565 0
DWIDTH 11 0
BBX 8 10 2 1
BITMAP
80
40
30
0C
02
01
06
18
20
C0
ENDCHAR
STARTCHAR 003F
ENCODING 63
SWIDTH 411 0
DWIDTH 8 0
BBX 7 14 1 0
BITMAP
38
C6
02
02
02
02
04
18
20
20
00
00
00
10
ENDCHAR
STARTCHAR 0040
ENCODING 64
SWIDTH 874 0
DWIDTH 17 0
BBX 15 16 1 -2
BITMAP
07C0
1830
2008
4004
83A4
8C62
8822
8822
8822
8822
8824
8864
4798
4000
2000
1FE0
ENDCHAR
STARTCHAR 0041
ENCODING 65
SWIDTH 565 0
DWIDTH 11 0
BBX 10 13 1 1
BITMAP
0C00
1400
1400
2200
2200
2200
4100
4100
7F00
8080
8080
8040
0040
ENDCHAR
STARTCHAR 0042
ENCODING 66
SWIDTH 565 0
DWIDTH 11 0
BBX 9 14 2 0
BITMAP
FC00
8200
8100
8100
8100
8100
8200
FD00
8100
8080
8080
8080
8100
FE00
ENDCHAR
STARTCHAR 0043
ENCODING 67
SWIDTH 565 0
DWIDTH 11 0
BBX 10 14 1 0
BITMAP
0E00
3180
4000
8000
8000
8000
8000
8000
8000
8000
8000
4040
4080
3F00
ENDCHAR
STARTCHAR 0044
ENCODING 68
SWIDTH 617 0
DWIDTH 12 0
BBX 9 14 2 0
BITMAP
F800
8600
8100
8080
8080
8080
8080
8080
8080
8080
8080
8080
8100
FE00
ENDCHAR
STARTCHAR 0045
ENCODING 69
SWIDTH 514 0
DWIDTH 10 0
BBX 8 14 2 0
BITMAP
FF
80
80
80
80
80
80
FC
80
80
80
80
80
FE
ENDCHAR
STARTCHAR 0046
ENCODING 70
SWIDTH 514 0
DWIDTH 10 0
BBX 7 14 2 0
BITMAP
FE
80
80
80
80
80
80
FC
80
80
80
80
80
80
ENDCHAR
STARTCHAR 0047
ENCODING 71
SWIDTH 617 0
DWIDTH 12 0
BBX 10 14 1 0
BITMAP
0E00
3180
4040
8000
8000
8000
8000
8000
80C0
8040
8040
4040
40C0
3F00
ENDCHAR
STARTCHAR 0048
ENCODING 72
SWIDTH 668 0
DWIDTH 13 0
BBX 9 14 2 0
BITMAP
8000
8080
8080
8080
8080
8080
8080
FF80
8080
8080
8080
8080
8080
8000
ENDCHAR
STARTCHAR 0049
ENCODING 73
SWIDTH 360 0
DWIDTH 7 0
BBX 5 14 1 0
BITMAP
F8
20
20
20
20
20
20
20
20
20
20
20
20
70
ENDCHAR
STARTCHAR 004A
ENCODING 74
SWIDTH 462 0
DWIDTH 9 0
BBX 6 14 1 0
BITMAP
7C
04
04
04
04
04
04
04
04
04
04
04
04
F8
ENDCHAR
STARTCHAR 004B
ENCODING 75
SWIDTH 565 0
DWIDTH 11 0
BBX 9 14 2 0
BITMAP
8080
8100
8200
8400
8800
9000
9000
F000
8800
8400
8400
8200
8100
8100
ENDCHAR
STARTCHAR 004C
ENCODING 76
SWIDTH 462 0
DWIDTH 9 0
BBX 6 14 2 0
BITMAP
80
80
80
80
80
80
80
80
80
80
80
80
80
FC
ENDCHAR
STARTCHAR 004D
ENCODING 77
SWIDTH 771 0
DWIDTH 15 0
BBX 11 14 2 0
BITMAP
8000
8020
C060
A0A0
A0A0
9120
9120
8A20
8420
8020
8020
8020
8020
8000
ENDCHAR
STARTCHAR 004E
ENCODING 78
SWIDTH 668 0
DWIDTH 13 0
BBX 9 14 2 0
BITMAP
8000
8080
C080
A080
A080
9080
8880
8880
8480
8480
8280
8180
8180
8080
ENDCHAR
STARTCHAR 004F
ENCODING 79
SWIDTH 668 0
DWIDTH 13 0
BBX 11 14 1 0
BITMAP
0F00
3080
4040
8040
8020
8020
8020
8020
8020
8020
8040
4040
4080
3F00
ENDCHAR
STARTCHAR 0050
ENCODING 80
SWIDTH 565 0
DWIDTH 11 0
BBX 9 14 2 0
BITMAP
FC00
8300
8100
8080
8080
8080
8100
FE00
8000
8000
8000
8000
8000
8000
ENDCHAR
STARTCHAR 0051
ENCODING 81
SWIDTH 668 0
DWIDTH 13 0
BBX 11 17 1 -3
BITMAP
0F00
3080
4040
8040
8020
8020
8020
8020
8020
8020
8040
4040
4080
3100
0E00
0400
0700
ENDCHAR
STARTCHAR 0052
ENCODING 82
SWIDTH 617 0
DWIDTH 12 0
BBX 9 14 2 0
BITMAP
FC00
8300
8100
8080
8080
8080
8100
FE00
8400
8400
8200
8100
8100
8080
ENDCHAR
STARTCHAR 0053
ENCODING 83
SWIDTH 514 0
DWIDTH 10 0
BBX 8 14 1 0
BITMAP
3C
C3
80
80
80
80
60
1E
01
01
01
01
81
7E
ENDCHAR
STARTCHAR 0054
ENCODING 84
SWIDTH 514 0
DWIDTH 10 0
BBX 11 14 0 0
BITMAP
FFE0
0400
0400
0400
0400
0400
0400
0400
0400
0400
0400
0400
0400
0400
ENDCHAR
STARTCHAR 0055
ENCODING 85
SWIDTH 617 0
DWIDTH 12 0
BBX 9 14 2 0
BITMAP
0080
8080
8080
8080
8080
8080
8080
8080
8080
8080
8080
8100
8100
7E00
ENDCHAR
STARTCHAR 0056
ENCODING 86
SWIDTH 565 0
DWIDTH 11 0
BBX 9 13 1 1
BITMAP
8080
8080
8100
8100
4100
4200
4200
2200
2400
2400
1400
1800
0800
ENDCHAR
STARTCHAR 0057
ENCODING 87
SWIDTH 822 0
DWIDTH 16 0
BBX 15 14 1 0
BITMAP
0100
8302
8302
8282
8484
8484
4484
4448
4848
4848
2828
3030
3030
1010
ENDCHAR
STARTCHAR 0058
ENCODING 88
SWIDTH 514 0
DWIDTH 10 0
BBX 9 13 1 1
BITMAP
8180
4100
4200
2400
1400
1800
0800
1400
2400
4200
4100
8100
0080
ENDCHAR
STARTCHAR 0059
ENCODING 89
SWIDTH 514 0
DWIDTH 10 0
BBX 10 14 0 0
BITMAP
8000
4040
4080
2100
2100
1200
0A00
0C00
0400
0400
0400
0400
0400
0400
ENDCHAR
STARTCHAR 005A
ENCODING 90
SWIDTH 514 0
DWIDTH 10 0
BBX 9 14 1 0
BITMAP
FF80
0100
0100
0200
0400
0400
0800
1000
1000
2000
4000
4000
8000
FF00
ENDCHAR
STARTCHAR 005B
ENCODING 91
SWIDTH 257 0
DWIDTH 5 0
BBX 3 18 2 -3
BITMAP
E0
80
80
80
80
80
80
80
80
80
80
80
80
80
80
80
80
E0
ENDCHAR
STARTCHAR 005C
ENCODING 92
SWIDTH 308 0
DWIDTH 6 0
BBX 5 16 1 -2
BITMAP
80
80
80
80
40
40
40
20
20
20
20
10
10
10
10
08
ENDCHAR
STARTCHAR 005D
ENCODING 93
SWIDTH 257 0
DWIDTH 5 0
BBX 3 18 1 -3
BITMAP
E0
20
20
20
20
20
20
20
20
20
20
20
20
20
20
20
20
E0
ENDCHAR
STARTCHAR 005E
ENCODING 94
SWIDTH 565 0
DWIDTH 11 0
BBX 9 7 1 7
BITMAP
1C00
1400
2200
2100
4100
8080
8000
ENDCHAR
STARTCHAR 005F
ENCODING 95
SWIDTH 565 0
DWIDTH 11 0
BBX 9 1 1 -3
BITMAP
FF80
ENDCHAR
STARTCHAR 0060
ENCODING 96
SWIDTH 565 0
DWIDTH 11 0
BBX 2 2 4 12
BITMAP
80
40
ENDCHAR
STARTCHAR 0061
ENCODING 97
SWIDTH 514 0
DWIDTH 10 0
BBX 8 10 1 0
BITMAP
3C
42
02
02
02
7E
82
82
82
7D
ENDCHAR
STARTCHAR 0062
ENCODING 98
SWIDTH 514 0
DWIDTH 10 0
BBX 8 13 2 1
BITMAP
80
80
80
FC
82
82
81
81
81
81
82
82
7C
ENDCHAR
STARTCHAR 0063
ENCODING 99
SWIDTH 462 0
DWIDTH 9 0
BBX 8 10 1 0
BITMAP
3C
42
80
80
80
80
80
80
81
7E
ENDCHAR
STARTCHAR 0064
ENCODING 100
SWIDTH 514 0
DWIDTH 10 0
BBX 8 13 1 1
BITMAP
01
01
01
3D
43
81
81
81
81
81
81
83
7E
ENDCHAR
STARTCHAR 0065
ENCODING 101
SWIDTH 514 0
DWIDTH 10 0
BBX 8 10 1 0
BITMAP
3C
42
81
81
81
FE
80
80
81
7E
ENDCHAR
STARTCHAR 0066
ENCODING 102
SWIDTH 257 0
DWIDTH 5 0
BBX 4 14 1 0
BITMAP
60
40
40
40
F0
40
40
40
40
40
40
40
40
40
ENDCHAR
STARTCHAR 0067
ENCODING 103
SWIDTH 514 0
DWIDTH 10 0
BBX 9 15 1 -4
BITMAP
0300
3E00
4200
8200
8200
8200
4200
3C00
C000
8000
7F00
8080
8080
8100
7E00
ENDCHAR
STARTCHAR 0068
ENCODING 104
SWIDTH 514 0
DWIDTH 10 0
BBX 7 12 2 1
BITMAP
80
80
80
FC
82
82
82
82
82
82
82
82
ENDCHAR
STARTCHAR 0069
ENCODING 105
SWIDTH 205 0
DWIDTH 4 0
BBX 1 13 2 0
BITMAP
80
00
00
00
00
80
80
80
80
80
80
80
80
ENDCHAR
STARTCHAR 006A
ENCODING 106
SWIDTH 205 0
DWIDTH 4 0
BBX 2 17 1 -4
BITMAP
40
00
00
00
00
80
80
80
80
80
80
80
80
80
80
80
80
ENDCHAR
STARTCHAR 006B
ENCODING 107
SWIDTH 462 0
DWIDTH 9 0
BBX 7 13 2 1
BITMAP
80
80
80
80
8C
90
A0
A0
E0
90
88
84
02
ENDCHAR
STARTCHAR 006C
ENCODING 108
SWIDTH 205 0
DWIDTH 4 0
BBX 1 12 2 1
BITMAP
80
80
80
80
80
80
80
80
80
80
80
80
ENDCHAR
STARTCHAR 006D
ENCODING 109
SWIDTH 874 0
DWIDTH 17 0
BBX 13 10 2 0
BITMAP
78F0
8708
8208
8208
8208
8208
8208
8208
8208
0200
ENDCHAR
STARTCHAR 006E
ENCODING 110
SWIDTH 514 0
DWIDTH 10 0
BBX 7 9 2 0
BITMAP
7C
82
82
82
82
82
82
82
82
ENDCHAR
STARTCHAR 006F
ENCODING 111
SWIDTH 514 0
DWIDTH 10 0
BBX 8 10 1 0
BITMAP
3C
42
81
81
81
81
81
81
81
7E
ENDCHAR
STARTCHAR 0070
ENCODING 112
SWIDTH 514 0
DWIDTH 10 0
BBX 8 13 2 -4
BITMAP
7C
82
82
81
81
81
81
82
82
C4
B8
80
80
ENDCHAR
STARTCHAR 0071
ENCODING 113
SWIDTH 514 0
DWIDTH 10 0
BBX 8 13 1 -4
BITMAP
3C
43
81
81
81
81
81
81
83
63
1D
01
01
ENDCHAR
STARTCHAR 0072
ENCODING 114
SWIDTH 308 0
DWIDTH 6 0
BBX 4 9 2 0
BITMAP
30
C0
80
80
80
80
80
80
80
ENDCHAR
STARTCHAR 0073
ENCODING 115
SWIDTH 411 0
DWIDTH 8 0
BBX 7 10 1 0
BITMAP
7C
80
80
80
40
3C
02
02
82
7C
ENDCHAR
STARTCHAR 0074
ENCODING 116
SWIDTH 308 0
DWIDTH 6 0
BBX 4 13 1 0
BITMAP
40
40
40
F0
40
40
40
40
40
40
40
40
60
ENDCHAR
STARTCHAR 0075
ENCODING 117
SWIDTH 514 0
DWIDTH 10 0
BBX 7 10 2 0
BITMAP
02
82
82
82
82
82
82
82
82
7E
ENDCHAR
STARTCHAR 0076
ENCODING 118
SWIDTH 411 0
DWIDTH 8 0
BBX 8 9 0 1
BITMAP
81
42
42
22
24
24
14
18
08
ENDCHAR
STARTCHAR 0077
ENCODING 119
SWIDTH 720 0
DWIDTH 14 0
BBX 12 9 1 1
BITMAP
8610
8A10
8A20
8920
4920
5140
50C0
30C0
2040
ENDCHAR
STARTCHAR 0078
ENCODING 120
SWIDTH 462 0
DWIDTH 9 0
BBX 7 9 1 1
BITMAP
86
44
28
30
30
28
44
84
02
ENDCHAR
STARTCHAR 0079
ENCODING 121
SWIDTH 411 0
DWIDTH 8 0
BBX 8 13 0 -3
BITMAP
81
42
42
22
24
24
14
18
08
10
10
10
20
ENDCHAR
STARTCHAR 007A
ENCODING 122
SWIDTH 411 0
DWIDTH 8 0
BBX 7 10 1 0
BITMAP
FE
04
08
10
10
20
40
80
80
FC
ENDCHAR
STARTCHAR 007B
ENCODING 123
SWIDTH 308 0
DWIDTH 6 0
BBX 5 18 0 -3
BITMAP
38
20
20
20
20
20
20
20
C0
40
20
20
20
20
20
20
20
38
ENDCHAR
STARTCHAR 007C
ENCODING 124
SWIDTH 205 0
DWIDTH 4 0
BBX 1 16 2 -2
BITMAP
80
80
80
80
80
80
80
80
80
80
80
80
80
80
80
80
ENDCHAR
STARTCHAR 007D
ENCODING 125
SWIDTH 308 0
DWIDTH 6 0
BBX 5 18 1 -3
BITMAP
E0
20
20
20
20
20
20
20
18
10
20
20
20
20
20
20
20
E0
ENDCHAR
STARTCHAR 007E
ENCODING 126
SWIDTH 565 0
DWIDTH 11 0
BBX 8 2 2 5
BITMAP
E0
1F
ENDCHAR
STARTCHAR 00A0
ENCODING 160
SWIDTH 205 0
DWIDTH 4 0
BBX 0 0 0 0
BITMAP
ENDCHAR
STARTCHAR 00A1
ENCODING 161
SWIDTH 205 0
DWIDTH 4 0
BBX 1 14 2 -4
BITMAP
80
00
00
00
80
80
80
80
80
80
80
80
80
80
ENDCHAR
STARTCHAR 00A2
ENCODING 162
SWIDTH 462 0
DWIDTH 9 0
BBX 8 12 1 -1
BITMAP
10
3C
52
90
90
90
90
90
90
91
72
1C
ENDCHAR
STARTCHAR 00A3
ENCODING 163
SWIDTH 565 0
DWIDTH 11 0
BBX 9 14 1 0
BITMAP
1E00
2100
4080
4000
4000
4000
4000
4000
3C00
2000
2000
2000
4000
FF00
ENDCHAR
STARTCHAR 00A4
ENCODING 164
SWIDTH 565 0
DWIDTH 11 0
BBX 11 10 0 2
BITMAP
8020
5F40
2080
2080
4080
4080
4080
2080
3180
4E40
ENDCHAR
STARTCHAR 00A5
ENCODING 165
SWIDTH 565 0
DWIDTH 11 0
BBX 9 13 1 1
BITMAP
8080
4100
4200
2200
1400
1400
7F80
0800
0800
7F80
0800
0800
0800
ENDCHAR
STARTCHAR 00A6
ENCODING 166
SWIDTH 205 0
DWIDTH 4 0
BBX 1 16 2 -2
BITMAP
80
80
80
80
80
00
00
00
00
00
00
80
80
80
80
80
ENDCHAR
STARTCHAR 00A7
ENCODING 167
SWIDTH 514 0
DWIDTH 10 0
BBX 7 17 2 -3
BITMAP
38
C6
80
80
80
60
9C
82
82
82
82
74
0C
04
02
04
78
ENDCHAR
STARTCHAR 00A8
ENCODING 168
SWIDTH 565 0
DWIDTH 11 0
BBX 1 1 7 12
BITMAP
80
ENDCHAR
STARTCHAR 00A9
ENCODING 169
SWIDTH 668 0
DWIDTH 13 0
BBX 12 14 1 0
BITMAP
0F00
30C0
4020
8420
9A10
9010
A010
A010
A010
9010
8910
8620
4040
3F80
ENDCHAR
STARTCHAR 00AA
ENCODING 170
SWIDTH 308 0
DWIDTH 6 0
BBX 4 7 1 7
BITMAP
60
10
10
30
D0
90
F0
ENDCHAR
STARTCHAR 00AB
ENCODING 171
SWIDTH 462 0
DWIDTH 9 0
BBX 7 7 1 2
BITMAP
22
44
98
90
88
44
32
ENDCHAR
STARTCHAR 00AC
ENCODING 172
SWIDTH 565 0
DWIDTH 11 0
BBX 8 3 2 2
BITMAP
FF
01
01
ENDCHAR
STARTCHAR 00AD
ENCODING 173
SWIDTH 360 0
DWIDTH 7 0
BBX 2 1 3 5
BITMAP
C0
ENDCHAR
STARTCHAR 00AE
ENCODING 174
SWIDTH 462 0
DWIDTH 9 0
BBX 7 8 1 6
BITMAP
38
C4
BA
AA
B2
AA
82
7C
ENDCHAR
STARTCHAR 00AF
ENCODING 175
SWIDTH 565 0
DWIDTH 11 0
BBX 3 1 4 12
BITMAP
E0
ENDCHAR
STARTCHAR 00B0
ENCODING 176
SWIDTH 462 0
DWIDTH 9 0
BBX 7 7 1 7
BITMAP
38
C4
82
82
82
44
38
ENDCHAR
STARTCHAR 00B1
ENCODING 177
SWIDTH 565 0
DWIDTH 11 0
BBX 7 11 2 1
BITMAP
10
10
10
10
FE
10
10
10
00
00
FE
ENDCHAR
STARTCHAR 00B2
ENCODING 178
SWIDTH 308 0
DWIDTH 6 0
BBX 5 8 1 6
BITMAP
60
90
08
10
10
60
80
F8
ENDCHAR
STARTCHAR 00B3
ENCODING 179
SWIDTH 308 0
DWIDTH 6 0
BBX 4 8 2 6
BITMAP
C0
20
20
20
60
10
20
C0
ENDCHAR
STARTCHAR 00B4
ENCODING 180
SWIDTH 565 0
DWIDTH 11 0
BBX 2 3 5 12
BITMAP
40
80
80
ENDCHAR
STARTCHAR 00B5
ENCODING 181
SWIDTH 565 0
DWIDTH 11 0
BBX 7 12 2 -3
BITMAP
82
82
82
82
82
82
82
82
C4
B8
80
80
ENDCHAR
STARTCHAR 00B6
ENCODING 182
SWIDTH 565 0
DWIDTH 11 0
BBX 9 16 1 -3
BITMAP
1F80
7200
F200
F200
F200
F200
7200
1200
1200
1200
1200
1200
1200
1200
1200
1200
ENDCHAR
STARTCHAR 00B7
ENCODING 183
SWIDTH 257 0
DWIDTH 5 0
BBX 0 0 2 5
BITMAP
ENDCHAR
STARTCHAR 00B8
ENCODING 184
SWIDTH 565 0
DWIDTH 11 0
BBX 3 3 5 -3
BITMAP
C0
20
C0
ENDCHAR
STARTCHAR 00B9
ENCODING 185
SWIDTH 360 0
DWIDTH 7 0
BBX 5 8 1 6
BITMAP
20
60
20
20
20
20
20
F8
ENDCHAR
STARTCHAR 00BA
ENCODING 186
SWIDTH 360 0
DWIDTH 7 0
BBX 5 7 1 7
BITMAP
30
C8
88
88
88
88
70
ENDCHAR
STARTCHAR 00BB
ENCODING 187
SWIDTH 462 0
DWIDTH 9 0
BBX 7 7 1 2
BITMAP
88
44
22
12
24
48
90
ENDCHAR
STARTCHAR 00BC
ENCODING 188
SWIDTH 822 0
DWIDTH 16 0
BBX 14 14 1 0
BITMAP
2008
6010
2020
2020
2040
2080
2080
F904
021C
0224
0424
0844
083C
0004
ENDCHAR
STARTCHAR 00BD
ENCODING 189
SWIDTH 874 0
DWIDTH 17 0
BBX 15 14 1 0
BITMAP
2008
6010
2020
2020
2040
2080
2080
F93E
0222
0202
0404
0808
0810
003C
ENDCHAR
STARTCHAR 00BE
ENCODING 190
SWIDTH 771 0
DWIDTH 15 0
BBX 12 13 2 0
BITMAP
C020
2040
2040
2080
6100
1100
2200
C430
0430
0850
1090
1110
20F0
ENDCHAR
STARTCHAR 00BF
ENCODING 191
SWIDTH 411 0
DWIDTH 8 0
BBX 7 14 1 -4
BITMAP
10
00
00
00
00
10
10
60
80
80
80
80
86
78
ENDCHAR
STARTCHAR 00C0
ENCODING 192
SWIDTH 565 0
DWIDTH 11 0
BBX 10 18 1 0
BITMAP
1000
1000
0800
0000
0000
0C00
1400
1400
2200
2200
2200
4100
4100
7F00
8080
8080
8040
0040
ENDCHAR
STARTCHAR 00C1
ENCODING 193
SWIDTH 565 0
DWIDTH 11 0
BBX 10 18 1 0
BITMAP
0400
0400
0800
0000
0000
0C00
1400
1400
2200
2200
2200
4100
4100
7F00
8080
8080
8040
0040
ENDCHAR
STARTCHAR 00C2
ENCODING 194
SWIDTH 565 0
DWIDTH 11 0
BBX 10 18 1 0
BITMAP
0800
1400
2200
0000
0000
0C00
1400
1400
2200
2200
2200
4100
4100
7F00
8080
8080
8040
0040
ENDCHAR
STARTCHAR 00C3
ENCODING 195
SWIDTH 565 0
DWIDTH 11 0
BBX 10 17 1 0
BITMAP
3900
0600
0000
0000
0C00
1400
1400
2200
2200
2200
4100
4100
7F00
8080
8080
8040
0040
ENDCHAR
STARTCHAR 00C4
ENCODING 196
SWIDTH 565 0
DWIDTH 11 0
BBX 10 17 1 0
BITMAP
1200
0000
0000
0000
0C00
1400
1400
2200
2200
2200
4100
4100
7F00
8080
8080
8040
0040
ENDCHAR
STARTCHAR 00C5
ENCODING 197
SWIDTH 565 0
DWIDTH 11 0
BBX 10 18 1 0
BITMAP
1C00
2200
1400
0800
0000
0C00
1400
1400
2200
2200
2200
4100
4100
7F00
8080
8080
8040
0040
ENDCHAR
STARTCHAR 00C6
ENCODING 198
SWIDTH 822 0
DWIDTH 16 0
BBX 15 14 0 0
BITMAP
01FE
0300
0300
0500
0500
0900
0900
11FC
1100
2F00
4100
4100
8100
80FC
ENDCHAR
STARTCHAR 00C7
ENCODING 199
SWIDTH 565 0
DWIDTH 11 0
BBX 10 18 1 -4
BITMAP
0E00
3180
4000
8000
8000
8000
8000
8000
8000
8000
8000
4040
4080
3100
0E00
0400
0200
0E00
ENDCHAR
STARTCHAR 00C8
ENCODING 200
SWIDTH 514 0
DWIDTH 10 0
BBX 8 18 2 0
BITMAP
20
20
10
00
FF
80
80
80
80
80
80
FC
80
80
80
80
80
FE
ENDCHAR
STARTCHAR 00C9
ENCODING 201
SWIDTH 514 0
DWIDTH 10 0
BBX 8 18 2 0
BITMAP
08
08
10
00
FF
80
80
80
80
80
80
FC
80
80
80
80
80
FE
ENDCHAR
STARTCHAR 00CA
ENCODING 202
SWIDTH 514 0
DWIDTH 10 0
BBX 8 18 2 0
BITMAP
10
28
44
00
FF
80
80
80
80
80
80
FC
80
80
80
80
80
FE
ENDCHAR
STARTCHAR 00CB
ENCODING 203
SWIDTH 514 0
DWIDTH 10 0
BBX 8 17 2 0
BITMAP
24
00
00
FF
80
80
80
80
80
80
FC
80
80
80
80
80
FE
ENDCHAR
STARTCHAR 00CC
ENCODING 204
SWIDTH 360 0
DWIDTH 7 0
BBX 5 18 1 0
BITMAP
40
40
20
00
F8
20
20
20
20
20
20
20
20
20
20
20
20
70
ENDCHAR
STARTCHAR 00CD
ENCODING 205
SWIDTH 360 0
DWIDTH 7 0
BBX 5 18 1 0
BITMAP
10
20
20
00
F8
20
20
20
20
20
20
20
20
20
20
20
20
70
ENDCHAR
STARTCHAR 00CE
ENCODING 206
SWIDTH 360 0
DWIDTH 7 0
BBX 5 18 1 0
BITMAP
20
50
88
00
F8
20
20
20
20
20
20
20
20
20
20
20
20
70
ENDCHAR
STARTCHAR 00CF
ENCODING 207
SWIDTH 360 0
DWIDTH 7 0
BBX 5 17 1 0
BITMAP
88
00
00
F8
20
20
20
20
20
20
20
20
20
20
20
20
70
ENDCHAR
STARTCHAR 00D0
ENCODING 208
SWIDTH 617 0
DWIDTH 12 0
BBX 9 14 2 0
BITMAP
F800
8700
8100
8080
8080
8080
8080
E080
8080
8080
8080
8080
8100
FE00
ENDCHAR
STARTCHAR 00D1
ENCODING 209
SWIDTH 668 0
DWIDTH 13 0
BBX 9 17 2 0
BITMAP
1900
0600
0000
8000
8080
C080
A080
A080
9080
8880
8880
8480
8480
8280
8180
8180
8080
ENDCHAR
STARTCHAR 00D2
ENCODING 210
SWIDTH 668 0
DWIDTH 13 0
BBX 11 18 1 0
BITMAP
0800
0800
0400
0000
0F00
3080
4040
8040
8020
8020
8020
8020
8020
8020
8040
4040
4080
3F00
ENDCHAR
STARTCHAR 00D3
ENCODING 211
SWIDTH 668 0
DWIDTH 13 0
BBX 11 18 1 0
BITMAP
0200
0400
0400
0000
0F00
3080
4040
8040
8020
8020
8020
8020
8020
8020
8040
4040
4080
3F00
ENDCHAR
STARTCHAR 00D4
ENCODING 212
SWIDTH 668 0
DWIDTH 13 0
BBX 11 18 1 0
BITMAP
0400
0A00
1100
0000
0F00
3080
4040
8040
8020
8020
8020
8020
8020
8020
8040
4040
4080
3F00
ENDCHAR
STARTCHAR 00D5
ENCODING 213
SWIDTH 668 0
DWIDTH 13 0
BBX 11 17 1 0
BITMAP
0C00
0300
0000
0F00
3080
4040
8040
8020
8020
8020
8020
8020
8020
8040
4040
4080
3F00
ENDCHAR
STARTCHAR 00D6
ENCODING 214
SWIDTH 668 0
DWIDTH 13 0
BBX 11 17 1 0
BITMAP
1100
0000
0000
0F00
3080
4040
8040
8020
8020
8020
8020
8020
8020
8040
4040
4080
3F00
ENDCHAR
STARTCHAR 00D7
ENCODING 215
SWIDTH 565 0
DWIDTH 11 0
BBX 8 8 2 2
BITMAP
81
42
24
18
18
24
42
81
ENDCHAR
STARTCHAR 00D8
ENCODING 216
SWIDTH 668 0
DWIDTH 13 0
BBX 11 15 1 -1
BITMAP
0E20
31C0
4040
81C0
8120
8220
8420
8420
8820
9020
9040
6040
4080
B100
0E00
ENDCHAR
STARTCHAR 00D9
ENCODING 217
SWIDTH 617 0
DWIDTH 12 0
BBX 9 17 2 1
BITMAP
1000
0800
0000
0080
8080
8080
8080
8080
8080
8080
8080
8080
8080
8080
8100
8100
7E00
ENDCHAR
STARTCHAR 00DA
ENCODING 218
SWIDTH 617 0
DWIDTH 12 0
BBX 9 18 2 0
BITMAP
0400
0800
0000
0000
0080
8080
8080
8080
8080
8080
8080
8080
8080
8080
8080
8100
8100
7E00
ENDCHAR
STARTCHAR 00DB
ENCODING 219
SWIDTH 617 0
DWIDTH 12 0
BBX 9 18 2 0
BITMAP
0800
3400
0200
0000
0080
8080
8080
8080
8080
8080
8080
8080
8080
8080
8080
8100
8100
7E00
ENDCHAR
STARTCHAR 00DC
ENCODING 220
SWIDTH 617 0
DWIDTH 12 0
BBX 9 17 2 0
BITMAP
2200
0000
0000
0080
8080
8080
8080
8080
8080
8080
8080
8080
8080
8080
8100
8100
7E00
ENDCHAR
STARTCHAR 00DD
ENCODING 221
SWIDTH 514 0
DWIDTH 10 0
BBX 10 18 0 0
BITMAP
0200
0400
0000
0000
8000
4040
4080
2100
2100
1200
0A00
0C00
0400
0400
0400
0400
0400
0400
ENDCHAR
STARTCHAR 00DE
ENCODING 222
SWIDTH 565 0
DWIDTH 11 0
BBX 9 14 2 0
BITMAP
8000
8000
8000
FC00
8300
8100
8080
8080
8080
8100
FE00
8000
8000
8000
ENDCHAR
STARTCHAR 00DF
ENCODING 223
SWIDTH 617 0
DWIDTH 12 0
BBX 11 15 1 0
BITMAP
0C00
3300
4080
4080
4080
C380
4400
4800
4800
4600
41C0
4040
4020
4040
0FC0
ENDCHAR
STARTCHAR 00E0
ENCODING 224
SWIDTH 514 0
DWIDTH 10 0
BBX 8 14 1 1
BITMAP
20
10
00
00
3C
42
02
02
02
7E
82
82
82
7D
ENDCHAR
STARTCHAR 00E1
ENCODING 225
SWIDTH 514 0
DWIDTH 10 0
BBX 8 15 1 0
BITMAP
04
08
10
10
00
3C
42
02
02
02
7E
82
82
82
7D
ENDCHAR
STARTCHAR 00E2
ENCODING 226
SWIDTH 514 0
DWIDTH 10 0
BBX 8 14 1 0
BITMAP
38
44
00
00
3C
42
02
02
02
7E
82
82
82
7D
ENDCHAR
STARTCHAR 00E3
ENCODING 227
SWIDTH 514 0
DWIDTH 10 0
BBX 8 14 1 0
BITMAP
20
1C
00
00
3C
42
02
02
02
7E
82
82
82
7D
ENDCHAR
STARTCHAR 00E4
ENCODING 228
SWIDTH 514 0
DWIDTH 10 0
BBX 8 10 1 3
BITMAP
3C
42
02
02
02
7E
82
82
82
7D
ENDCHAR
STARTCHAR 00E5
ENCODING 229
SWIDTH 514 0
DWIDTH 10 0
BBX 8 15 1 0
BITMAP
38
24
28
10
00
3C
42
02
02
02
7E
82
82
82
7D
ENDCHAR
STARTCHAR 00E6
ENCODING 230
SWIDTH 822 0
DWIDTH 16 0
BBX 15 10 1 0
BITMAP
7CF8
0304
0204
0204
0202
FFFC
8200
8200
8304
7CF8
ENDCHAR
STARTCHAR 00E7
ENCODING 231
SWIDTH 462 0
DWIDTH 9 0
BBX 8 14 1 -4
BITMAP
3C
42
80
80
80
80
80
80
81
62
1C
08
04
1C
ENDCHAR
STARTCHAR 00E8
ENCODING 232
SWIDTH 514 0
DWIDTH 10 0
BBX 8 14 1 1
BITMAP
20
10
08
00
3C
42
81
81
81
FE
80
80
81
7E
ENDCHAR
STARTCHAR 00E9
ENCODING 233
SWIDTH 514 0
DWIDTH 10 0
BBX 8 14 1 1
BITMAP
0C
08
00
00
3C
42
81
81
81
FE
80
80
81
7E
ENDCHAR
STARTCHAR 00EA
ENCODING 234
SWIDTH 514 0
DWIDTH 10 0
BBX 8 14 1 0
BITMAP
18
24
00
00
3C
42
81
81
81
FE
80
80
81
7E
ENDCHAR
STARTCHAR 00EB
ENCODING 235
SWIDTH 514 0
DWIDTH 10 0
BBX 8 13 1 0
BITMAP
20
00
00
3C
42
81
81
81
FE
80
80
81
7E
ENDCHAR
STARTCHAR 00EC
ENCODING 236
SWIDTH 205 0
DWIDTH 4 0
BBX 1 13 1 1
BITMAP
80
80
00
00
00
80
80
80
80
80
80
80
80
ENDCHAR
STARTCHAR 00ED
ENCODING 237
SWIDTH 205 0
DWIDTH 4 0
BBX 2 13 2 1
BITMAP
C0
80
00
00
00
80
80
80
80
80
80
80
80
ENDCHAR
STARTCHAR 00EE
ENCODING 238
SWIDTH 205 0
DWIDTH 4 0
BBX 4 13 0 0
BITMAP
60
90
00
00
00
40
40
40
40
40
40
40
40
ENDCHAR
STARTCHAR 00EF
ENCODING 239
SWIDTH 205 0
DWIDTH 4 0
BBX 2 12 0 0
BITMAP
80
00
00
00
40
40
40
40
40
40
40
40
ENDCHAR
STARTCHAR 00F0
ENCODING 240
SWIDTH 514 0
DWIDTH 10 0
BBX 8 14 1 1
BITMAP
14
18
24
02
1E
61
81
81
81
81
81
81
81
7E
ENDCHAR
STARTCHAR 00F1
ENCODING 241
SWIDTH 514 0
DWIDTH 10 0
BBX 7 13 2 0
BITMAP
60
1C
00
00
7C
82
82
82
82
82
82
82
82
ENDCHAR
STARTCHAR 00F2
ENCODING 242
SWIDTH 514 0
DWIDTH 10 0
BBX 8 14 1 1
BITMAP
10
10
00
00
3C
42
81
81
81
81
81
81
81
7E
ENDCHAR
STARTCHAR 00F3
ENCODING 243
SWIDTH 514 0
DWIDTH 10 0
BBX 8 14 1 1
BITMAP
04
08
00
00
3C
42
81
81
81
81
81
81
81
7E
ENDCHAR
STARTCHAR 00F4
ENCODING 244
SWIDTH 514 0
DWIDTH 10 0
BBX 8 14 1 0
BITMAP
18
24
00
00
3C
42
81
81
81
81
81
81
81
7E
ENDCHAR
STARTCHAR 00F5
ENCODING 245
SWIDTH 514 0
DWIDTH 10 0
BBX 8 14 1 0
BITMAP
30
0E
00
00
3C
42
81
81
81
81
81
81
81
7E
ENDCHAR
STARTCHAR 00F6
ENCODING 246
SWIDTH 514 0
DWIDTH 10 0
BBX 8 13 1 0
BITMAP
20
00
00
3C
42
81
81
81
81
81
81
81
7E
ENDCHAR
STARTCHAR 00F7
ENCODING 247
SWIDTH 565 0
DWIDTH 11 0
BBX 7 8 2 2
BITMAP
10
00
00
00
FE
00
00
10
ENDCHAR
STARTCHAR 00F8
ENCODING 248
SWIDTH 514 0
DWIDTH 10 0
BBX 8 11 1 0
BITMAP
3D
43
83
85
89
91
A1
C1
41
A2
1C
ENDCHAR
STARTCHAR 00F9
ENCODING 249
SWIDTH 514 0
DWIDTH 10 0
BBX 7 14 2 1
BITMAP
20
20
00
00
02
82
82
82
82
82
82
82
82
7E
ENDCHAR
STARTCHAR 00FA
ENCODING 250
SWIDTH 514 0
DWIDTH 10 0
BBX 7 14 2 1
BITMAP
08
10
00
00
02
82
82
82
82
82
82
82
82
7E
ENDCHAR
STARTCHAR 00FB
ENCODING 251
SWIDTH 514 0
DWIDTH 10 0
BBX 7 14 2 0
BITMAP
30
48
04
00
02
82
82
82
82
82
82
82
82
7E
ENDCHAR
STARTCHAR 00FC
ENCODING 252
SWIDTH 514 0
DWIDTH 10 0
BBX 7 13 2 0
BITMAP
40
00
00
02
82
82
82
82
82
82
82
82
7E
ENDCHAR
STARTCHAR 00FD
ENCODING 253
SWIDTH 411 0
DWIDTH 8 0
BBX 8 18 0 -3
BITMAP
04
08
00
00
00
81
42
42
22
24
24
14
18
08
10
10
10
20
ENDCHAR
STARTCHAR 00FE
ENCODING 254
SWIDTH 514 0
DWIDTH 10 0
BBX 8 16 2 -3
BITMAP
80
80
80
FC
82
82
81
81
81
81
82
82
C4
B8
80
80
ENDCHAR
STARTCHAR 00FF
ENCODING 255
SWIDTH 411 0
DWIDTH 8 0
BBX 8 13 0 0
BITMAP
81
42
42
22
24
24
14
18
08
10
10
10
20
ENDCHAR
STARTCHAR 0100
ENCODING 256
SWIDTH 565 0
DWIDTH 11 0
BBX 10 17 1 0
BITMAP
3E00
0000
0000
0000
0C00
1400
1400
2200
2200
2200
4100
4100
7F00
8080
8080
8040
0040
ENDCHAR
STARTCHAR 0101
ENCODING 257
SWIDTH 514 0
DWIDTH 10 0
BBX 8 13 1 0
BITMAP
38
00
00
3C
42
02
02
02
7E
82
82
82
7D
ENDCHAR
STARTCHAR 0102
ENCODING 258
SWIDTH 565 0
DWIDTH 11 0
BBX 10 18 1 0
BITMAP
2000
2200
1C00
0000
0000
0C00
1400
1400
2200
2200
2200
4100
4100
7F00
8080
8080
8040
0040
ENDCHAR
STARTCHAR 0103
ENCODING 259
SWIDTH 514 0
DWIDTH 10 0
BBX 8 13 1 1
BITMAP
2C
10
00
3C
42
02
02
02
7E
82
82
82
7D
ENDCHAR
STARTCHAR 0104
ENCODING 260
SWIDTH 565 0
DWIDTH 11 0
BBX 10 17 1 -3
BITMAP
0C00
1400
1400
2200
2200
2200
4100
4100
7F00
8080
8080
8040
0040
0080
0100
0100
00C0
ENDCHAR
STARTCHAR 0105
ENCODING 261
SWIDTH 514 0
DWIDTH 10 0
BBX 9 14 1 -4
BITMAP
7C00
0200
0200
0200
0200
7E00
8200
8200
8200
4600
3900
0200
0400
0380
ENDCHAR
STARTCHAR 0106
ENCODING 262
SWIDTH 565 0
DWIDTH 11 0
BBX 10 18 1 0
BITMAP
0200
0400
0000
0000
0E00
3180
4000
8000
8000
8000
8000
8000
8000
8000
8000
4040
4080
3F00
ENDCHAR
STARTCHAR 0107
ENCODING 263
SWIDTH 462 0
DWIDTH 9 0
BBX 8 14 1 1
BITMAP
04
08
00
00
3C
42
80
80
80
80
80
80
81
7E
ENDCHAR
STARTCHAR 0108
ENCODING 264
SWIDTH 565 0
DWIDTH 11 0
BBX 10 18 1 0
BITMAP
0400
1A00
0100
0000
0E00
3180
4000
8000
8000
8000
8000
8000
8000
8000
8000
4040
4080
3F00
ENDCHAR
STARTCHAR 0109
ENCODING 265
SWIDTH 462 0
DWIDTH 9 0
BBX 8 14 1 0
BITMAP
18
24
00
00
3C
42
80
80
80
80
80
80
81
7E
ENDCHAR
STARTCHAR 010A
ENCODING 266
SWIDTH 565 0
DWIDTH 11 0
BBX 10 17 1 0
BITMAP
0400
0000
0000
0E00
3180
4000
8000
8000
8000
8000
8000
8000
8000
8000
4040
4080
3F00
ENDCHAR
STARTCHAR 010B
ENCODING 267
SWIDTH 462 0
DWIDTH 9 0
BBX 8 10 1 3
BITMAP
3C
42
80
80
80
80
80
80
81
7E
ENDCHAR
STARTCHAR 010C
ENCODING 268
SWIDTH 565 0
DWIDTH 11 0
BBX 10 18 1 0
BITMAP
0100
1200
0C00
0000
0E00
3180
4000
8000
8000
8000
8000
8000
8000
8000
8000
4040
4080
3F00
ENDCHAR
STARTCHAR 010D
ENCODING 269
SWIDTH 462 0
DWIDTH 9 0
BBX 8 14 1 1
BITMAP
24
18
00
00
3C
42
80
80
80
80
80
80
81
7E
ENDCHAR
STARTCHAR 010E
ENCODING 270
SWIDTH 617 0
DWIDTH 12 0
BBX 9 18 2 0
BITMAP
4000
2C00
1000
0000
F800
8600
8100
8080
8080
8080
8080
8080
8080
8080
8080
8080
8100
FE00
ENDCHAR
STARTCHAR 010F
ENCODING 271
SWIDTH 514 0
DWIDTH 10 0
BBX 10 13 1 1
BITMAP
0140
0100
0100
3D00
4300
8100
8100
8100
8100
8100
8100
8300
7E00
ENDCHAR
STARTCHAR 0110
ENCODING 272
SWIDTH 617 0
DWIDTH 12 0
BBX 9 14 2 0
BITMAP
F800
8700
8100
8080
8080
8080
8080
E080
8080
8080
8080
8080
8100
FE00
ENDCHAR
STARTCHAR 0111
ENCODING 273
SWIDTH 565 0
DWIDTH 11 0
BBX 9 13 1 1
BITMAP
0F80
0100
0100
3D00
4300
8100
8100
8100
8100
8100
8100
8300
7E00
ENDCHAR
STARTCHAR 0112
ENCODING 274
SWIDTH 514 0
DWIDTH 10 0
BBX 8 17 2 0
BITMAP
7C
00
00
FF
80
80
80
80
80
80
FC
80
80
80
80
80
FE
ENDCHAR
STARTCHAR 0113
ENCODING 275
SWIDTH 514 0
DWIDTH 10 0
BBX 8 13 1 0
BITMAP
1C
00
00
3C
42
81
81
81
FE
80
80
81
7E
ENDCHAR
STARTCHAR 0114
ENCODING 276
SWIDTH 514 0
DWIDTH 10 0
BBX 8 18 2 0
BITMAP
40
44
38
00
FF
80
80
80
80
80
80
FC
80
80
80
80
80
FE
ENDCHAR
STARTCHAR 0115
ENCODING 277
SWIDTH 514 0
DWIDTH 10 0
BBX 8 13 1 1
BITMAP
24
18
00
3C
42
81
81
81
FE
80
80
81
7E
ENDCHAR
STARTCHAR 0116
ENCODING 278
SWIDTH 514 0
DWIDTH 10 0
BBX 8 17 2 0
BITMAP
10
00
00
FF
80
80
80
80
80
80
FC
80
80
80
80
80
FE
ENDCHAR
STARTCHAR 0117
ENCODING 279
SWIDTH 514 0
DWIDTH 10 0
BBX 8 10 1 3
BITMAP
3C
42
81
81
81
FE
80
80
81
7E
ENDCHAR
STARTCHAR 0118
ENCODING 280
SWIDTH 514 0
DWIDTH 10 0
BBX 8 18 2 -4
BITMAP
FF
80
80
80
80
80
80
FC
80
80
80
80
80
80
7E
04
08
07
ENDCHAR
STARTCHAR 0119
ENCODING 281
SWIDTH 514 0
DWIDTH 10 0
BBX 8 14 1 -4
BITMAP
3C
42
81
81
81
FE
80
80
81
62
1C
10
10
0C
ENDCHAR
STARTCHAR 011A
ENCODING 282
SWIDTH 514 0
DWIDTH 10 0
BBX 8 18 2 0
BITMAP
40
2C
10
00
FF
80
80
80
80
80
80
FC
80
80
80
80
80
FE
ENDCHAR
STARTCHAR 011B
ENCODING 283
SWIDTH 514 0
DWIDTH 10 0
BBX 8 14 1 1
BITMAP
24
18
00
00
3C
42
81
81
81
FE
80
80
81
7E
ENDCHAR
STARTCHAR 011C
ENCODING 284
SWIDTH 617 0
DWIDTH 12 0
BBX 10 18 1 0
BITMAP
0400
0A00
1100
0000
0E00
3180
4040
8000
8000
8000
8000
8000
80C0
8040
8040
4040
40C0
3F00
ENDCHAR
STARTCHAR 011D
ENCODING 285
SWIDTH 514 0
DWIDTH 10 0
BBX 9 18 1 -4
BITMAP
1800
2400
0000
0000
3F80
4200
8200
8200
8200
4200
3C00
C000
8000
7F00
8080
8080
8100
7E00
ENDCHAR
STARTCHAR 011E
ENCODING 286
SWIDTH 617 0
DWIDTH 12 0
BBX 10 17 1 1
BITMAP
1100
0E00
0000
0E00
3180
4040
8000
8000
8000
8000
8000
80C0
8040
8040
4040
40C0
3F00
ENDCHAR
STARTCHAR 011F
ENCODING 287
SWIDTH 514 0
DWIDTH 10 0
BBX 9 17 1 -3
BITMAP
2400
1800
0000
3F80
4200
8200
8200
8200
4200
3C00
C000
8000
7F00
8080
8080
8100
7E00
ENDCHAR
STARTCHAR 0120
ENCODING 288
SWIDTH 617 0
DWIDTH 12 0
BBX 10 17 1 0
BITMAP
0400
0000
0000
0E00
3180
4040
8000
8000
8000
8000
8000
80C0
8040
8040
4040
40C0
3F00
ENDCHAR
STARTCHAR 0121
ENCODING 289
SWIDTH 514 0
DWIDTH 10 0
BBX 9 14 1 -1
BITMAP
3F80
4200
8200
8200
8200
4200
3C00
C000
8000
7F00
8080
8080
8100
7E00
ENDCHAR
STARTCHAR 0122
ENCODING 290
SWIDTH 617 0
DWIDTH 12 0
BBX 10 18 1 -4
BITMAP
0E00
3180
4040
8000
8000
8000
8000
8000
80C0
8040
8040
4040
40C0
3100
0E00
0400
0400
0400
ENDCHAR
STARTCHAR 0123
ENCODING 291
SWIDTH 514 0
DWIDTH 10 0
BBX 9 17 1 -3
BITMAP
1000
0000
0000
3F80
4200
8200
8200
8200
4200
3C00
C000
8000
7F00
8080
8080
8100
7E00
ENDCHAR
STARTCHAR 0124
ENCODING 292
SWIDTH 668 0
DWIDTH 13 0
BBX 9 18 2 0
BITMAP
0800
1400
2200
0000
8000
8080
8080
8080
8080
8080
8080
FF80
8080
8080
8080
8080
8080
8000
ENDCHAR
STARTCHAR 0125
ENCODING 293
SWIDTH 514 0
DWIDTH 10 0
BBX 9 16 0 1
BITMAP
6000
9000
0000
0000
4000
4000
4000
5F00
6080
4080
4080
4080
4080
4080
4080
4080
ENDCHAR
STARTCHAR 0126
ENCODING 294
SWIDTH 668 0
DWIDTH 13 0
BBX 12 14 1 0
BITMAP
4000
4040
4040
FFF0
4040
4040
4040
7FC0
4040
4040
4040
4040
4040
4000
ENDCHAR
STARTCHAR 0127
ENCODING 295
SWIDTH 514 0
DWIDTH 10 0
BBX 8 14 1 0
BITMAP
40
F8
40
40
7E
41
41
41
41
41
41
41
41
40
ENDCHAR
STARTCHAR 0128
ENCODING 296
SWIDTH 360 0
DWIDTH 7 0
BBX 5 17 1 0
BITMAP
60
18
00
F8
20
20
20
20
20
20
20
20
20
20
20
20
70
ENDCHAR
STARTCHAR 0129
ENCODING 297
SWIDTH 205 0
DWIDTH 4 0
BBX 5 13 0 0
BITMAP
C0
38
00
00
00
40
40
40
40
40
40
40
40
ENDCHAR
STARTCHAR 012A
ENCODING 298
SWIDTH 360 0
DWIDTH 7 0
BBX 5 17 1 0
BITMAP
F8
00
00
F8
20
20
20
20
20
20
20
20
20
20
20
20
70
ENDCHAR
STARTCHAR 012B
ENCODING 299
SWIDTH 205 0
DWIDTH 4 0
BBX 3 12 1 0
BITMAP
E0
00
00
00
80
80
80
80
80
80
80
80
ENDCHAR
STARTCHAR 012C
ENCODING 300
SWIDTH 360 0
DWIDTH 7 0
BBX 5 17 1 1
BITMAP
88
70
00
F8
20
20
20
20
20
20
20
20
20
20
20
20
70
ENDCHAR
STARTCHAR 012D
ENCODING 301
SWIDTH 205 0
DWIDTH 4 0
BBX 5 13 0 0
BITMAP
08
90
60
00
00
40
40
40
40
40
40
40
40
ENDCHAR
STARTCHAR 012E
ENCODING 302
SWIDTH 360 0
DWIDTH 7 0
BBX 5 18 1 -4
BITMAP
F8
20
20
20
20
20
20
20
20
20
20
20
20
20
50
20
20
38
ENDCHAR
STARTCHAR 012F
ENCODING 303
SWIDTH 205 0
DWIDTH 4 0
BBX 3 18 0 -4
BITMAP
20
00
00
00
00
40
40
40
40
40
40
40
40
40
40
80
80
E0
ENDCHAR
STARTCHAR 0130
ENCODING 304
SWIDTH 360 0
DWIDTH 7 0
BBX 5 17 1 0
BITMAP
20
00
00
F8
20
20
20
20
20
20
20
20
20
20
20
20
70
ENDCHAR
STARTCHAR 0131
ENCODING 305
SWIDTH 205 0
DWIDTH 4 0
BBX 1 8 2 1
BITMAP
80
80
80
80
80
80
80
80
ENDCHAR
STARTCHAR 0132
ENCODING 306
SWIDTH 617 0
DWIDTH 12 0
BBX 8 14 2 0
BITMAP
0F
81
81
81
81
81
81
01
01
01
01
01
81
7E
ENDCHAR
STARTCHAR 0133
ENCODING 307
SWIDTH 411 0
DWIDTH 8 0
BBX 5 17 2 -4
BITMAP
88
00
00
00
00
88
88
88
88
88
88
88
88
08
08
08
08
ENDCHAR
STARTCHAR 0134
ENCODING 308
SWIDTH 462 0
DWIDTH 9 0
BBX 6 18 1 0
BITMAP
30
48
04
00
7C
04
04
04
04
04
04
04
04
04
04
04
04
F8
ENDCHAR
STARTCHAR 0135
ENCODING 309
SWIDTH 205 0
DWIDTH 4 0
BBX 4 18 0 -4
BITMAP
60
90
00
00
00
40
40
40
40
40
40
40
40
40
40
40
40
40
ENDCHAR
STARTCHAR 0136
ENCODING 310
SWIDTH 565 0
DWIDTH 11 0
BBX 9 17 2 -4
BITMAP
8080
8100
8200
8400
8800
9000
9000
F000
8800
8400
8400
8200
8100
8100
0000
0800
1000
ENDCHAR
STARTCHAR 0137
ENCODING 311
SWIDTH 462 0
DWIDTH 9 0
BBX 7 16 2 -3
BITMAP
80
80
80
80
8C
90
A0
A0
E0
90
88
84
02
00
10
10
ENDCHAR
STARTCHAR 0138
ENCODING 312
SWIDTH 462 0
DWIDTH 9 0
BBX 7 9 2 1
BITMAP
8C
90
A0
C0
A0
90
88
84
02
ENDCHAR
STARTCHAR 0139
ENCODING 313
SWIDTH 462 0
DWIDTH 9 0
BBX 6 18 2 0
BITMAP
40
80
00
00
80
80
80
80
80
80
80
80
80
80
80
80
80
FC
ENDCHAR
STARTCHAR 013A
ENCODING 314
SWIDTH 205 0
DWIDTH 4 0
BBX 2 17 2 0
BITMAP
40
80
00
00
00
80
80
80
80
80
80
80
80
80
80
80
80
ENDCHAR
STARTCHAR 013B
ENCODING 315
SWIDTH 462 0
DWIDTH 9 0
BBX 6 18 2 -4
BITMAP
80
80
80
80
80
80
80
80
80
80
80
80
80
80
7C
10
10
10
ENDCHAR
STARTCHAR 013C
ENCODING 316
SWIDTH 205 0
DWIDTH 4 0
BBX 2 16 2 -3
BITMAP
80
80
80
80
80
80
80
80
80
80
80
80
00
00
40
40
ENDCHAR
STARTCHAR 013D
ENCODING 317
SWIDTH 462 0
DWIDTH 9 0
BBX 6 14 2 0
BITMAP
80
A0
80
80
80
80
80
80
80
80
80
80
80
FC
ENDCHAR
STARTCHAR 013E
ENCODING 318
SWIDTH 205 0
DWIDTH 4 0
BBX 3 12 2 1
BITMAP
A0
A0
80
80
80
80
80
80
80
80
80
80
ENDCHAR
STARTCHAR 013F
ENCODING 319
SWIDTH 462 0
DWIDTH 9 0
BBX 6 14 2 0
BITMAP
80
80
80
80
80
80
80
80
80
80
80
80
80
FC
ENDCHAR
STARTCHAR 0140
ENCODING 320
SWIDTH 257 0
DWIDTH 5 0
BBX 1 12 2 1
BITMAP
80
80
80
80
80
80
80
80
80
80
80
80
ENDCHAR
STARTCHAR 0141
ENCODING 321
SWIDTH 462 0
DWIDTH 9 0
BBX 8 14 0 0
BITMAP
20
20
20
20
20
20
22
3C
E0
20
20
20
20
3F
ENDCHAR
STARTCHAR 0142
ENCODING 322
SWIDTH 257 0
DWIDTH 5 0
BBX 2 14 2 0
BITMAP
80
80
80
80
80
80
C0
80
80
80
80
80
80
80
ENDCHAR
STARTCHAR 0143
ENCODING 323
SWIDTH 668 0
DWIDTH 13 0
BBX 9 18 2 0
BITMAP
0400
0400
0800
0000
8000
8080
C080
A080
A080
9080
8880
8880
8480
8480
8280
8180
8180
8080
ENDCHAR
STARTCHAR 0144
ENCODING 324
SWIDTH 514 0
DWIDTH 10 0
BBX 7 13 2 1
BITMAP
08
10
00
00
7C
82
82
82
82
82
82
82
82
ENDCHAR
STARTCHAR 0145
ENCODING 325
SWIDTH 668 0
DWIDTH 13 0
BBX 9 18 2 -4
BITMAP
8000
8080
C080
A080
A080
9080
8880
8880
8480
8480
8280
8180
8180
8080
0000
0800
0800
0800
ENDCHAR
STARTCHAR 0146
ENCODING 326
SWIDTH 514 0
DWIDTH 10 0
BBX 7 14 2 -4
BITMAP
7C
82
82
82
82
82
82
82
82
00
00
10
10
10
ENDCHAR
STARTCHAR 0147
ENCODING 327
SWIDTH 668 0
DWIDTH 13 0
BBX 9 18 2 0
BITMAP
2000
1600
0800
0000
8000
8080
C080
A080
A080
9080
8880
8880
8480
8480
8280
8180
8180
8080
ENDCHAR
STARTCHAR 0148
ENCODING 328
SWIDTH 514 0
DWIDTH 10 0
BBX 7 13 2 1
BITMAP
48
28
10
00
7C
82
82
82
82
82
82
82
82
ENDCHAR
STARTCHAR 0149
ENCODING 329
SWIDTH 720 0
DWIDTH 14 0
BBX 11 14 2 0
BITMAP
8000
8000
8000
0000
0000
07C0
1840
1020
1020
1020
1020
1020
1020
1020
ENDCHAR
STARTCHAR 014A
ENCODING 330
SWIDTH 668 0
DWIDTH 13 0
BBX 9 18 2 -4
BITMAP
8000
8080
C080
A080
A080
9080
8880
8880
8480
8480
8280
8180
8180
8080
0080
0080
0080
0080
ENDCHAR
STARTCHAR 014B
ENCODING 331
SWIDTH 514 0
DWIDTH 10 0
BBX 7 14 2 -4
BITMAP
7C
82
82
82
82
82
82
82
82
02
02
02
02
02
ENDCHAR
STARTCHAR 014C
ENCODING 332
SWIDTH 668 0
DWIDTH 13 0
BBX 11 17 1 0
BITMAP
1F00
0000
0000
0F00
3080
4040
8040
8020
8020
8020
8020
8020
8020
8040
4040
4080
3F00
ENDCHAR
STARTCHAR 014D
ENCODING 333
SWIDTH 514 0
DWIDTH 10 0
BBX 8 13 1 0
BITMAP
1C
00
00
3C
42
81
81
81
81
81
81
81
7E
ENDCHAR
STARTCHAR 014E
ENCODING 334
SWIDTH 668 0
DWIDTH 13 0
BBX 11 17 1 1
BITMAP
1100
0E00
0000
0F00
3080
4040
8040
8020
8020
8020
8020
8020
8020
8040
4040
4080
3F00
ENDCHAR
STARTCHAR 014F
ENCODING 335
SWIDTH 514 0
DWIDTH 10 0
BBX 8 14 1 0
BITMAP
02
24
18
00
3C
42
81
81
81
81
81
81
81
7E
ENDCHAR
STARTCHAR 0150
ENCODING 336
SWIDTH 668 0
DWIDTH 13 0
BBX 11 18 1 0
BITMAP
0480
0900
0900
0000
0F00
3080
4040
8040
8020
8020
8020
8020
8020
8020
8040
4040
4080
3F00
ENDCHAR
STARTCHAR 0151
ENCODING 337
SWIDTH 514 0
DWIDTH 10 0
BBX 8 14 1 1
BITMAP
13
12
00
00
3C
42
81
81
81
81
81
81
81
7E
ENDCHAR
STARTCHAR 0152
ENCODING 338
SWIDTH 925 0
DWIDTH 18 0
BBX 16 14 1 0
BITMAP
0FFF
3080
4080
8080
8080
8080
8080
80FE
8080
8080
8080
4080
4080
3FFE
ENDCHAR
STARTCHAR 0153
ENCODING 339
SWIDTH 925 0
DWIDTH 18 0
BBX 16 10 1 0
BITMAP
3C3C
42C2
8182
8101
8101
81FE
8100
8081
8182
7E7C
ENDCHAR
STARTCHAR 0154
ENCODING 340
SWIDTH 617 0
DWIDTH 12 0
BBX 9 18 2 0
BITMAP
0400
0800
0000
0000
FC00
8300
8100
8080
8080
8080
8100
FE00
8400
8400
8200
8100
8100
8080
ENDCHAR
STARTCHAR 0155
ENCODING 341
SWIDTH 308 0
DWIDTH 6 0
BBX 4 13 2 1
BITMAP
10
20
00
00
30
C0
80
80
80
80
80
80
80
ENDCHAR
STARTCHAR 0156
ENCODING 342
SWIDTH 617 0
DWIDTH 12 0
BBX 9 17 2 -4
BITMAP
FC00
8300
8100
8080
8080
8080
8100
FE00
8400
8400
8200
8100
8100
8080
0000
0000
1000
ENDCHAR
STARTCHAR 0157
ENCODING 343
SWIDTH 308 0
DWIDTH 6 0
BBX 5 13 1 -4
BITMAP
18
E0
40
80
80
80
80
80
80
00
00
40
40
ENDCHAR
STARTCHAR 0158
ENCODING 344
SWIDTH 617 0
DWIDTH 12 0
BBX 9 18 2 0
BITMAP
4000
2C00
1000
0000
FC00
8300
8100
8080
8080
8080
8100
FE00
8400
8400
8200
8100
8100
8080
ENDCHAR
STARTCHAR 0159
ENCODING 345
SWIDTH 308 0
DWIDTH 6 0
BBX 4 13 2 1
BITMAP
90
60
00
00
30
C0
80
80
80
80
80
80
80
ENDCHAR
STARTCHAR 015A
ENCODING 346
SWIDTH 514 0
DWIDTH 10 0
BBX 8 18 1 0
BITMAP
04
08
00
00
3C
C3
80
80
80
80
60
1E
01
01
01
01
81
7E
ENDCHAR
STARTCHAR 015B
ENCODING 347
SWIDTH 411 0
DWIDTH 8 0
BBX 7 14 1 1
BITMAP
08
10
00
00
7C
80
80
80
40
3C
02
02
82
7C
ENDCHAR
STARTCHAR 015C
ENCODING 348
SWIDTH 514 0
DWIDTH 10 0
BBX 8 18 1 0
BITMAP
08
34
02
00
3C
C3
80
80
80
80
60
1E
01
01
01
01
81
7E
ENDCHAR
STARTCHAR 015D
ENCODING 349
SWIDTH 411 0
DWIDTH 8 0
BBX 7 14 1 0
BITMAP
30
48
04
00
7C
80
80
80
40
3C
02
02
82
7C
ENDCHAR
STARTCHAR 015E
ENCODING 350
SWIDTH 514 0
DWIDTH 10 0
BBX 8 18 1 -4
BITMAP
3C
C3
80
80
80
80
60
1E
01
01
01
01
81
42
3C
08
04
1C
ENDCHAR
STARTCHAR 015F
ENCODING 351
SWIDTH 411 0
DWIDTH 8 0
BBX 7 14 1 -4
BITMAP
7C
80
80
80
40
3C
02
02
82
44
38
18
08
38
ENDCHAR
STARTCHAR 0160
ENCODING 352
SWIDTH 514 0
DWIDTH 10 0
BBX 8 18 1 0
BITMAP
02
24
18
00
3C
C3
80
80
80
80
60
1E
01
01
01
01
81
7E
ENDCHAR
STARTCHAR 0161
ENCODING 353
SWIDTH 411 0
DWIDTH 8 0
BBX 7 14 1 1
BITMAP
48
30
00
00
7C
80
80
80
40
3C
02
02
82
7C
ENDCHAR
STARTCHAR 0162
ENCODING 354
SWIDTH 514 0
DWIDTH 10 0
BBX 11 17 0 -4
BITMAP
FFE0
0400
0400
0400
0400
0400
0400
0400
0400
0400
0400
0400
0400
0400
0000
0400
0400
ENDCHAR
STARTCHAR 0163
ENCODING 355
SWIDTH 308 0
DWIDTH 6 0
BBX 4 17 1 -4
BITMAP
40
40
40
F0
40
40
40
40
40
40
40
40
40
20
20
20
20
ENDCHAR
STARTCHAR 0164
ENCODING 356
SWIDTH 514 0
DWIDTH 10 0
BBX 11 18 0 0
BITMAP
1100
0A00
0400
0000
FFE0
0400
0400
0400
0400
0400
0400
0400
0400
0400
0400
0400
0400
0400
ENDCHAR
STARTCHAR 0165
ENCODING 357
SWIDTH 308 0
DWIDTH 6 0
BBX 4 13 1 1
BITMAP
50
40
40
F0
40
40
40
40
40
40
40
40
60
ENDCHAR
STARTCHAR 0166
ENCODING 358
SWIDTH 514 0
DWIDTH 10 0
BBX 11 14 0 0
BITMAP
FFE0
0400
0400
0400
0400
0400
0400
1F00
0400
0400
0400
0400
0400
0400
ENDCHAR
STARTCHAR 0167
ENCODING 359
SWIDTH 308 0
DWIDTH 6 0
BBX 4 13 1 0
BITMAP
40
40
40
F0
40
40
40
F0
40
40
40
40
60
ENDCHAR
STARTCHAR 0168
ENCODING 360
SWIDTH 617 0
DWIDTH 12 0
BBX 9 17 2 0
BITMAP
3800
0400
0000
0080
8080
8080
8080
8080
8080
8080
8080
8080
8080
8080
8100
8100
7E00
ENDCHAR
STARTCHAR 0169
ENCODING 361
SWIDTH 514 0
DWIDTH 10 0
BBX 7 14 2 0
BITMAP
60
1C
00
00
02
82
82
82
82
82
82
82
82
7E
ENDCHAR
STARTCHAR 016A
ENCODING 362
SWIDTH 617 0
DWIDTH 12 0
BBX 9 17 2 0
BITMAP
3E00
0000
0000
0080
8080
8080
8080
8080
8080
8080
8080
8080
8080
8080
8100
8100
7E00
ENDCHAR
STARTCHAR 016B
ENCODING 363
SWIDTH 514 0
DWIDTH 10 0
BBX 7 13 2 0
BITMAP
38
00
00
02
82
82
82
82
82
82
82
82
7E
ENDCHAR
STARTCHAR 016C
ENCODING 364
SWIDTH 617 0
DWIDTH 12 0
BBX 9 18 2 0
BITMAP
0200
2400
1800
0000
0080
8080
8080
8080
8080
8080
8080
8080
8080
8080
8080
8100
8100
7E00
ENDCHAR
STARTCHAR 016D
ENCODING 365
SWIDTH 514 0
DWIDTH 10 0
BBX 7 14 2 0
BITMAP
04
48
30
00
02
82
82
82
82
82
82
82
82
7E
ENDCHAR
STARTCHAR 016E
ENCODING 366
SWIDTH 617 0
DWIDTH 12 0
BBX 9 18 2 0
BITMAP
3C00
2400
1400
0800
0080
8080
8080
8080
8080
8080
8080
8080
8080
8080
8080
8100
8100
7E00
ENDCHAR
STARTCHAR 016F
ENCODING 367
SWIDTH 514 0
DWIDTH 10 0
BBX 7 15 2 0
BITMAP
38
48
48
30
00
02
82
82
82
82
82
82
82
82
7E
ENDCHAR
STARTCHAR 0170
ENCODING 368
SWIDTH 617 0
DWIDTH 12 0
BBX 9 18 2 0
BITMAP
0900
1200
0000
0000
0080
8080
8080
8080
8080
8080
8080
8080
8080
8080
8080
8100
8100
7E00
ENDCHAR
STARTCHAR 0171
ENCODING 369
SWIDTH 514 0
DWIDTH 10 0
BBX 7 14 2 1
BITMAP
36
24
00
00
02
82
82
82
82
82
82
82
82
7E
ENDCHAR
STARTCHAR 0172
ENCODING 370
SWIDTH 617 0
DWIDTH 12 0
BBX 9 18 2 -4
BITMAP
0080
8080
8080
8080
8080
8080
8080
8080
8080
8080
8080
8100
8100
4200
3C00
0800
1000
0E00
ENDCHAR
STARTCHAR 0173
ENCODING 371
SWIDTH 514 0
DWIDTH 10 0
BBX 7 14 2 -4
BITMAP
02
82
82
82
82
82
82
82
82
46
3C
08
08
04
ENDCHAR
STARTCHAR 0174
ENCODING 372
SWIDTH 822 0
DWIDTH 16 0
BBX 15 18 1 0
BITMAP
0300
0480
0040
0000
0100
8302
8302
8282
8484
8484
4484
4448
4848
4848
2828
3030
3030
1010
ENDCHAR
STARTCHAR 0175
ENCODING 373
SWIDTH 720 0
DWIDTH 14 0
BBX 12 14 1 0
BITMAP
0E00
1100
0000
0000
0000
8610
8A10
8A20
8920
4920
5140
50C0
30C0
2040
ENDCHAR
STARTCHAR 0176
ENCODING 374
SWIDTH 514 0
DWIDTH 10 0
BBX 10 18 0 0
BITMAP
0400
1A00
0100
0000
8000
4040
4080
2100
2100
1200
0A00
0C00
0400
0400
0400
0400
0400
0400
ENDCHAR
STARTCHAR 0177
ENCODING 375
SWIDTH 411 0
DWIDTH 8 0
BBX 8 18 0 -4
BITMAP
1C
22
00
00
00
81
42
42
22
24
24
14
18
08
10
10
10
20
ENDCHAR
STARTCHAR 0178
ENCODING 376
SWIDTH 514 0
DWIDTH 10 0
BBX 10 17 0 0
BITMAP
1100
0000
0000
8000
4040
4080
2100
2100
1200
0A00
0C00
0400
0400
0400
0400
0400
0400
ENDCHAR
STARTCHAR 0179
ENCODING 377
SWIDTH 514 0
DWIDTH 10 0
BBX 9 18 1 0
BITMAP
0400
0800
0800
0000
FF80
0100
0100
0200
0400
0400
0800
1000
1000
2000
4000
4000
8000
FF00
ENDCHAR
STARTCHAR 017A
ENCODING 378
SWIDTH 411 0
DWIDTH 8 0
BBX 7 14 1 1
BITMAP
10
10
00
00
FE
04
08
10
10
20
40
80
80
FC
ENDCHAR
STARTCHAR 017B
ENCODING 379
SWIDTH 514 0
DWIDTH 10 0
BBX 9 17 1 0
BITMAP
0800
0000
0000
FF80
0100
0100
0200
0400
0400
0800
1000
1000
2000
4000
4000
8000
FF00
ENDCHAR
STARTCHAR 017C
ENCODING 380
SWIDTH 411 0
DWIDTH 8 0
BBX 7 10 1 3
BITMAP
FE
04
08
10
10
20
40
80
80
FC
ENDCHAR
STARTCHAR 017D
ENCODING 381
SWIDTH 514 0
DWIDTH 10 0
BBX 9 18 1 0
BITMAP
2200
1400
0800
0000
FF80
0100
0100
0200
0400
0400
0800
1000
1000
2000
4000
4000
8000
FF00
ENDCHAR
STARTCHAR 017E
ENCODING 382
SWIDTH 411 0
DWIDTH 8 0
BBX 7 14 1 1
BITMAP
48
30
00
00
FE
04
08
10
10
20
40
80
80
FC
ENDCHAR
STARTCHAR 018F
ENCODING 399
SWIDTH 668 0
DWIDTH 13 0
BBX 11 14 1 0
BITMAP
0E00
3180
4040
0040
0020
0020
0020
FFE0
8020
8020
8040
4040
4080
3F00
ENDCHAR
STARTCHAR 0192
ENCODING 402
SWIDTH 462 0
DWIDTH 9 0
BBX 9 17 0 -3
BITMAP
0780
0800
0800
0800
0800
0800
0800
0800
3F00
0800
1000
1000
1000
1000
1000
1000
F000
ENDCHAR
STARTCHAR 01A0
ENCODING 416
SWIDTH 668 0
DWIDTH 13 0
BBX 11 16 1 0
BITMAP
0020
0020
0FE0
3080
4040
8040
8020
8020
8020
8020
8020
8020
8040
4040
4080
3F00
ENDCHAR
STARTCHAR 01A1
ENCODING 417
SWIDTH 514 0
DWIDTH 10 0
BBX 8 11 1 1
BITMAP
01
3F
42
81
81
81
81
81
81
81
7E
ENDCHAR
STARTCHAR 01AF
ENCODING 431
SWIDTH 617 0
DWIDTH 12 0
BBX 10 15 2 1
BITMAP
0040
00C0
8080
8080
8080
8080
8080
8080
8080
8080
8080
8080
8100
8100
7E00
ENDCHAR
STARTCHAR 01B0
ENCODING 432
SWIDTH 514 0
DWIDTH 10 0
BBX 8 11 2 1
BITMAP
01
03
82
82
82
82
82
82
82
82
7E
ENDCHAR
STARTCHAR 01FA
ENCODING 506
SWIDTH 565 0
DWIDTH 11 0
BBX 10 21 1 0
BITMAP
0400
0000
0000
1C00
2200
1400
0800
0000
0C00
1400
1400
2200
2200
2200
4100
4100
7F00
8080
8080
8040
0040
ENDCHAR
STARTCHAR 01FB
ENCODING 507
SWIDTH 514 0
DWIDTH 10 0
BBX 8 17 1 1
BITMAP
08
00
38
24
28
10
00
3C
42
02
02
02
7E
82
82
82
7D
ENDCHAR
STARTCHAR 01FC
ENCODING 508
SWIDTH 822 0
DWIDTH 16 0
BBX 15 18 0 0
BITMAP
0008
0008
0010
0000
01FE
0300
0300
0500
0500
0900
0900
11FC
1100
2F00
4100
4100
8100
80FC
ENDCHAR
STARTCHAR 01FD
ENCODING 509
SWIDTH 822 0
DWIDTH 16 0
BBX 15 14 1 1
BITMAP
0080
0100
0000
0000
7CF8
0304
0204
0204
0202
FFFC
8200
8200
8304
7CF8
ENDCHAR
STARTCHAR 01FE
ENCODING 510
SWIDTH 668 0
DWIDTH 13 0
BBX 11 19 1 -1
BITMAP
0200
0400
0400
0000
0E20
31C0
4040
81C0
8120
8220
8420
8420
8820
9020
9040
6040
4080
B100
0E00
ENDCHAR
STARTCHAR 01FF
ENCODING 511
SWIDTH 514 0
DWIDTH 10 0
BBX 8 15 1 0
BITMAP
04
08
00
00
3D
43
83
85
89
91
A1
C1
41
A2
1C
ENDCHAR
STARTCHAR 0218
ENCODING 536
SWIDTH 514 0
DWIDTH 10 0
BBX 8 17 1 -4
BITMAP
3C
C3
80
80
80
80
60
1E
01
01
01
01
81
42
3C
08
08
ENDCHAR
STARTCHAR 0219
ENCODING 537
SWIDTH 411 0
DWIDTH 8 0
BBX 7 14 1 -4
BITMAP
7C
80
80
80
40
3C
02
02
82
44
38
10
10
10
ENDCHAR
STARTCHAR 021A
ENCODING 538
SWIDTH 514 0
DWIDTH 10 0
BBX 11 17 0 -4
BITMAP
FFE0
0400
0400
0400
0400
0400
0400
0400
0400
0400
0400
0400
0400
0400
0000
0400
0400
ENDCHAR
STARTCHAR 021B
ENCODING 539
SWIDTH 308 0
DWIDTH 6 0
BBX 4 17 1 -4
BITMAP
40
40
40
F0
40
40
40
40
40
40
40
40
40
20
20
20
20
ENDCHAR
STARTCHAR 0237
ENCODING 567
SWIDTH 205 0
DWIDTH 4 0
BBX 1 13 1 -3
BITMAP
80
80
80
80
80
80
80
80
80
80
80
80
80
ENDCHAR
STARTCHAR 0259
ENCODING 601
SWIDTH 514 0
DWIDTH 10 0
BBX 8 10 1 0
BITMAP
3C
C2
81
01
01
FF
81
81
82
7E
ENDCHAR
STARTCHAR 02BB
ENCODING 699
SWIDTH 565 0
DWIDTH 11 0
BBX 1 1 5 13
BITMAP
80
ENDCHAR
STARTCHAR 02BC
ENCODING 700
SWIDTH 565 0
DWIDTH 11 0
BBX 1 1 5 12
BITMAP
80
ENDCHAR
STARTCHAR 02C6
ENCODING 710
SWIDTH 565 0
DWIDTH 11 0
BBX 5 2 3 12
BITMAP
70
88
ENDCHAR
STARTCHAR 02C7
ENCODING 711
SWIDTH 565 0
DWIDTH 11 0
BBX 5 2 3 13
BITMAP
88
70
ENDCHAR
STARTCHAR 02D8
ENCODING 728
SWIDTH 565 0
DWIDTH 11 0
BBX 4 1 4 13
BITMAP
F0
ENDCHAR
STARTCHAR 02D9
ENCODING 729
SWIDTH 565 0
DWIDTH 11 0
BBX 0 0 5 12
BITMAP
ENDCHAR
STARTCHAR 02DA
ENCODING 730
SWIDTH 565 0
DWIDTH 11 0
BBX 4 4 4 11
BITMAP
E0
90
A0
40
ENDCHAR
STARTCHAR 02DB
ENCODING 731
SWIDTH 565 0
DWIDTH 11 0
BBX 3 4 3 -4
BITMAP
40
80
80
E0
ENDCHAR
STARTCHAR 02DC
ENCODING 732
SWIDTH 565 0
DWIDTH 11 0
BBX 4 2 4 12
BITMAP
80
70
ENDCHAR
STARTCHAR 02DD
ENCODING 733
SWIDTH 565 0
DWIDTH 11 0
BBX 5 2 4 12
BITMAP
48
90
ENDCHAR
STARTCHAR 0300
ENCODING 768
SWIDTH 0 0
DWIDTH 0 0
BBX 2 3 -2 11
BITMAP
80
80
40
ENDCHAR
STARTCHAR 0301
ENCODING 769
SWIDTH 0 0
DWIDTH 0 0
BBX 3 3 -1 11
BITMAP
20
40
80
ENDCHAR
STARTCHAR 0302
ENCODING 770
SWIDTH 0 0
DWIDTH 0 0
BBX 5 2 -3 12
BITMAP
70
88
ENDCHAR
STARTCHAR 0303
ENCODING 771
SWIDTH 0 0
DWIDTH 0 0
BBX 4 2 -2 12
BITMAP
80
70
ENDCHAR
STARTCHAR 0304
ENCODING 772
SWIDTH 0 0
DWIDTH 0 0
BBX 3 1 -1 12
BITMAP
E0
ENDCHAR
STARTCHAR 0306
ENCODING 774
SWIDTH 0 0
DWIDTH 0 0
BBX 4 1 -2 13
BITMAP
F0
ENDCHAR
STARTCHAR 0307
ENCODING 775
SWIDTH 0 0
DWIDTH 0 0
BBX 0 0 0 12
BITMAP
ENDCHAR
STARTCHAR 0308
ENCODING 776
SWIDTH 0 0
DWIDTH 0 0
BBX 0 0 -2 12
BITMAP
ENDCHAR
STARTCHAR 0309
ENCODING 777
SWIDTH 0 0
DWIDTH 0 0
BBX 1 2 0 11
BITMAP
80
80
ENDCHAR
STARTCHAR 030A
ENCODING 778
SWIDTH 0 0
DWIDTH 0 0
BBX 4 4 -2 11
BITMAP
E0
90
90
60
ENDCHAR
STARTCHAR 030B
ENCODING 779
SWIDTH 0 0
DWIDTH 0 0
BBX 6 4 -2 11
BITMAP
04
48
90
90
ENDCHAR
STARTCHAR 030C
ENCODING 780
SWIDTH 0 0
DWIDTH 0 0
BBX 4 2 -2 13
BITMAP
90
60
ENDCHAR
STARTCHAR 0312
ENCODING 786
SWIDTH 0 0
DWIDTH 0 0
BBX 1 1 0 13
BITMAP
80
ENDCHAR
STARTCHAR 0315
ENCODING 789
SWIDTH 0 0
DWIDTH 0 0
BBX 1 2 0 11
BITMAP
80
80
ENDCHAR
STARTCHAR 031B
ENCODING 795
SWIDTH 0 0
DWIDTH 0 0
BBX 2 3 -1 9
BITMAP
40
40
80
ENDCHAR
STARTCHAR 0323
ENCODING 803
SWIDTH 0 0
DWIDTH 0 0
BBX 0 0 0 -3
BITMAP
ENDCHAR
STARTCHAR 0326
ENCODING 806
SWIDTH 0 0
DWIDTH 0 0
BBX 1 1 -1 -3
BITMAP
80
ENDCHAR
STARTCHAR 0327
ENCODING 807
SWIDTH 0 0
DWIDTH 0 0
BBX 3 3 -1 -3
BITMAP
C0
20
C0
ENDCHAR
STARTCHAR 0328
ENCODING 808
SWIDTH 0 0
DWIDTH 0 0
BBX 3 4 -3 -4
BITMAP
40
80
80
E0
ENDCHAR
STARTCHAR 037E
ENCODING 894
SWIDTH 257 0
DWIDTH 5 0
BBX 2 13 1 -3
BITMAP
40
40
00
00
00
00
00
00
00
40
40
40
80
ENDCHAR
STARTCHAR 0384
ENCODING 900
SWIDTH 565 0
DWIDTH 11 0
BBX 1 2 6 12
BITMAP
80
80
ENDCHAR
STARTCHAR 0385
ENCODING 901
SWIDTH 565 0
DWIDTH 11 0
BBX 3 3 5 11
BITMAP
40
80
A0
ENDCHAR
STARTCHAR 0386
ENCODING 902
SWIDTH 565 0
DWIDTH 11 0
BBX 10 14 1 1
BITMAP
4000
4C00
1400
1400
2200
2200
2200
4100
4100
7F00
8080
8080
8040
0040
ENDCHAR
STARTCHAR 0387
ENCODING 903
SWIDTH 257 0
DWIDTH 5 0
BBX 1 2 2 8
BITMAP
80
80
ENDCHAR
STARTCHAR 0388
ENCODING 904
SWIDTH 565 0
DWIDTH 11 0
BBX 10 14 0 1
BITMAP
9FC0
A000
2000
2000
2000
2000
2000
3F80
2000
2000
2000
2000
2000
1F80
ENDCHAR
STARTCHAR 0389
ENCODING 905
SWIDTH 668 0
DWIDTH 13 0
BBX 12 14 0 1
BITMAP
8010
A010
2010
2010
2010
2010
2010
2FF0
2010
2010
2010
2010
2010
0010
ENDCHAR
STARTCHAR 038A
ENCODING 906
SWIDTH 411 0
DWIDTH 8 0
BBX 7 14 0 1
BITMAP
BE
88
08
08
08
08
08
08
08
08
08
08
08
1C
ENDCHAR
STARTCHAR 038C
ENCODING 908
SWIDTH 668 0
DWIDTH 13 0
BBX 12 14 0 1
BITMAP
8780
9840
2020
4020
4010
4010
4010
4010
4010
4010
4020
2020
2040
1F80
ENDCHAR
STARTCHAR 038E
ENCODING 910
SWIDTH 617 0
DWIDTH 12 0
BBX 12 13 0 1
BITMAP
8010
A020
1020
1040
0880
0880
0500
0300
0200
0200
0200
0200
0200
ENDCHAR
STARTCHAR 038F
ENCODING 911
SWIDTH 668 0
DWIDTH 13 0
BBX 12 14 0 1
BITMAP
8780
9840
2020
4010
4010
4010
4010
4010
4010
4010
2020
2020
1040
18E0
ENDCHAR
STARTCHAR 0390
ENCODING 912
SWIDTH 257 0
DWIDTH 5 0
BBX 3 14 1 1
BITMAP
40
40
00
00
00
80
80
80
80
80
80
80
80
20
ENDCHAR
STARTCHAR 0391
ENCODING 913
SWIDTH 565 0
DWIDTH 11 0
BBX 10 13 1 1
BITMAP
0C00
1400
1400
2200
2200
2200
4100
4100
7F00
8080
8080
8040
0040
ENDCHAR
STARTCHAR 0392
ENCODING 914
SWIDTH 565 0
DWIDTH 11 0
BBX 9 14 2 0
BITMAP
FC00
8200
8100
8100
8100
8100
8200
FD00
8100
8080
8080
8080
8100
FE00
ENDCHAR
STARTCHAR 0393
ENCODING 915
SWIDTH 462 0
DWIDTH 9 0
BBX 7 14 2 0
BITMAP
FE
80
80
80
80
80
80
80
80
80
80
80
80
80
ENDCHAR
STARTCHAR 0394
ENCODING 916
SWIDTH 565 0
DWIDTH 11 0
BBX 10 13 1 1
BITMAP
0C00
1400
1400
2200
2200
2200
4100
4100
4100
8080
8080
8080
FFC0
ENDCHAR
STARTCHAR 0395
ENCODING 917
SWIDTH 514 0
DWIDTH 10 0
BBX 8 14 2 0
BITMAP
FF
80
80
80
80
80
80
FC
80
80
80
80
80
FE
ENDCHAR
STARTCHAR 0396
ENCODING 918
SWIDTH 514 0
DWIDTH 10 0
BBX 9 14 1 0
BITMAP
FF80
0100
0100
0200
0400
0400
0800
1000
1000
2000
4000
4000
8000
FF00
ENDCHAR
STARTCHAR 0397
ENCODING 919
SWIDTH 668 0
DWIDTH 13 0
BBX 9 14 2 0
BITMAP
8000
8080
8080
8080
8080
8080
8080
FF80
8080
8080
8080
8080
8080
8000
ENDCHAR
STARTCHAR 0398
ENCODING 920
SWIDTH 668 0
DWIDTH 13 0
BBX 11 14 1 0
BITMAP
0F00
3080
4040
8040
8020
8020
8020
9F20
8020
8020
8040
4040
4080
3F00
ENDCHAR
STARTCHAR 0399
ENCODING 921
SWIDTH 360 0
DWIDTH 7 0
BBX 5 14 1 0
BITMAP
F8
20
20
20
20
20
20
20
20
20
20
20
20
70
ENDCHAR
STARTCHAR 039A
ENCODING 922
SWIDTH 565 0
DWIDTH 11 0
BBX 9 14 2 0
BITMAP
8080
8100
8200
8400
8800
9000
9000
F000
8800
8400
8400
8200
8100
8100
ENDCHAR
STARTCHAR 039B
ENCODING 923
SWIDTH 565 0
DWIDTH 11 0
BBX 10 14 1 0
BITMAP
0800
1800
1400
1400
2400
2200
2200
4100
4100
4100
8080
8080
8080
0040
ENDCHAR
STARTCHAR 039C
ENCODING 924
SWIDTH 771 0
DWIDTH 15 0
BBX 11 14 2 0
BITMAP
8000
8020
C060
A0A0
A0A0
9120
9120
8A20
8420
8020
8020
8020
8020
8000
ENDCHAR
STARTCHAR 039D
ENCODING 925
SWIDTH 668 0
DWIDTH 13 0
BBX 9 14 2 0
BITMAP
8000
8080
C080
A080
A080
9080
8880
8880
8480
8480
8280
8180
8180
8080
ENDCHAR
STARTCHAR 039E
ENCODING 926
SWIDTH 514 0
DWIDTH 10 0
BBX 8 14 1 0
BITMAP
FF
00
00
00
00
00
00
3E
00
00
00
00
00
7E
ENDCHAR
STARTCHAR 039F
ENCODING 927
SWIDTH 668 0
DWIDTH 13 0
BBX 11 14 1 0
BITMAP
0F00
3080
4040
8040
8020
8020
8020
8020
8020
8020
8040
4040
4080
3F00
ENDCHAR
STARTCHAR 03A0
ENCODING 928
SWIDTH 668 0
DWIDTH 13 0
BBX 9 14 2 0
BITMAP
FF80
8080
8080
8080
8080
8080
8080
8080
8080
8080
8080
8080
8080
8000
ENDCHAR
STARTCHAR 03A1
ENCODING 929
SWIDTH 565 0
DWIDTH 11 0
BBX 9 14 2 0
BITMAP
FC00
8300
8100
8080
8080
8080
8100
FE00
8000
8000
8000
8000
8000
8000
ENDCHAR
STARTCHAR 03A3
ENCODING 931
SWIDTH 565 0
DWIDTH 11 0
BBX 9 14 1 0
BITMAP
FF80
8000
4000
2000
1000
1000
0800
0400
0800
1000
2000
4000
8000
FF00
ENDCHAR
STARTCHAR 03A4
ENCODING 932
SWIDTH 514 0
DWIDTH 10 0
BBX 11 14 0 0
BITMAP
FFE0
0400
0400
0400
0400
0400
0400
0400
0400
0400
0400
0400
0400
0400
ENDCHAR
STARTCHAR 03A5
ENCODING 933
SWIDTH 514 0
DWIDTH 10 0
BBX 10 14 0 0
BITMAP
8000
4040
4080
2100
2100
1200
0A00
0C00
0400
0400
0400
0400
0400
0400
ENDCHAR
STARTCHAR 03A6
ENCODING 934
SWIDTH 822 0
DWIDTH 16 0
BBX 14 13 1 0
BITMAP
1FE0
2210
4208
8208
8204
8204
8204
8204
8208
8208
4210
3220
0FC0
ENDCHAR
STARTCHAR 03A7
ENCODING 935
SWIDTH 514 0
DWIDTH 10 0
BBX 9 13 1 1
BITMAP
8180
4100
4200
2400
1400
1800
0800
1400
2400
4200
4100
8100
0080
ENDCHAR
STARTCHAR 03A8
ENCODING 936
SWIDTH 720 0
DWIDTH 14 0
BBX 11 14 2 0
BITMAP
0400
8420
8420
8420
8420
8420
8420
8420
8440
7580
0E00
0400
0400
0400
ENDCHAR
STARTCHAR 03A9
ENCODING 937
SWIDTH 668 0
DWIDTH 13 0
BBX 11 14 1 0
BITMAP
0F00
3080
4040
8020
8020
8020
8020
8020
8020
8020
4040
4040
2080
31C0
ENDCHAR
STARTCHAR 03AA
ENCODING 938
SWIDTH 360 0
DWIDTH 7 0
BBX 5 17 1 0
BITMAP
88
00
00
F8
20
20
20
20
20
20
20
20
20
20
20
20
70
ENDCHAR
STARTCHAR 03AB
ENCODING 939
SWIDTH 514 0
DWIDTH 10 0
BBX 10 17 0 0
BITMAP
1100
0000
0000
8000
4040
4080
2100
2100
1200
0A00
0C00
0400
0400
0400
0400
0400
0400
ENDCHAR
STARTCHAR 03AC
ENCODING 940
SWIDTH 617 0
DWIDTH 12 0
BBX 10 15 1 0
BITMAP
0400
0800
0800
0000
0000
3C40
C280
8280
8180
8100
8100
8180
8280
8280
7C40
ENDCHAR
STARTCHAR 03AD
ENCODING 941
SWIDTH 514 0
DWIDTH 10 0
BBX 7 15 2 0
BITMAP
08
10
10
00
00
7C
80
80
80
40
B0
80
80
82
FC
ENDCHAR
STARTCHAR 03AE
ENCODING 942
SWIDTH 565 0
DWIDTH 11 0
BBX 8 17 1 -3
BITMAP
04
08
08
00
FE
41
41
41
41
41
41
41
41
41
01
01
01
ENDCHAR
STARTCHAR 03AF
ENCODING 943
SWIDTH 257 0
DWIDTH 5 0
BBX 2 15 2 0
BITMAP
40
80
80
00
00
00
80
80
80
80
80
80
80
80
40
ENDCHAR
STARTCHAR 03B0
ENCODING 944
SWIDTH 514 0
DWIDTH 10 0
BBX 7 14 2 1
BITMAP
10
20
00
00
02
82
82
82
82
82
82
82
84
7C
ENDCHAR
STARTCHAR 03B1
ENCODING 945
SWIDTH 617 0
DWIDTH 12 0
BBX 10 10 1 0
BITMAP
3C40
C280
8280
8180
8100
8100
8180
8280
8280
7C40
ENDCHAR
STARTCHAR 03B2
ENCODING 946
SWIDTH 565 0
DWIDTH 11 0
BBX 8 18 2 -4
BITMAP
18
E4
82
82
82
82
84
9C
82
81
81
81
81
82
C4
B8
80
80
ENDCHAR
STARTCHAR 03B3
ENCODING 947
SWIDTH 462 0
DWIDTH 9 0
BBX 9 13 0 -4
BITMAP
C080
4100
4100
2200
2200
2200
1400
1400
1800
0800
0800
0800
0800
ENDCHAR
STARTCHAR 03B4
ENCODING 948
SWIDTH 514 0
DWIDTH 10 0
BBX 8 14 1 0
BITMAP
7E
20
10
08
1C
62
81
81
81
81
81
81
81
7E
ENDCHAR
STARTCHAR 03B5
ENCODING 949
SWIDTH 514 0
DWIDTH 10 0
BBX 7 10 2 0
BITMAP
7C
80
80
80
40
B0
80
80
82
FC
ENDCHAR
STARTCHAR 03B6
ENCODING 950
SWIDTH 411 0
DWIDTH 8 0
BBX 6 17 1 -3
BITMAP
7C
04
08
10
20
40
40
80
80
80
80
80
40
38
04
04
04
ENDCHAR
STARTCHAR 03B7
ENCODING 951
SWIDTH 565 0
DWIDTH 11 0
BBX 8 13 1 -4
BITMAP
FE
41
41
41
41
41
41
41
41
41
01
01
01
ENDCHAR
STARTCHAR 03B8
ENCODING 952
SWIDTH 514 0
DWIDTH 10 0
BBX 8 15 1 0
BITMAP
18
66
41
81
81
81
81
81
FF
81
81
81
81
42
3E
ENDCHAR
STARTCHAR 03B9
ENCODING 953
SWIDTH 257 0
DWIDTH 5 0
BBX 2 9 2 1
BITMAP
80
80
80
80
80
80
80
80
40
ENDCHAR
STARTCHAR 03BA
ENCODING 954
SWIDTH 462 0
DWIDTH 9 0
BBX 7 10 2 0
BITMAP
02
8C
90
A0
C0
A0
90
88
84
02
ENDCHAR
STARTCHAR 03BB
ENCODING 955
SWIDTH 462 0
DWIDTH 9 0
BBX 8 14 0 0
BITMAP
20
10
10
10
08
18
18
24
24
44
42
42
82
01
ENDCHAR
STARTCHAR 03BC
ENCODING 956
SWIDTH 565 0
DWIDTH 11 0
BBX 8 12 2 -3
BITMAP
82
82
82
82
82
82
82
82
C4
B9
80
80
ENDCHAR
STARTCHAR 03BD
ENCODING 957
SWIDTH 462 0
DWIDTH 9 0
BBX 9 10 0 0
BITMAP
C080
4100
4100
2200
2200
2200
1400
1400
1400
0800
ENDCHAR
STARTCHAR 03BE
ENCODING 958
SWIDTH 462 0
DWIDTH 9 0
BBX 7 16 1 -3
BITMAP
3C
40
80
80
40
20
38
C0
80
80
80
80
40
38
06
04
ENDCHAR
STARTCHAR 03BF
ENCODING 959
SWIDTH 514 0
DWIDTH 10 0
BBX 8 10 1 0
BITMAP
3C
42
81
81
81
81
81
81
81
7E
ENDCHAR
STARTCHAR 03C0
ENCODING 960
SWIDTH 565 0
DWIDTH 11 0
BBX 10 10 1 0
BITMAP
FFC0
4100
4100
4100
4100
4100
4100
4100
4100
4100
ENDCHAR
STARTCHAR 03C1
ENCODING 961
SWIDTH 514 0
DWIDTH 10 0
BBX 8 14 1 -4
BITMAP
3C
42
81
81
81
81
81
81
82
C2
BC
80
80
80
ENDCHAR
STARTCHAR 03C2
ENCODING 962
SWIDTH 462 0
DWIDTH 9 0
BBX 7 12 1 -3
BITMAP
3C
42
80
80
80
80
80
80
60
18
06
02
ENDCHAR
STARTCHAR 03C3
ENCODING 963
SWIDTH 514 0
DWIDTH 10 0
BBX 9 10 1 0
BITMAP
1F80
6200
8100
8100
8100
8100
8100
8100
8100
7E00
ENDCHAR
STARTCHAR 03C4
ENCODING 964
SWIDTH 462 0
DWIDTH 9 0
BBX 8 10 1 0
BITMAP
FF
10
10
10
10
10
10
10
10
18
ENDCHAR
STARTCHAR 03C5
ENCODING 965
SWIDTH 514 0
DWIDTH 10 0
BBX 7 10 2 0
BITMAP
02
82
82
82
82
82
82
82
84
7C
ENDCHAR
STARTCHAR 03C6
ENCODING 966
SWIDTH 668 0
DWIDTH 13 0
BBX 11 14 1 -4
BITMAP
43C0
8440
8420
8420
8420
8420
8420
8440
4440
2480
1F00
0400
0400
0400
ENDCHAR
STARTCHAR 03C7
ENCODING 967
SWIDTH 411 0
DWIDTH 8 0
BBX 8 14 0 -4
BITMAP
C0
41
22
24
24
18
08
18
18
24
24
42
42
01
ENDCHAR
STARTCHAR 03C8
ENCODING 968
SWIDTH 668 0
DWIDTH 13 0
BBX 10 16 2 -3
BITMAP
0800
0800
0800
0840
8840
8840
8840
8840
8840
8840
8880
8880
4900
3E00
0800
0800
ENDCHAR
STARTCHAR 03C9
ENCODING 969
SWIDTH 668 0
DWIDTH 13 0
BBX 11 10 1 0
BITMAP
2040
4020
8020
8020
8420
8420
8420
8420
8420
7BC0
ENDCHAR
STARTCHAR 03CA
ENCODING 970
SWIDTH 257 0
DWIDTH 5 0
BBX 3 9 1 4
BITMAP
80
80
80
80
80
80
80
80
20
ENDCHAR
STARTCHAR 03CB
ENCODING 971
SWIDTH 514 0
DWIDTH 10 0
BBX 7 13 2 0
BITMAP
40
00
00
02
82
82
82
82
82
82
82
84
7C
ENDCHAR
STARTCHAR 03CC
ENCODING 972
SWIDTH 514 0
DWIDTH 10 0
BBX 8 15 1 0
BITMAP
04
08
08
00
00
3C
42
81
81
81
81
81
81
81
7E
ENDCHAR
STARTCHAR 03CD
ENCODING 973
SWIDTH 514 0
DWIDTH 10 0
BBX 7 15 2 0
BITMAP
08
10
10
00
00
02
82
82
82
82
82
82
82
84
7C
ENDCHAR
STARTCHAR 03CE
ENCODING 974
SWIDTH 668 0
DWIDTH 13 0
BBX 11 14 1 1
BITMAP
0200
0400
0000
0000
2040
4020
8020
8020
8420
8420
8420
8420
8420
7BC0
ENDCHAR
STARTCHAR 0400
ENCODING 1024
SWIDTH 514 0
DWIDTH 10 0
BBX 8 18 2 0
BITMAP
20
20
10
00
FF
80
80
80
80
80
80
FC
80
80
80
80
80
FE
ENDCHAR
STARTCHAR 0401
ENCODING 1025
SWIDTH 514 0
DWIDTH 10 0
BBX 8 17 2 0
BITMAP
24
00
00
FF
80
80
80
80
80
80
FC
80
80
80
80
80
FE
ENDCHAR
STARTCHAR 0402
ENCODING 1026
SWIDTH 771 0
DWIDTH 15 0
BBX 14 17 0 -3
BITMAP
FFE0
0400
0400
0400
0400
0400
07F0
0408
0408
0404
0404
0404
0404
0404
0004
0008
0018
ENDCHAR
STARTCHAR 0403
ENCODING 1027
SWIDTH 462 0
DWIDTH 9 0
BBX 7 18 2 0
BITMAP
08
10
10
00
FE
80
80
80
80
80
80
80
80
80
80
80
80
80
ENDCHAR
STARTCHAR 0404
ENCODING 1028
SWIDTH 565 0
DWIDTH 11 0
BBX 10 14 1 0
BITMAP
0E00
3180
4000
8000
8000
8000
8000
FE00
8000
8000
8000
4040
4080
3F00
ENDCHAR
STARTCHAR 0405
ENCODING 1029
SWIDTH 514 0
DWIDTH 10 0
BBX 8 14 1 0
BITMAP
3C
C3
80
80
80
80
60
1E
01
01
01
01
81
7E
ENDCHAR
STARTCHAR 0406
ENCODING 1030
SWIDTH 360 0
DWIDTH 7 0
BBX 5 14 1 0
BITMAP
F8
20
20
20
20
20
20
20
20
20
20
20
20
70
ENDCHAR
STARTCHAR 0407
ENCODING 1031
SWIDTH 360 0
DWIDTH 7 0
BBX 5 17 1 0
BITMAP
88
00
00
F8
20
20
20
20
20
20
20
20
20
20
20
20
70
ENDCHAR
STARTCHAR 0408
ENCODING 1032
SWIDTH 462 0
DWIDTH 9 0
BBX 6 14 1 0
BITMAP
7C
04
04
04
04
04
04
04
04
04
04
04
04
F8
ENDCHAR
STARTCHAR 0409
ENCODING 1033
SWIDTH 925 0
DWIDTH 18 0
BBX 17 14 1 0
BITMAP
1F8000
208000
208000
208000
208000
208000
20FE00
208100
208080
208080
408080
408080
408100
80FE00
ENDCHAR
STARTCHAR 040A
ENCODING 1034
SWIDTH 1028 0
DWIDTH 20 0
BBX 17 14 2 0
BITMAP
808000
808000
808000
808000
808000
808000
808000
FFFF00
808080
808080
808080
808080
808100
80FE00
ENDCHAR
STARTCHAR 040B
ENCODING 1035
SWIDTH 771 0
DWIDTH 15 0
BBX 14 14 0 0
BITMAP
FFE0
0400
0400
0400
0400
0400
07F0
0408
0404
0404
0404
0404
0404
0404
ENDCHAR
STARTCHAR 040C
ENCODING 1036
SWIDTH 565 0
DWIDTH 11 0
BBX 9 18 2 0
BITMAP
0400
0800
0000
0000
8080
8300
8200
8400
8400
8800
9000
F000
8800
8800
8400
8200
8200
8100
ENDCHAR
STARTCHAR 040D
ENCODING 1037
SWIDTH 668 0
DWIDTH 13 0
BBX 9 18 2 0
BITMAP
1000
1000
0800
0000
8000
8080
8180
8280
8280
8480
8880
8880
9080
A080
A080
C080
8080
8000
ENDCHAR
STARTCHAR 040E
ENCODING 1038
SWIDTH 565 0
DWIDTH 11 0
BBX 10 18 1 0
BITMAP
2000
2200
1C00
0000
0040
8080
8080
4100
4100
2100
2200
1200
1400
0C00
0400
0800
0800
1000
ENDCHAR
STARTCHAR 040F
ENCODING 1039
SWIDTH 668 0
DWIDTH 13 0
BBX 9 17 2 -3
BITMAP
8000
8080
8080
8080
8080
8080
8080
8080
8080
8080
8080
8080
8080
8080
7F00
0800
0800
ENDCHAR
STARTCHAR 0410
ENCODING 1040
SWIDTH 565 0
DWIDTH 11 0
BBX 10 13 1 1
BITMAP
0C00
1400
1400
2200
2200
2200
4100
4100
7F00
8080
8080
8040
0040
ENDCHAR
STARTCHAR 0411
ENCODING 1041
SWIDTH 565 0
DWIDTH 11 0
BBX 8 14 2 0
BITMAP
FE
80
80
80
80
80
FE
81
81
81
81
81
81
FE
ENDCHAR
STARTCHAR 0412
ENCODING 1042
SWIDTH 565 0
DWIDTH 11 0
BBX 9 14 2 0
BITMAP
FC00
8200
8100
8100
8100
8100
8200
FD00
8100
8080
8080
8080
8100
FE00
ENDCHAR
STARTCHAR 0413
ENCODING 1043
SWIDTH 462 0
DWIDTH 9 0
BBX 7 14 2 0
BITMAP
FE
80
80
80
80
80
80
80
80
80
80
80
80
80
ENDCHAR
STARTCHAR 0414
ENCODING 1044
SWIDTH 617 0
DWIDTH 12 0
BBX 12 17 0 -3
BITMAP
1FC0
1040
1040
1040
1040
1040
1040
1040
1040
2040
2040
2040
2040
4040
BFB0
8010
8000
ENDCHAR
STARTCHAR 0415
ENCODING 1045
SWIDTH 514 0
DWIDTH 10 0
BBX 8 14 2 0
BITMAP
FF
80
80
80
80
80
80
FC
80
80
80
80
80
FE
ENDCHAR
STARTCHAR 0416
ENCODING 1046
SWIDTH 874 0
DWIDTH 17 0
BBX 15 14 1 0
BITMAP
8002
4104
2108
2108
1110
1110
0920
0FE0
1110
1110
2108
2108
4104
4002
ENDCHAR
STARTCHAR 0417
ENCODING 1047
SWIDTH 565 0
DWIDTH 11 0
BBX 9 14 1 0
BITMAP
1C00
6300
0100
0080
0080
0100
0200
1E00
0100
0080
0080
0080
8100
7E00
ENDCHAR
STARTCHAR 0418
ENCODING 1048
SWIDTH 668 0
DWIDTH 13 0
BBX 9 14 2 0
BITMAP
8000
8080
8180
8280
8280
8480
8880
8880
9080
A080
A080
C080
8080
8000
ENDCHAR
STARTCHAR 0419
ENCODING 1049
SWIDTH 668 0
DWIDTH 13 0
BBX 9 18 2 0
BITMAP
2000
2200
1C00
0000
8000
8080
8180
8280
8280
8480
8880
8880
9080
A080
A080
C080
8080
8000
ENDCHAR
STARTCHAR 041A
ENCODING 1050
SWIDTH 565 0
DWIDTH 11 0
BBX 9 14 2 0
BITMAP
8080
8300
8200
8400
8400
8800
9000
F000
8800
8800
8400
8200
8200
8100
ENDCHAR
STARTCHAR 041B
ENCODING 1051
SWIDTH 617 0
DWIDTH 12 0
BBX 9 14 1 0
BITMAP
1F80
2080
2080
2080
2080
2080
2080
2080
2080
2080
4080
4080
4080
8000
ENDCHAR
STARTCHAR 041C
ENCODING 1052
SWIDTH 771 0
DWIDTH 15 0
BBX 11 14 2 0
BITMAP
8000
8020
C060
A0A0
A0A0
9120
9120
8A20
8420
8020
8020
8020
8020
8000
ENDCHAR
STARTCHAR 041D
ENCODING 1053
SWIDTH 668 0
DWIDTH 13 0
BBX 9 14 2 0
BITMAP
8000
8080
8080
8080
8080
8080
8080
FF80
8080
8080
8080
8080
8080
8000
ENDCHAR
STARTCHAR 041E
ENCODING 1054
SWIDTH 668 0
DWIDTH 13 0
BBX 11 14 1 0
BITMAP
0F00
3080
4040
8040
8020
8020
8020
8020
8020
8020
8040
4040
4080
3F00
ENDCHAR
STARTCHAR 041F
ENCODING 1055
SWIDTH 668 0
DWIDTH 13 0
BBX 9 14 2 0
BITMAP
FF80
8080
8080
8080
8080
8080
8080
8080
8080
8080
8080
8080
8080
8000
ENDCHAR
STARTCHAR 0420
ENCODING 1056
SWIDTH 565 0
DWIDTH 11 0
BBX 9 14 2 0
BITMAP
FC00
8300
8100
8080
8080
8080
8100
FE00
8000
8000
8000
8000
8000
8000
ENDCHAR
STARTCHAR 0421
ENCODING 1057
SWIDTH 565 0
DWIDTH 11 0
BBX 10 14 1 0
BITMAP
0E00
3180
4000
8000
8000
8000
8000
8000
8000
8000
8000
4040
4080
3F00
ENDCHAR
STARTCHAR 0422
ENCODING 1058
SWIDTH 514 0
DWIDTH 10 0
BBX 11 14 0 0
BITMAP
FFE0
0400
0400
0400
0400
0400
0400
0400
0400
0400
0400
0400
0400
0400
ENDCHAR
STARTCHAR 0423
ENCODING 1059
SWIDTH 565 0
DWIDTH 11 0
BBX 10 14 1 0
BITMAP
0040
8080
8080
4100
4100
2100
2200
1200
1400
0C00
0400
0800
0800
1000
ENDCHAR
STARTCHAR 0424
ENCODING 1060
SWIDTH 771 0
DWIDTH 15 0
BBX 14 13 1 0
BITMAP
0200
3FE0
4210
8208
8208
8204
8204
8204
8208
4208
2210
1FE0
0200
ENDCHAR
STARTCHAR 0425
ENCODING 1061
SWIDTH 514 0
DWIDTH 10 0
BBX 9 13 1 1
BITMAP
8180
4100
4200
2400
1400
1800
0800
1400
2400
4200
4100
8100
0080
ENDCHAR
STARTCHAR 0426
ENCODING 1062
SWIDTH 668 0
DWIDTH 13 0
BBX 11 17 2 -3
BITMAP
8000
8080
8080
8080
8080
8080
8080
8080
8080
8080
8080
8080
8080
8080
7F60
0020
0020
ENDCHAR
STARTCHAR 0427
ENCODING 1063
SWIDTH 617 0
DWIDTH 12 0
BBX 9 13 1 0
BITMAP
8000
8080
8080
8080
8080
8080
8080
4080
3F80
0080
0080
0080
0080
ENDCHAR
STARTCHAR 0428
ENCODING 1064
SWIDTH 874 0
DWIDTH 17 0
BBX 13 14 2 0
BITMAP
8000
8208
8208
8208
8208
8208
8208
8208
8208
8208
8208
8208
8208
FFF8
ENDCHAR
STARTCHAR 0429
ENCODING 1065
SWIDTH 925 0
DWIDTH 18 0
BBX 15 16 2 -3
BITMAP
8000
8208
8208
8208
8208
8208
8208
8208
8208
8208
8208
8208
8208
8208
7DF6
0002
ENDCHAR
STARTCHAR 042A
ENCODING 1066
SWIDTH 720 0
DWIDTH 14 0
BBX 13 14 0 0
BITMAP
F800
0800
0800
0800
0800
0800
0FE0
0810
0808
0808
0808
0808
0810
0FE0
ENDCHAR
STARTCHAR 042B
ENCODING 1067
SWIDTH 771 0
DWIDTH 15 0
BBX 12 14 2 0
BITMAP
8010
8010
8010
8010
8010
8010
FE10
8110
8110
8110
8110
8110
8110
FE10
ENDCHAR
STARTCHAR 042C
ENCODING 1068
SWIDTH 565 0
DWIDTH 11 0
BBX 9 14 2 0
BITMAP
8000
8000
8000
8000
8000
8000
FE00
8100
8100
8080
8080
8080
8100
FE00
ENDCHAR
STARTCHAR 042D
ENCODING 1069
SWIDTH 565 0
DWIDTH 11 0
BBX 9 14 1 0
BITMAP
1C00
6300
0080
0080
0080
0080
0080
1F80
0080
0080
0080
8080
8100
7E00
ENDCHAR
STARTCHAR 042E
ENCODING 1070
SWIDTH 874 0
DWIDTH 17 0
BBX 14 14 2 0
BITMAP
81E0
8610
8808
8804
8804
9004
9004
F004
9004
9004
8804
8808
8408
83F0
ENDCHAR
STARTCHAR 042F
ENCODING 1071
SWIDTH 617 0
DWIDTH 12 0
BBX 9 14 1 0
BITMAP
1F80
6080
8080
8080
8080
8080
4080
3F80
1080
2080
2080
4080
4080
8000
ENDCHAR
STARTCHAR 0430
ENCODING 1072
SWIDTH 514 0
DWIDTH 10 0
BBX 8 10 1 0
BITMAP
3C
42
02
02
02
7E
82
82
82
7D
ENDCHAR
STARTCHAR 0431
ENCODING 1073
SWIDTH 514 0
DWIDTH 10 0
BBX 8 14 1 0
BITMAP
3E
40
80
80
9C
E2
81
81
81
81
81
81
81
7E
ENDCHAR
STARTCHAR 0432
ENCODING 1074
SWIDTH 514 0
DWIDTH 10 0
BBX 7 10 2 0
BITMAP
FC
82
82
82
84
FC
82
82
82
FC
ENDCHAR
STARTCHAR 0433
ENCODING 1075
SWIDTH 411 0
DWIDTH 8 0
BBX 6 9 2 0
BITMAP
FC
80
80
80
80
80
80
80
80
ENDCHAR
STARTCHAR 0434
ENCODING 1076
SWIDTH 514 0
DWIDTH 10 0
BBX 10 13 0 -3
BITMAP
1F00
2100
2100
2100
2100
2100
2100
2100
4100
4100
BEC0
8040
8040
ENDCHAR
STARTCHAR 0435
ENCODING 1077
SWIDTH 514 0
DWIDTH 10 0
BBX 8 10 1 0
BITMAP
3C
42
81
81
81
FE
80
80
81
7E
ENDCHAR
STARTCHAR 0436
ENCODING 1078
SWIDTH 720 0
DWIDTH 14 0
BBX 12 10 1 0
BITMAP
8010
4420
2440
2440
1480
1F80
2440
4440
4420
8010
ENDCHAR
STARTCHAR 0437
ENCODING 1079
SWIDTH 462 0
DWIDTH 9 0
BBX 7 10 1 0
BITMAP
7C
82
02
02
04
1C
02
02
82
7C
ENDCHAR
STARTCHAR 0438
ENCODING 1080
SWIDTH 565 0
DWIDTH 11 0
BBX 7 9 2 1
BITMAP
86
86
8A
92
92
A2
C2
82
80
ENDCHAR
STARTCHAR 0439
ENCODING 1081
SWIDTH 565 0
DWIDTH 11 0
BBX 7 14 2 0
BITMAP
44
48
30
00
00
86
86
8A
92
92
A2
C2
82
80
ENDCHAR
STARTCHAR 043A
ENCODING 1082
SWIDTH 514 0
DWIDTH 10 0
BBX 7 10 2 0
BITMAP
02
8C
88
90
A0
D0
90
88
88
04
ENDCHAR
STARTCHAR 043B
ENCODING 1083
SWIDTH 514 0
DWIDTH 10 0
BBX 7 10 1 0
BITMAP
3E
42
42
42
42
42
42
42
82
80
ENDCHAR
STARTCHAR 043C
ENCODING 1084
SWIDTH 668 0
DWIDTH 13 0
BBX 9 9 2 0
BITMAP
8080
C180
C180
A280
A480
9480
8880
8080
8080
ENDCHAR
STARTCHAR 043D
ENCODING 1085
SWIDTH 565 0
DWIDTH 11 0
BBX 7 8 2 1
BITMAP
82
82
82
82
FE
82
82
82
ENDCHAR
STARTCHAR 043E
ENCODING 1086
SWIDTH 514 0
DWIDTH 10 0
BBX 8 10 1 0
BITMAP
3C
42
81
81
81
81
81
81
81
7E
ENDCHAR
STARTCHAR 043F
ENCODING 1087
SWIDTH 565 0
DWIDTH 11 0
BBX 7 9 2 0
BITMAP
FE
82
82
82
82
82
82
82
82
ENDCHAR
STARTCHAR 0440
ENCODING 1088
SWIDTH 514 0
DWIDTH 10 0
BBX 8 13 2 -4
BITMAP
7C
82
82
81
81
81
81
82
82
C4
B8
80
80
ENDCHAR
STARTCHAR 0441
ENCODING 1089
SWIDTH 462 0
DWIDTH 9 0
BBX 8 10 1 0
BITMAP
3C
42
80
80
80
80
80
80
81
7E
ENDCHAR
STARTCHAR 0442
ENCODING 1090
SWIDTH 462 0
DWIDTH 9 0
BBX 8 10 1 0
BITMAP
FF
10
10
10
10
10
10
10
10
10
ENDCHAR
STARTCHAR 0443
ENCODING 1091
SWIDTH 411 0
DWIDTH 8 0
BBX 8 13 0 -3
BITMAP
81
42
42
22
24
24
14
18
08
10
10
10
20
ENDCHAR
STARTCHAR 0444
ENCODING 1092
SWIDTH 720 0
DWIDTH 14 0
BBX 12 16 1 -3
BITMAP
0400
0400
0400
7DE0
8220
8410
8410
8410
8410
8410
8410
8220
4E20
35C0
0400
0400
ENDCHAR
STARTCHAR 0445
ENCODING 1093
SWIDTH 462 0
DWIDTH 9 0
BBX 7 9 1 1
BITMAP
86
44
28
30
30
28
44
84
02
ENDCHAR
STARTCHAR 0446
ENCODING 1094
SWIDTH 565 0
DWIDTH 11 0
BBX 8 11 2 -2
BITMAP
82
82
82
82
82
82
82
82
82
7D
01
ENDCHAR
STARTCHAR 0447
ENCODING 1095
SWIDTH 514 0
DWIDTH 10 0
BBX 7 9 1 0
BITMAP
80
82
82
82
82
46
3A
02
02
ENDCHAR
STARTCHAR 0448
ENCODING 1096
SWIDTH 771 0
DWIDTH 15 0
BBX 11 10 2 0
BITMAP
0400
8420
8420
8420
8420
8420
8420
8420
8420
FFE0
ENDCHAR
STARTCHAR 0449
ENCODING 1097
SWIDTH 771 0
DWIDTH 15 0
BBX 13 13 2 -3
BITMAP
0400
8420
8420
8420
8420
8420
8420
8420
8420
8420
7BD8
0008
0008
ENDCHAR
STARTCHAR 044A
ENCODING 1098
SWIDTH 565 0
DWIDTH 11 0
BBX 9 10 1 0
BITMAP
E000
2000
2000
2000
1F00
2080
2080
2080
2080
3F00
ENDCHAR
STARTCHAR 044B
ENCODING 1099
SWIDTH 668 0
DWIDTH 13 0
BBX 9 9 2 1
BITMAP
8080
8080
8080
F880
8480
8480
8480
8480
F800
ENDCHAR
STARTCHAR 044C
ENCODING 1100
SWIDTH 462 0
DWIDTH 9 0
BBX 7 9 2 1
BITMAP
80
80
80
F8
84
82
82
84
FC
ENDCHAR
STARTCHAR 044D
ENCODING 1101
SWIDTH 462 0
DWIDTH 9 0
BBX 7 10 1 0
BITMAP
7C
82
02
02
02
1E
02
02
82
7C
ENDCHAR
STARTCHAR 044E
ENCODING 1102
SWIDTH 720 0
DWIDTH 14 0
BBX 11 10 2 0
BITMAP
0780
8840
9020
9020
9020
F020
9020
9020
9040
0F80
ENDCHAR
STARTCHAR 044F
ENCODING 1103
SWIDTH 514 0
DWIDTH 10 0
BBX 7 10 1 0
BITMAP
3E
C2
82
82
82
7E
22
42
42
80
ENDCHAR
STARTCHAR 0450
ENCODING 1104
SWIDTH 514 0
DWIDTH 10 0
BBX 8 14 1 1
BITMAP
20
10
08
00
3C
42
81
81
81
FE
80
80
81
7E
ENDCHAR
STARTCHAR 0451
ENCODING 1105
SWIDTH 514 0
DWIDTH 10 0
BBX 8 13 1 0
BITMAP
20
00
00
3C
42
81
81
81
FE
80
80
81
7E
ENDCHAR
STARTCHAR 0452
ENCODING 1106
SWIDTH 514 0
DWIDTH 10 0
BBX 8 18 1 -4
BITMAP
40
F8
40
40
7E
41
41
41
41
41
41
41
41
41
01
01
01
01
ENDCHAR
STARTCHAR 0453
ENCODING 1107
SWIDTH 411 0
DWIDTH 8 0
BBX 6 14 2 0
BITMAP
08
10
20
20
00
FC
80
80
80
80
80
80
80
80
ENDCHAR
STARTCHAR 0454
ENCODING 1108
SWIDTH 462 0
DWIDTH 9 0
BBX 8 10 1 0
BITMAP
3C
42
80
80
80
F8
80
80
81
7E
ENDCHAR
STARTCHAR 0455
ENCODING 1109
SWIDTH 411 0
DWIDTH 8 0
BBX 7 10 1 0
BITMAP
7C
80
80
80
40
3C
02
02
82
7C
ENDCHAR
STARTCHAR 0456
ENCODING 1110
SWIDTH 205 0
DWIDTH 4 0
BBX 1 13 2 0
BITMAP
80
00
00
00
00
80
80
80
80
80
80
80
80
ENDCHAR
STARTCHAR 0457
ENCODING 1111
SWIDTH 205 0
DWIDTH 4 0
BBX 2 12 0 0
BITMAP
80
00
00
00
40
40
40
40
40
40
40
40
ENDCHAR
STARTCHAR 0458
ENCODING 1112
SWIDTH 205 0
DWIDTH 4 0
BBX 2 17 1 -4
BITMAP
40
00
00
00
00
80
80
80
80
80
80
80
80
80
80
80
80
ENDCHAR
STARTCHAR 0459
ENCODING 1113
SWIDTH 720 0
DWIDTH 14 0
BBX 13 10 1 0
BITMAP
3E00
4200
4200
4200
43E0
4210
4208
4208
8210
83F0
ENDCHAR
STARTCHAR 045A
ENCODING 1114
SWIDTH 771 0
DWIDTH 15 0
BBX 13 10 2 0
BITMAP
0200
8200
8200
8200
FFC0
8230
8210
8208
8210
03E0
ENDCHAR
STARTCHAR 045B
ENCODING 1115
SWIDTH 514 0
DWIDTH 10 0
BBX 8 14 1 0
BITMAP
40
F8
40
40
7E
41
41
41
41
41
41
41
41
40
ENDCHAR
STARTCHAR 045C
ENCODING 1116
SWIDTH 514 0
DWIDTH 10 0
BBX 7 14 2 1
BITMAP
18
10
00
00
02
8C
88
90
A0
D0
90
88
88
04
ENDCHAR
STARTCHAR 045D
ENCODING 1117
SWIDTH 565 0
DWIDTH 11 0
BBX 7 14 2 1
BITMAP
20
10
00
00
00
86
86
8A
92
92
A2
C2
82
80
ENDCHAR
STARTCHAR 045E
ENCODING 1118
SWIDTH 411 0
DWIDTH 8 0
BBX 8 18 0 -4
BITMAP
22
24
18
00
00
81
42
42
22
24
24
14
18
08
10
10
10
20
ENDCHAR
STARTCHAR 045F
ENCODING 1119
SWIDTH 565 0
DWIDTH 11 0
BBX 7 12 2 -2
BITMAP
82
82
82
82
82
82
82
82
82
7C
10
10
ENDCHAR
STARTCHAR 0472
ENCODING 1138
SWIDTH 668 0
DWIDTH 13 0
BBX 11 14 1 0
BITMAP
0F00
3080
4040
8040
8020
8020
8020
FFE0
8020
8020
8040
4040
4080
3F00
ENDCHAR
STARTCHAR 0473
ENCODING 1139
SWIDTH 514 0
DWIDTH 10 0
BBX 8 10 1 0
BITMAP
3C
42
81
81
81
FF
81
81
81
7E
ENDCHAR
STARTCHAR 0490
ENCODING 1168
SWIDTH 462 0
DWIDTH 9 0
BBX 7 15 2 1
BITMAP
02
FE
80
80
80
80
80
80
80
80
80
80
80
80
80
ENDCHAR
STARTCHAR 0491
ENCODING 1169
SWIDTH 411 0
DWIDTH 8 0
BBX 6 12 2 0
BITMAP
04
04
04
FC
80
80
80
80
80
80
80
80
ENDCHAR
STARTCHAR 0492
ENCODING 1170
SWIDTH 514 0
DWIDTH 10 0
BBX 8 14 1 0
BITMAP
7F
40
40
40
40
40
40
F8
40
40
40
40
40
40
ENDCHAR
STARTCHAR 0493
ENCODING 1171
SWIDTH 411 0
DWIDTH 8 0
BBX 6 10 2 0
BITMAP
FC
80
80
80
80
E0
80
80
80
80
ENDCHAR
STARTCHAR 0494
ENCODING 1172
SWIDTH 565 0
DWIDTH 11 0
BBX 9 17 2 -3
BITMAP
FE00
8000
8000
8000
8000
8000
8000
FE00
8100
8100
8080
8080
8080
8080
0100
0100
0300
ENDCHAR
STARTCHAR 0495
ENCODING 1173
SWIDTH 514 0
DWIDTH 10 0
BBX 7 14 2 -4
BITMAP
FC
80
80
80
80
FC
82
82
82
02
02
02
02
04
ENDCHAR
STARTCHAR 0496
ENCODING 1174
SWIDTH 874 0
DWIDTH 17 0
BBX 16 16 1 -3
BITMAP
8002
4104
2108
2108
1110
1110
0920
0FE0
1110
1110
2108
2108
4104
4002
0001
0001
ENDCHAR
STARTCHAR 0497
ENCODING 1175
SWIDTH 720 0
DWIDTH 14 0
BBX 13 13 1 -3
BITMAP
8010
4420
2440
2440
1480
1F80
2440
4440
4420
0020
0018
0008
0008
ENDCHAR
STARTCHAR 0498
ENCODING 1176
SWIDTH 565 0
DWIDTH 11 0
BBX 9 17 1 -3
BITMAP
1C00
6300
0100
0080
0080
0100
0200
1E00
0100
0080
0080
0080
8100
4200
3C00
0800
0800
ENDCHAR
STARTCHAR 0499
ENCODING 1177
SWIDTH 462 0
DWIDTH 9 0
BBX 7 13 1 -3
BITMAP
7C
82
02
02
04
1C
02
02
82
44
38
10
10
ENDCHAR
STARTCHAR 049A
ENCODING 1178
SWIDTH 617 0
DWIDTH 12 0
BBX 9 16 2 -3
BITMAP
8080
8300
8200
8400
8400
8800
9000
F000
8800
8800
8400
8200
8200
8100
0080
0080
ENDCHAR
STARTCHAR 049B
ENCODING 1179
SWIDTH 514 0
DWIDTH 10 0
BBX 7 12 2 -3
BITMAP
02
8C
88
90
A0
D0
90
88
88
04
02
02
ENDCHAR
STARTCHAR 049C
ENCODING 1180
SWIDTH 617 0
DWIDTH 12 0
BBX 9 14 2 0
BITMAP
8080
8100
8200
8400
A400
A800
A800
F000
A800
A400
A400
8200
8200
8100
ENDCHAR
STARTCHAR 049D
ENCODING 1181
SWIDTH 514 0
DWIDTH 10 0
BBX 8 10 2 0
BITMAP
03
84
88
D0
D0
F0
C8
88
84
06
ENDCHAR
STARTCHAR 04A0
ENCODING 1184
SWIDTH 720 0
DWIDTH 14 0
BBX 13 14 0 0
BITMAP
F808
0810
0820
0840
0840
0880
0880
0F80
0880
0840
0840
0820
0810
0800
ENDCHAR
STARTCHAR 04A1
ENCODING 1185
SWIDTH 565 0
DWIDTH 11 0
BBX 10 10 1 0
BITMAP
E0C0
2100
2200
2200
2400
3C00
2200
2200
2100
0080
ENDCHAR
STARTCHAR 04A2
ENCODING 1186
SWIDTH 720 0
DWIDTH 14 0
BBX 11 16 2 -3
BITMAP
8000
8080
8080
8080
8080
8080
8080
FF80
8080
8080
8080
8080
8080
8080
0060
0020
ENDCHAR
STARTCHAR 04A3
ENCODING 1187
SWIDTH 565 0
DWIDTH 11 0
BBX 9 12 2 -2
BITMAP
8200
8200
8200
8200
FE00
8200
8200
8200
0200
0180
0080
0080
ENDCHAR
STARTCHAR 04A4
ENCODING 1188
SWIDTH 925 0
DWIDTH 18 0
BBX 15 14 2 0
BITMAP
80FE
8080
8080
8080
8080
8080
8080
FF80
8080
8080
8080
8080
8080
8080
ENDCHAR
STARTCHAR 04A5
ENCODING 1189
SWIDTH 720 0
DWIDTH 14 0
BBX 12 10 2 0
BITMAP
03F0
8200
8200
8200
FE00
8200
8200
8200
8200
0200
ENDCHAR
STARTCHAR 04AA
ENCODING 1194
SWIDTH 565 0
DWIDTH 11 0
BBX 10 17 1 -3
BITMAP
0E00
3180
4000
8000
8000
8000
8000
8000
8000
8000
8000
4040
4080
3100
0E00
0400
0400
ENDCHAR
STARTCHAR 04AB
ENCODING 1195
SWIDTH 462 0
DWIDTH 9 0
BBX 8 12 1 -3
BITMAP
3C
42
80
80
80
80
80
80
81
62
1C
10
ENDCHAR
STARTCHAR 04AE
ENCODING 1198
SWIDTH 514 0
DWIDTH 10 0
BBX 10 14 0 0
BITMAP
8000
4040
4080
2100
2100
1200
0A00
0C00
0400
0400
0400
0400
0400
0400
ENDCHAR
STARTCHAR 04AF
ENCODING 1199
SWIDTH 411 0
DWIDTH 8 0
BBX 8 13 0 -3
BITMAP
81
42
42
22
24
24
14
18
08
08
08
08
08
ENDCHAR
STARTCHAR 04B0
ENCODING 1200
SWIDTH 514 0
DWIDTH 10 0
BBX 10 14 0 0
BITMAP
8000
4040
4080
2100
2100
1200
0A00
0C00
3F80
0400
0400
0400
0400
0400
ENDCHAR
STARTCHAR 04B1
ENCODING 1201
SWIDTH 411 0
DWIDTH 8 0
BBX 8 13 0 -3
BITMAP
81
42
42
22
24
24
14
18
08
1C
08
08
08
ENDCHAR
STARTCHAR 04B2
ENCODING 1202
SWIDTH 565 0
DWIDTH 11 0
BBX 10 15 1 -2
BITMAP
8180
4100
4200
2400
1400
1800
0800
1400
2400
4200
4100
8100
0080
0040
0040
ENDCHAR
STARTCHAR 04B3
ENCODING 1203
SWIDTH 462 0
DWIDTH 9 0
BBX 9 12 1 -2
BITMAP
8600
4400
2800
3000
3000
2800
4400
8400
0200
0180
0080
0080
ENDCHAR
STARTCHAR 04B6
ENCODING 1206
SWIDTH 617 0
DWIDTH 12 0
BBX 11 17 1 -3
BITMAP
8000
8080
8080
8080
8080
8080
8080
4080
3F80
0080
0080
0080
0080
0080
0060
0020
0020
ENDCHAR
STARTCHAR 04B7
ENCODING 1207
SWIDTH 514 0
DWIDTH 10 0
BBX 9 13 1 -3
BITMAP
8000
8200
8200
8200
8200
4600
3A00
0200
0200
0200
0180
0080
0080
ENDCHAR
STARTCHAR 04B8
ENCODING 1208
SWIDTH 617 0
DWIDTH 12 0
BBX 9 13 1 0
BITMAP
8000
8080
8080
8080
8080
8080
8880
4880
3F80
0880
0880
0080
0080
ENDCHAR
STARTCHAR 04B9
ENCODING 1209
SWIDTH 514 0
DWIDTH 10 0
BBX 7 9 1 0
BITMAP
80
82
82
92
92
56
3A
12
02
ENDCHAR
STARTCHAR 04BA
ENCODING 1210
SWIDTH 617 0
DWIDTH 12 0
BBX 9 14 2 0
BITMAP
8000
8000
8000
8000
8000
8000
FE00
8100
8080
8080
8080
8080
8080
8080
ENDCHAR
STARTCHAR 04BB
ENCODING 1211
SWIDTH 514 0
DWIDTH 10 0
BBX 7 12 2 1
BITMAP
80
80
80
FC
82
82
82
82
82
82
82
82
ENDCHAR
STARTCHAR 04C0
ENCODING 1216
SWIDTH 360 0
DWIDTH 7 0
BBX 5 14 1 0
BITMAP
F8
20
20
20
20
20
20
20
20
20
20
20
20
70
ENDCHAR
STARTCHAR 04C1
ENCODING 1217
SWIDTH 874 0
DWIDTH 17 0
BBX 15 18 1 0
BITMAP
0400
0440
0380
0000
8002
4104
2108
2108
1110
1110
0920
0FE0
1110
1110
2108
2108
4104
4002
ENDCHAR
STARTCHAR 04C2
ENCODING 1218
SWIDTH 720 0
DWIDTH 14 0
BBX 12 13 1 1
BITMAP
0900
0600
0000
8010
4420
2440
2440
1480
1F80
2440
4440
4420
8010
ENDCHAR
STARTCHAR 04CF
ENCODING 1231
SWIDTH 205 0
DWIDTH 4 0
BBX 1 12 2 1
BITMAP
80
80
80
80
80
80
80
80
80
80
80
80
ENDCHAR
STARTCHAR 04D0
ENCODING 1232
SWIDTH 565 0
DWIDTH 11 0
BBX 10 18 1 0
BITMAP
2000
2200
1C00
0000
0000
0C00
1400
1400
2200
2200
2200
4100
4100
7F00
8080
8080
8040
0040
ENDCHAR
STARTCHAR 04D1
ENCODING 1233
SWIDTH 514 0
DWIDTH 10 0
BBX 8 13 1 1
BITMAP
24
18
00
3C
42
02
02
02
7E
82
82
82
7D
ENDCHAR
STARTCHAR 04D2
ENCODING 1234
SWIDTH 565 0
DWIDTH 11 0
BBX 10 17 1 0
BITMAP
1200
0000
0000
0000
0C00
1400
1400
2200
2200
2200
4100
4100
7F00
8080
8080
8040
0040
ENDCHAR
STARTCHAR 04D3
ENCODING 1235
SWIDTH 514 0
DWIDTH 10 0
BBX 8 10 1 3
BITMAP
3C
42
02
02
02
7E
82
82
82
7D
ENDCHAR
STARTCHAR 04D4
ENCODING 1236
SWIDTH 822 0
DWIDTH 16 0
BBX 15 14 0 0
BITMAP
01FE
0300
0300
0500
0500
0900
0900
11FC
1100
2F00
4100
4100
8100
80FC
ENDCHAR
STARTCHAR 04D5
ENCODING 1237
SWIDTH 822 0
DWIDTH 16 0
BBX 15 10 1 0
BITMAP
7CF8
0304
0204
0204
0202
FFFC
8200
8200
8304
7CF8
ENDCHAR
STARTCHAR 04D6
ENCODING 1238
SWIDTH 514 0
DWIDTH 10 0
BBX 8 18 2 0
BITMAP
40
44
38
00
FF
80
80
80
80
80
80
FC
80
80
80
80
80
FE
ENDCHAR
STARTCHAR 04D7
ENCODING 1239
SWIDTH 514 0
DWIDTH 10 0
BBX 8 14 1 0
BITMAP
02
24
18
00
3C
42
81
81
81
FE
80
80
81
7E
ENDCHAR
STARTCHAR 04D8
ENCODING 1240
SWIDTH 668 0
DWIDTH 13 0
BBX 11 14 1 0
BITMAP
0E00
3180
4040
0040
0020
0020
0020
FFE0
8020
8020
8040
4040
4080
3F00
ENDCHAR
STARTCHAR 04D9
ENCODING 1241
SWIDTH 514 0
DWIDTH 10 0
BBX 8 10 1 0
BITMAP
3C
C2
81
01
01
FF
81
81
82
7E
ENDCHAR
STARTCHAR 04DC
ENCODING 1244
SWIDTH 874 0
DWIDTH 17 0
BBX 15 17 1 0
BITMAP
0040
0000
0000
8002
4104
2108
2108
1110
1110
0920
0FE0
1110
1110
2108
2108
4104
4002
ENDCHAR
STARTCHAR 04DD
ENCODING 1245
SWIDTH 720 0
DWIDTH 14 0
BBX 12 10 1 3
BITMAP
8010
4420
2440
2440
1480
1F80
2440
4440
4420
8010
ENDCHAR
STARTCHAR 04DE
ENCODING 1246
SWIDTH 565 0
DWIDTH 11 0
BBX 9 17 1 0
BITMAP
2200
0000
0000
1C00
6300
0100
0080
0080
0100
0200
1E00
0100
0080
0080
0080
8100
7E00
ENDCHAR
STARTCHAR 04DF
ENCODING 1247
SWIDTH 462 0
DWIDTH 9 0
BBX 7 13 1 0
BITMAP
04
00
00
7C
82
02
02
04
1C
02
02
82
7C
ENDCHAR
STARTCHAR 04E2
ENCODING 1250
SWIDTH 668 0
DWIDTH 13 0
BBX 9 17 2 0
BITMAP
3E00
0000
0000
8000
8080
8180
8280
8280
8480
8880
8880
9080
A080
A080
C080
8080
8000
ENDCHAR
STARTCHAR 04E3
ENCODING 1251
SWIDTH 565 0
DWIDTH 11 0
BBX 7 13 2 0
BITMAP
38
00
00
00
86
86
8A
92
92
A2
C2
82
80
ENDCHAR
STARTCHAR 04E4
ENCODING 1252
SWIDTH 668 0
DWIDTH 13 0
BBX 9 17 2 0
BITMAP
2200
0000
0000
8000
8080
8180
8280
8280
8480
8880
8880
9080
A080
A080
C080
8080
8000
ENDCHAR
STARTCHAR 04E5
ENCODING 1253
SWIDTH 565 0
DWIDTH 11 0
BBX 7 9 2 4
BITMAP
86
86
8A
92
92
A2
C2
82
80
ENDCHAR
STARTCHAR 04E6
ENCODING 1254
SWIDTH 668 0
DWIDTH 13 0
BBX 11 17 1 0
BITMAP
1100
0000
0000
0F00
3080
4040
8040
8020
8020
8020
8020
8020
8020
8040
4040
4080
3F00
ENDCHAR
STARTCHAR 04E7
ENCODING 1255
SWIDTH 514 0
DWIDTH 10 0
BBX 8 13 1 0
BITMAP
20
00
00
3C
42
81
81
81
81
81
81
81
7E
ENDCHAR
STARTCHAR 04E8
ENCODING 1256
SWIDTH 668 0
DWIDTH 13 0
BBX 11 14 1 0
BITMAP
0F00
3080
4040
8040
8020
8020
8020
FFE0
8020
8020
8040
4040
4080
3F00
ENDCHAR
STARTCHAR 04E9
ENCODING 1257
SWIDTH 514 0
DWIDTH 10 0
BBX 8 10 1 0
BITMAP
3C
42
81
81
81
FF
81
81
81
7E
ENDCHAR
STARTCHAR 04EE
ENCODING 1262
SWIDTH 565 0
DWIDTH 11 0
BBX 10 17 1 0
BITMAP
3E00
0000
0000
0040
8080
8080
4100
4100
2100
2200
1200
1400
0C00
0400
0800
0800
1000
ENDCHAR
STARTCHAR 04EF
ENCODING 1263
SWIDTH 411 0
DWIDTH 8 0
BBX 8 17 0 -4
BITMAP
1C
00
00
00
81
42
42
22
24
24
14
18
08
10
10
10
20
ENDCHAR
STARTCHAR 04F0
ENCODING 1264
SWIDTH 565 0
DWIDTH 11 0
BBX 10 17 1 0
BITMAP
1200
0000
0000
0040
8080
8080
4100
4100
2100
2200
1200
1400
0C00
0400
0800
0800
1000
ENDCHAR
STARTCHAR 04F1
ENCODING 1265
SWIDTH 411 0
DWIDTH 8 0
BBX 8 13 0 0
BITMAP
81
42
42
22
24
24
14
18
08
10
10
10
20
ENDCHAR
STARTCHAR 04F2
ENCODING 1266
SWIDTH 565 0
DWIDTH 11 0
BBX 10 18 1 0
BITMAP
0900
1100
1200
0000
0040
8080
8080
4100
4100
2100
2200
1200
1400
0C00
0400
0800
0800
1000
ENDCHAR
STARTCHAR 04F3
ENCODING 1267
SWIDTH 411 0
DWIDTH 8 0
BBX 8 18 0 -3
BITMAP
19
12
00
00
00
81
42
42
22
24
24
14
18
08
10
10
10
20
ENDCHAR
STARTCHAR 04F4
ENCODING 1268
SWIDTH 617 0
DWIDTH 12 0
BBX 9 16 1 0
BITMAP
2200
0000
0000
8000
8080
8080
8080
8080
8080
8080
4080
3F80
0080
0080
0080
0080
ENDCHAR
STARTCHAR 04F5
ENCODING 1269
SWIDTH 514 0
DWIDTH 10 0
BBX 7 12 1 0
BITMAP
04
00
00
80
82
82
82
82
46
3A
02
02
ENDCHAR
STARTCHAR 04F8
ENCODING 1272
SWIDTH 771 0
DWIDTH 15 0
BBX 12 17 2 0
BITMAP
0900
0000
0000
8010
8010
8010
8010
8010
8010
FE10
8110
8110
8110
8110
8110
8110
FE10
ENDCHAR
STARTCHAR 04F9
ENCODING 1273
SWIDTH 668 0
DWIDTH 13 0
BBX 9 9 2 4
BITMAP
8080
8080
8080
F880
8480
8480
8480
8480
F800
ENDCHAR
STARTCHAR 0E3F
ENCODING 3647
SWIDTH 565 0
DWIDTH 11 0
BBX 8 15 2 -1
BITMAP
10
FE
91
91
91
91
92
FE
91
91
91
91
91
FE
10
ENDCHAR
STARTCHAR 1E80
ENCODING 7808
SWIDTH 822 0
DWIDTH 16 0
BBX 15 17 1 1
BITMAP
0200
0100
0000
0100
8302
8302
8282
8484
8484
4484
4448
4848
4848
2828
3030
3030
1010
ENDCHAR
STARTCHAR 1E81
ENCODING 7809
SWIDTH 720 0
DWIDTH 14 0
BBX 12 15 1 0
BITMAP
0800
0800
0400
0200
0000
0000
8610
8A10
8A20
8920
4920
5140
50C0
30C0
2040
ENDCHAR
STARTCHAR 1E82
ENCODING 7810
SWIDTH 822 0
DWIDTH 16 0
BBX 15 18 1 0
BITMAP
0080
0100
0100
0000
0100
8302
8302
8282
8484
8484
4484
4448
4848
4848
2828
3030
3030
1010
ENDCHAR
STARTCHAR 1E83
ENCODING 7811
SWIDTH 720 0
DWIDTH 14 0
BBX 12 15 1 0
BITMAP
0100
0200
0200
0000
0000
0000
8610
8A10
8A20
8920
4920
5140
50C0
30C0
2040
ENDCHAR
STARTCHAR 1E84
ENCODING 7812
SWIDTH 822 0
DWIDTH 16 0
BBX 15 17 1 0
BITMAP
0440
0000
0000
0100
8302
8302
8282
8484
8484
4484
4448
4848
4848
2828
3030
3030
1010
ENDCHAR
STARTCHAR 1E85
ENCODING 7813
SWIDTH 720 0
DWIDTH 14 0
BBX 12 9 1 4
BITMAP
8610
8A10
8A20
8920
4920
5140
50C0
30C0
2040
ENDCHAR
STARTCHAR 1E9E
ENCODING 7838
SWIDTH 668 0
DWIDTH 13 0
BBX 10 14 2 0
BITMAP
FF80
8080
8100
8200
8200
8400
8700
8080
8040
8040
8040
8040
8040
9F80
ENDCHAR
STARTCHAR 1EA0
ENCODING 7840
SWIDTH 565 0
DWIDTH 11 0
BBX 10 13 1 -2
BITMAP
0C00
1400
1400
2200
2200
2200
4100
4100
7F00
8080
8080
8040
0040
ENDCHAR
STARTCHAR 1EA1
ENCODING 7841
SWIDTH 514 0
DWIDTH 10 0
BBX 8 13 1 -3
BITMAP
3C
42
02
02
02
7E
82
82
82
44
39
00
10
ENDCHAR
STARTCHAR 1EA2
ENCODING 7842
SWIDTH 565 0
DWIDTH 11 0
BBX 10 18 1 0
BITMAP
1C00
0400
0000
0000
0000
0C00
1400
1400
2200
2200
2200
4100
4100
7F00
8080
8080
8040
0040
ENDCHAR
STARTCHAR 1EA3
ENCODING 7843
SWIDTH 514 0
DWIDTH 10 0
BBX 8 14 1 0
BITMAP
18
08
00
00
3C
42
02
02
02
7E
82
82
82
7D
ENDCHAR
STARTCHAR 1EA4
ENCODING 7844
SWIDTH 565 0
DWIDTH 11 0
BBX 10 20 1 0
BITMAP
0080
0100
0800
1400
2200
0000
0000
0C00
1400
1400
2200
2200
2200
4100
4100
7F00
8080
8080
8040
0040
ENDCHAR
STARTCHAR 1EA5
ENCODING 7845
SWIDTH 514 0
DWIDTH 10 0
BBX 8 16 1 1
BITMAP
01
02
38
44
00
00
3C
42
02
02
02
7E
82
82
82
7D
ENDCHAR
STARTCHAR 1EA6
ENCODING 7846
SWIDTH 565 0
DWIDTH 11 0
BBX 10 20 1 0
BITMAP
8000
4000
2800
1400
2200
0000
0000
0C00
1400
1400
2200
2200
2200
4100
4100
7F00
8080
8080
8040
0040
ENDCHAR
STARTCHAR 1EA7
ENCODING 7847
SWIDTH 514 0
DWIDTH 10 0
BBX 9 17 0 0
BITMAP
8000
4000
0000
1C00
2200
0000
0000
1E00
2100
0100
0100
0100
3F00
4100
4100
4100
3E80
ENDCHAR
STARTCHAR 1EA8
ENCODING 7848
SWIDTH 565 0
DWIDTH 11 0
BBX 10 20 1 0
BITMAP
0180
0100
0800
1400
2200
0000
0000
0C00
1400
1400
2200
2200
2200
4100
4100
7F00
8080
8080
8040
0040
ENDCHAR
STARTCHAR 1EA9
ENCODING 7849
SWIDTH 514 0
DWIDTH 10 0
BBX 8 16 1 0
BITMAP
02
02
38
44
00
00
3C
42
02
02
02
7E
82
82
82
7D
ENDCHAR
STARTCHAR 1EAA
ENCODING 7850
SWIDTH 565 0
DWIDTH 11 0
BBX 10 20 1 0
BITMAP
3800
0600
0800
1400
2200
0000
0000
0C00
1400
1400
2200
2200
2200
4100
4100
7F00
8080
8080
8040
0040
ENDCHAR
STARTCHAR 1EAB
ENCODING 7851
SWIDTH 514 0
DWIDTH 10 0
BBX 8 16 1 0
BITMAP
3C
00
38
44
00
00
3C
42
02
02
02
7E
82
82
82
7D
ENDCHAR
STARTCHAR 1EAC
ENCODING 7852
SWIDTH 565 0
DWIDTH 11 0
BBX 10 18 1 -3
BITMAP
0800
1400
2200
0000
0000
0C00
1400
1400
2200
2200
2200
4100
4100
7F00
8080
8080
8040
0040
ENDCHAR
STARTCHAR 1EAD
ENCODING 7853
SWIDTH 514 0
DWIDTH 10 0
BBX 8 17 1 -3
BITMAP
38
44
00
00
3C
42
02
02
02
7E
82
82
82
44
39
00
10
ENDCHAR
STARTCHAR 1EAE
ENCODING 7854
SWIDTH 565 0
DWIDTH 11 0
BBX 10 20 1 0
BITMAP
0400
0400
0000
0000
1600
0800
0000
0C00
1400
1400
2200
2200
2200
4100
4100
7F00
8080
8080
8040
0040
ENDCHAR
STARTCHAR 1EAF
ENCODING 7855
SWIDTH 514 0
DWIDTH 10 0
BBX 8 17 1 0
BITMAP
04
08
00
40
44
38
00
3C
42
02
02
02
7E
82
82
82
7D
ENDCHAR
STARTCHAR 1EB0
ENCODING 7856
SWIDTH 565 0
DWIDTH 11 0
BBX 10 20 1 0
BITMAP
1000
1000
0800
0000
1600
0800
0000
0C00
1400
1400
2200
2200
2200
4100
4100
7F00
8080
8080
8040
0040
ENDCHAR
STARTCHAR 1EB1
ENCODING 7857
SWIDTH 514 0
DWIDTH 10 0
BBX 8 16 1 1
BITMAP
20
10
40
44
38
00
3C
42
02
02
02
7E
82
82
82
7D
ENDCHAR
STARTCHAR 1EB2
ENCODING 7858
SWIDTH 565 0
DWIDTH 11 0
BBX 10 20 1 0
BITMAP
0C00
0400
0000
0000
1600
0800
0000
0C00
1400
1400
2200
2200
2200
4100
4100
7F00
8080
8080
8040
0040
ENDCHAR
STARTCHAR 1EB3
ENCODING 7859
SWIDTH 514 0
DWIDTH 10 0
BBX 8 16 1 0
BITMAP
18
08
40
44
38
00
3C
42
02
02
02
7E
82
82
82
7D
ENDCHAR
STARTCHAR 1EB4
ENCODING 7860
SWIDTH 565 0
DWIDTH 11 0
BBX 10 20 1 0
BITMAP
3000
0E00
0000
0000
1600
0800
0000
0C00
1400
1400
2200
2200
2200
4100
4100
7F00
8080
8080
8040
0040
ENDCHAR
STARTCHAR 1EB5
ENCODING 7861
SWIDTH 514 0
DWIDTH 10 0
BBX 8 16 1 0
BITMAP
32
0C
40
44
38
00
3C
42
02
02
02
7E
82
82
82
7D
ENDCHAR
STARTCHAR 1EB6
ENCODING 7862
SWIDTH 565 0
DWIDTH 11 0
BBX 10 18 1 -3
BITMAP
2000
2200
1C00
0000
0000
0C00
1400
1400
2200
2200
2200
4100
4100
7F00
8080
8080
8040
0040
ENDCHAR
STARTCHAR 1EB7
ENCODING 7863
SWIDTH 514 0
DWIDTH 10 0
BBX 8 16 1 -2
BITMAP
2C
10
00
3C
42
02
02
02
7E
82
82
82
44
39
00
10
ENDCHAR
STARTCHAR 1EB8
ENCODING 7864
SWIDTH 514 0
DWIDTH 10 0
BBX 8 17 2 -3
BITMAP
FF
80
80
80
80
80
80
FC
80
80
80
80
80
80
7E
00
10
ENDCHAR
STARTCHAR 1EB9
ENCODING 7865
SWIDTH 514 0
DWIDTH 10 0
BBX 8 13 1 -3
BITMAP
3C
42
81
81
81
FE
80
80
81
62
1C
00
08
ENDCHAR
STARTCHAR 1EBA
ENCODING 7866
SWIDTH 514 0
DWIDTH 10 0
BBX 8 18 2 0
BITMAP
38
08
00
00
FF
80
80
80
80
80
80
FC
80
80
80
80
80
FE
ENDCHAR
STARTCHAR 1EBB
ENCODING 7867
SWIDTH 514 0
DWIDTH 10 0
BBX 8 14 1 0
BITMAP
0C
08
00
00
3C
42
81
81
81
FE
80
80
81
7E
ENDCHAR
STARTCHAR 1EBC
ENCODING 7868
SWIDTH 514 0
DWIDTH 10 0
BBX 8 17 2 0
BITMAP
72
0C
00
FF
80
80
80
80
80
80
FC
80
80
80
80
80
FE
ENDCHAR
STARTCHAR 1EBD
ENCODING 7869
SWIDTH 514 0
DWIDTH 10 0
BBX 8 14 1 0
BITMAP
30
0E
00
00
3C
42
81
81
81
FE
80
80
81
7E
ENDCHAR
STARTCHAR 1EBE
ENCODING 7870
SWIDTH 514 0
DWIDTH 10 0
BBX 8 20 2 0
BITMAP
01
02
10
28
44
00
FF
80
80
80
80
80
80
FC
80
80
80
80
80
FE
ENDCHAR
STARTCHAR 1EBF
ENCODING 7871
SWIDTH 514 0
DWIDTH 10 0
BBX 9 17 1 0
BITMAP
0080
0100
0000
1800
2400
0000
0000
3C00
4200
8100
8100
8100
FE00
8000
8000
8100
7E00
ENDCHAR
STARTCHAR 1EC0
ENCODING 7872
SWIDTH 514 0
DWIDTH 10 0
BBX 9 20 1 0
BITMAP
8000
4000
2800
1400
2200
0000
7F80
4000
4000
4000
4000
4000
4000
7E00
4000
4000
4000
4000
4000
7F00
ENDCHAR
STARTCHAR 1EC1
ENCODING 7873
SWIDTH 514 0
DWIDTH 10 0
BBX 8 16 1 1
BITMAP
80
40
18
24
00
00
3C
42
81
81
81
FE
80
80
81
7E
ENDCHAR
STARTCHAR 1EC2
ENCODING 7874
SWIDTH 514 0
DWIDTH 10 0
BBX 8 20 2 0
BITMAP
03
02
10
28
44
00
FF
80
80
80
80
80
80
FC
80
80
80
80
80
FE
ENDCHAR
STARTCHAR 1EC3
ENCODING 7875
SWIDTH 514 0
DWIDTH 10 0
BBX 8 16 1 0
BITMAP
03
00
18
24
00
00
3C
42
81
81
81
FE
80
80
81
7E
ENDCHAR
STARTCHAR 1EC4
ENCODING 7876
SWIDTH 514 0
DWIDTH 10 0
BBX 8 20 2 0
BITMAP
70
0C
10
28
44
00
FF
80
80
80
80
80
80
FC
80
80
80
80
80
FE
ENDCHAR
STARTCHAR 1EC5
ENCODING 7877
SWIDTH 514 0
DWIDTH 10 0
BBX 8 16 1 0
BITMAP
3A
04
18
24
00
00
3C
42
81
81
81
FE
80
80
81
7E
ENDCHAR
STARTCHAR 1EC6
ENCODING 7878
SWIDTH 514 0
DWIDTH 10 0
BBX 8 21 2 -3
BITMAP
10
28
44
00
FF
80
80
80
80
80
80
FC
80
80
80
80
80
80
7E
00
10
ENDCHAR
STARTCHAR 1EC7
ENCODING 7879
SWIDTH 514 0
DWIDTH 10 0
BBX 8 17 1 -3
BITMAP
18
24
00
00
3C
42
81
81
81
FE
80
80
81
62
1C
00
08
ENDCHAR
STARTCHAR 1EC8
ENCODING 7880
SWIDTH 360 0
DWIDTH 7 0
BBX 5 18 1 0
BITMAP
70
10
00
00
F8
20
20
20
20
20
20
20
20
20
20
20
20
70
ENDCHAR
STARTCHAR 1EC9
ENCODING 7881
SWIDTH 205 0
DWIDTH 4 0
BBX 3 13 1 0
BITMAP
60
40
00
00
00
80
80
80
80
80
80
80
80
ENDCHAR
STARTCHAR 1ECA
ENCODING 7882
SWIDTH 360 0
DWIDTH 7 0
BBX 5 17 1 -3
BITMAP
F8
20
20
20
20
20
20
20
20
20
20
20
20
20
50
00
20
ENDCHAR
STARTCHAR 1ECB
ENCODING 7883
SWIDTH 205 0
DWIDTH 4 0
BBX 1 17 2 -3
BITMAP
80
00
00
00
00
80
80
80
80
80
80
80
80
00
00
00
80
ENDCHAR
STARTCHAR 1ECC
ENCODING 7884
SWIDTH 668 0
DWIDTH 13 0
BBX 11 17 1 -3
BITMAP
0F00
3080
4040
8040
8020
8020
8020
8020
8020
8020
8040
4040
4080
3100
0E00
0000
0400
ENDCHAR
STARTCHAR 1ECD
ENCODING 7885
SWIDTH 514 0
DWIDTH 10 0
BBX 8 13 1 -3
BITMAP
3C
42
81
81
81
81
81
81
81
62
1C
00
08
ENDCHAR
STARTCHAR 1ECE
ENCODING 7886
SWIDTH 668 0
DWIDTH 13 0
BBX 11 18 1 0
BITMAP
0E00
0200
0000
0000
0F00
3080
4040
8040
8020
8020
8020
8020
8020
8020
8040
4040
4080
3F00
ENDCHAR
STARTCHAR 1ECF
ENCODING 7887
SWIDTH 514 0
DWIDTH 10 0
BBX 8 14 1 0
BITMAP
0C
08
00
00
3C
42
81
81
81
81
81
81
81
7E
ENDCHAR
STARTCHAR 1ED0
ENCODING 7888
SWIDTH 668 0
DWIDTH 13 0
BBX 11 20 1 0
BITMAP
0040
0080
0400
0A00
1100
0000
0F00
3080
4040
8040
8020
8020
8020
8020
8020
8020
8040
4040
4080
3F00
ENDCHAR
STARTCHAR 1ED1
ENCODING 7889
SWIDTH 514 0
DWIDTH 10 0
BBX 9 17 1 0
BITMAP
0080
0100
0000
1800
2400
0000
0000
3C00
4200
8100
8100
8100
8100
8100
8100
8100
7E00
ENDCHAR
STARTCHAR 1ED2
ENCODING 7890
SWIDTH 668 0
DWIDTH 13 0
BBX 11 20 1 0
BITMAP
4000
2000
0400
0A00
1100
0000
0F00
3080
4040
8040
8020
8020
8020
8020
8020
8020
8040
4040
4080
3F00
ENDCHAR
STARTCHAR 1ED3
ENCODING 7891
SWIDTH 514 0
DWIDTH 10 0
BBX 8 16 1 1
BITMAP
80
40
18
24
00
00
3C
42
81
81
81
81
81
81
81
7E
ENDCHAR
STARTCHAR 1ED4
ENCODING 7892
SWIDTH 668 0
DWIDTH 13 0
BBX 11 20 1 0
BITMAP
0180
0080
0400
0A00
1100
0000
0F00
3080
4040
8040
8020
8020
8020
8020
8020
8020
8040
4040
4080
3F00
ENDCHAR
STARTCHAR 1ED5
ENCODING 7893
SWIDTH 514 0
DWIDTH 10 0
BBX 8 16 1 0
BITMAP
03
00
18
24
00
00
3C
42
81
81
81
81
81
81
81
7E
ENDCHAR
STARTCHAR 1ED6
ENCODING 7894
SWIDTH 668 0
DWIDTH 13 0
BBX 11 20 1 0
BITMAP
1C00
0300
0400
0A00
1100
0000
0F00
3080
4040
8040
8020
8020
8020
8020
8020
8020
8040
4040
4080
3F00
ENDCHAR
STARTCHAR 1ED7
ENCODING 7895
SWIDTH 514 0
DWIDTH 10 0
BBX 8 16 1 0
BITMAP
3A
04
18
24
00
00
3C
42
81
81
81
81
81
81
81
7E
ENDCHAR
STARTCHAR 1ED8
ENCODING 7896
SWIDTH 668 0
DWIDTH 13 0
BBX 11 21 1 -3
BITMAP
0400
0A00
1100
0000
0F00
3080
4040
8040
8020
8020
8020
8020
8020
8020
8040
4040
4080
3100
0E00
0000
0400
ENDCHAR
STARTCHAR 1ED9
ENCODING 7897
SWIDTH 514 0
DWIDTH 10 0
BBX 8 17 1 -3
BITMAP
18
24
00
00
3C
42
81
81
81
81
81
81
81
62
1C
00
08
ENDCHAR
STARTCHAR 1EDA
ENCODING 7898
SWIDTH 668 0
DWIDTH 13 0
BBX 11 18 1 0
BITMAP
0200
0400
0420
0020
0FE0
3080
4040
8040
8020
8020
8020
8020
8020
8020
8040
4040
4080
3F00
ENDCHAR
STARTCHAR 1EDB
ENCODING 7899
SWIDTH 514 0
DWIDTH 10 0
BBX 8 14 1 1
BITMAP
04
08
00
01
3F
42
81
81
81
81
81
81
81
7E
ENDCHAR
STARTCHAR 1EDC
ENCODING 7900
SWIDTH 668 0
DWIDTH 13 0
BBX 11 18 1 0
BITMAP
0800
0800
0420
0020
0FE0
3080
4040
8040
8020
8020
8020
8020
8020
8020
8040
4040
4080
3F00
ENDCHAR
STARTCHAR 1EDD
ENCODING 7901
SWIDTH 514 0
DWIDTH 10 0
BBX 8 14 1 1
BITMAP
10
10
00
01
3F
42
81
81
81
81
81
81
81
7E
ENDCHAR
STARTCHAR 1EDE
ENCODING 7902
SWIDTH 668 0
DWIDTH 13 0
BBX 11 18 1 0
BITMAP
0E00
0200
0020
0020
0FE0
3080
4040
8040
8020
8020
8020
8020
8020
8020
8040
4040
4080
3F00
ENDCHAR
STARTCHAR 1EDF
ENCODING 7903
SWIDTH 514 0
DWIDTH 10 0
BBX 8 14 1 0
BITMAP
0C
08
00
01
3F
42
81
81
81
81
81
81
81
7E
ENDCHAR
STARTCHAR 1EE0
ENCODING 7904
SWIDTH 668 0
DWIDTH 13 0
BBX 11 17 1 0
BITMAP
0C80
0320
0020
0FE0
3080
4040
8040
8020
8020
8020
8020
8020
8020
8040
4040
4080
3F00
ENDCHAR
STARTCHAR 1EE1
ENCODING 7905
SWIDTH 514 0
DWIDTH 10 0
BBX 8 14 1 0
BITMAP
30
0E
00
01
3F
42
81
81
81
81
81
81
81
7E
ENDCHAR
STARTCHAR 1EE2
ENCODING 7906
SWIDTH 668 0
DWIDTH 13 0
BBX 11 19 1 -3
BITMAP
0020
0020
0FE0
3080
4040
8040
8020
8020
8020
8020
8020
8020
8040
4040
4080
3100
0E00
0000
0400
ENDCHAR
STARTCHAR 1EE3
ENCODING 7907
SWIDTH 514 0
DWIDTH 10 0
BBX 8 14 1 -2
BITMAP
01
3F
42
81
81
81
81
81
81
81
62
1C
00
08
ENDCHAR
STARTCHAR 1EE4
ENCODING 7908
SWIDTH 617 0
DWIDTH 12 0
BBX 9 17 2 -3
BITMAP
0080
8080
8080
8080
8080
8080
8080
8080
8080
8080
8080
8100
8100
4200
3C00
0000
0800
ENDCHAR
STARTCHAR 1EE5
ENCODING 7909
SWIDTH 514 0
DWIDTH 10 0
BBX 7 13 2 -3
BITMAP
02
82
82
82
82
82
82
82
82
46
38
00
10
ENDCHAR
STARTCHAR 1EE6
ENCODING 7910
SWIDTH 617 0
DWIDTH 12 0
BBX 9 18 2 0
BITMAP
1C00
0800
0800
0000
0080
8080
8080
8080
8080
8080
8080
8080
8080
8080
8080
8100
8100
7E00
ENDCHAR
STARTCHAR 1EE7
ENCODING 7911
SWIDTH 514 0
DWIDTH 10 0
BBX 7 14 2 0
BITMAP
18
10
10
00
02
82
82
82
82
82
82
82
82
7E
ENDCHAR
STARTCHAR 1EE8
ENCODING 7912
SWIDTH 617 0
DWIDTH 12 0
BBX 10 18 2 0
BITMAP
0400
0800
0000
0040
00C0
8080
8080
8080
8080
8080
8080
8080
8080
8080
8080
8100
8100
7E00
ENDCHAR
STARTCHAR 1EE9
ENCODING 7913
SWIDTH 514 0
DWIDTH 10 0
BBX 8 14 2 1
BITMAP
08
10
00
01
03
82
82
82
82
82
82
82
82
7E
ENDCHAR
STARTCHAR 1EEA
ENCODING 7914
SWIDTH 617 0
DWIDTH 12 0
BBX 10 17 2 1
BITMAP
1000
0800
0040
00C0
8080
8080
8080
8080
8080
8080
8080
8080
8080
8080
8100
8100
7E00
ENDCHAR
STARTCHAR 1EEB
ENCODING 7915
SWIDTH 514 0
DWIDTH 10 0
BBX 8 14 2 1
BITMAP
20
20
00
01
03
82
82
82
82
82
82
82
82
7E
ENDCHAR
STARTCHAR 1EEC
ENCODING 7916
SWIDTH 617 0
DWIDTH 12 0
BBX 10 18 2 0
BITMAP
1C00
0800
0800
0040
00C0
8080
8080
8080
8080
8080
8080
8080
8080
8080
8080
8100
8100
7E00
ENDCHAR
STARTCHAR 1EED
ENCODING 7917
SWIDTH 514 0
DWIDTH 10 0
BBX 8 14 2 0
BITMAP
18
10
10
01
03
82
82
82
82
82
82
82
82
7E
ENDCHAR
STARTCHAR 1EEE
ENCODING 7918
SWIDTH 617 0
DWIDTH 12 0
BBX 10 17 2 0
BITMAP
3800
0400
0040
00C0
8080
8080
8080
8080
8080
8080
8080
8080
8080
8080
8100
8100
7E00
ENDCHAR
STARTCHAR 1EEF
ENCODING 7919
SWIDTH 514 0
DWIDTH 10 0
BBX 8 14 2 0
BITMAP
60
1C
00
01
03
82
82
82
82
82
82
82
82
7E
ENDCHAR
STARTCHAR 1EF0
ENCODING 7920
SWIDTH 617 0
DWIDTH 12 0
BBX 10 18 2 -2
BITMAP
0040
00C0
8080
8080
8080
8080
8080
8080
8080
8080
8080
8080
8100
8100
4200
3C00
0000
0800
ENDCHAR
STARTCHAR 1EF1
ENCODING 7921
SWIDTH 514 0
DWIDTH 10 0
BBX 8 12 2 -2
BITMAP
01
03
82
82
82
82
82
82
82
82
46
38
ENDCHAR
STARTCHAR 1EF2
ENCODING 7922
SWIDTH 514 0
DWIDTH 10 0
BBX 10 17 0 1
BITMAP
0800
0400
0000
8000
4040
4080
2100
2100
1200
0A00
0C00
0400
0400
0400
0400
0400
0400
ENDCHAR
STARTCHAR 1EF3
ENCODING 7923
SWIDTH 411 0
DWIDTH 8 0
BBX 8 18 0 -3
BITMAP
10
10
08
00
00
81
42
42
22
24
24
14
18
08
10
10
10
20
ENDCHAR
STARTCHAR 1EF4
ENCODING 7924
SWIDTH 514 0
DWIDTH 10 0
BBX 10 17 0 -3
BITMAP
8000
4040
4080
2100
2100
1200
0A00
0C00
0400
0400
0400
0400
0400
0400
0000
0000
0400
ENDCHAR
STARTCHAR 1EF5
ENCODING 7925
SWIDTH 411 0
DWIDTH 8 0
BBX 8 13 0 -3
BITMAP
81
42
42
22
24
24
14
18
08
10
10
10
20
ENDCHAR
STARTCHAR 1EF6
ENCODING 7926
SWIDTH 514 0
DWIDTH 10 0
BBX 10 18 0 0
BITMAP
0E00
0400
0400
0000
8000
4040
4080
2100
2100
1200
0A00
0C00
0400
0400
0400
0400
0400
0400
ENDCHAR
STARTCHAR 1EF7
ENCODING 7927
SWIDTH 411 0
DWIDTH 8 0
BBX 8 18 0 -4
BITMAP
0C
08
08
00
00
81
42
42
22
24
24
14
18
08
10
10
10
20
ENDCHAR
STARTCHAR 1EF8
ENCODING 7928
SWIDTH 514 0
DWIDTH 10 0
BBX 10 17 0 0
BITMAP
1C00
0200
0000
8000
4040
4080
2100
2100
1200
0A00
0C00
0400
0400
0400
0400
0400
0400
ENDCHAR
STARTCHAR 1EF9
ENCODING 7929
SWIDTH 411 0
DWIDTH 8 0
BBX 8 18 0 -4
BITMAP
30
0E
00
00
00
81
42
42
22
24
24
14
18
08
10
10
10
20
ENDCHAR
STARTCHAR 2013
ENCODING 8211
SWIDTH 565 0
DWIDTH 11 0
BBX 8 1 2 5
BITMAP
FF
ENDCHAR
STARTCHAR 2014
ENCODING 8212
SWIDTH 771 0
DWIDTH 15 0
BBX 11 1 2 5
BITMAP
FFE0
ENDCHAR
STARTCHAR 2018
ENCODING 8216
SWIDTH 205 0
DWIDTH 4 0
BBX 1 2 2 11
BITMAP
80
80
ENDCHAR
STARTCHAR 2019
ENCODING 8217
SWIDTH 205 0
DWIDTH 4 0
BBX 1 3 2 11
BITMAP
80
80
80
ENDCHAR
STARTCHAR 201A
ENCODING 8218
SWIDTH 205 0
DWIDTH 4 0
BBX 2 3 1 -3
BITMAP
40
40
80
ENDCHAR
STARTCHAR 201C
ENCODING 8220
SWIDTH 360 0
DWIDTH 7 0
BBX 4 2 2 11
BITMAP
B0
90
ENDCHAR
STARTCHAR 201D
ENCODING 8221
SWIDTH 360 0
DWIDTH 7 0
BBX 4 3 2 11
BITMAP
90
90
90
ENDCHAR
STARTCHAR 201E
ENCODING 8222
SWIDTH 360 0
DWIDTH 7 0
BBX 5 4 1 -3
BITMAP
48
48
90
10
ENDCHAR
STARTCHAR 2020
ENCODING 8224
SWIDTH 514 0
DWIDTH 10 0
BBX 9 18 1 -4
BITMAP
0800
0800
0800
0800
FF80
0800
0800
0800
0800
0800
0800
0800
0800
0800
0800
0800
0800
0800
ENDCHAR
STARTCHAR 2021
ENCODING 8225
SWIDTH 514 0
DWIDTH 10 0
BBX 9 18 1 -4
BITMAP
0800
0800
0800
0800
FF80
0800
0800
0800
0800
0800
0800
0800
0800
7F00
0800
0800
0800
0800
ENDCHAR
STARTCHAR 2022
ENCODING 8226
SWIDTH 308 0
DWIDTH 6 0
BBX 3 4 2 4
BITMAP
40
E0
E0
C0
ENDCHAR
STARTCHAR 2026
ENCODING 8230
SWIDTH 720 0
DWIDTH 14 0
BBX 10 1 2 0
BITMAP
8C40
ENDCHAR
STARTCHAR 2030
ENCODING 8240
SWIDTH 1234 0
DWIDTH 24 0
BBX 22 14 1 0
BITMAP
300000
C81000
842000
844000
844000
848000
490000
313C78
024488
044284
044284
084284
104488
003C78
ENDCHAR
STARTCHAR 2032
ENCODING 8242
SWIDTH 205 0
DWIDTH 4 0
BBX 2 7 1 7
BITMAP
40
40
40
80
80
80
80
ENDCHAR
STARTCHAR 2033
ENCODING 8243
SWIDTH 360 0
DWIDTH 7 0
BBX 5 7 1 7
BITMAP
48
48
50
90
90
90
90
ENDCHAR
STARTCHAR 2039
ENCODING 8249
SWIDTH 257 0
DWIDTH 5 0
BBX 4 7 1 2
BITMAP
20
40
80
80
80
40
30
ENDCHAR
STARTCHAR 203A
ENCODING 8250
SWIDTH 257 0
DWIDTH 5 0
BBX 4 7 1 2
BITMAP
80
40
20
10
20
40
80
ENDCHAR
STARTCHAR 2044
ENCODING 8260
SWIDTH 102 0
DWIDTH 2 0
BBX 9 13 -3 1
BITMAP
0180
0100
0200
0400
0400
0800
1000
1000
2000
2000
4000
8000
8000
ENDCHAR
STARTCHAR 2070
ENCODING 8304
SWIDTH 360 0
DWIDTH 7 0
BBX 5 8 1 6
BITMAP
30
C8
88
88
88
88
88
70
ENDCHAR
STARTCHAR 2074
ENCODING 8308
SWIDTH 308 0
DWIDTH 6 0
BBX 5 7 0 6
BITMAP
08
18
28
48
48
88
78
ENDCHAR
STARTCHAR 2075
ENCODING 8309
SWIDTH 308 0
DWIDTH 6 0
BBX 5 8 1 6
BITMAP
F0
80
80
F0
08
08
10
60
ENDCHAR
STARTCHAR 2076
ENCODING 8310
SWIDTH 360 0
DWIDTH 7 0
BBX 5 7 1 7
BITMAP
60
80
B0
C8
88
88
70
ENDCHAR
STARTCHAR 2077
ENCODING 8311
SWIDTH 308 0
DWIDTH 6 0
BBX 5 8 1 6
BITMAP
F8
90
10
10
20
20
40
40
ENDCHAR
STARTCHAR 2078
ENCODING 8312
SWIDTH 360 0
DWIDTH 7 0
BBX 6 8 1 6
BITMAP
30
C8
88
48
B8
84
88
70
ENDCHAR
STARTCHAR 2079
ENCODING 8313
SWIDTH 360 0
DWIDTH 7 0
BBX 5 7 1 6
BITMAP
70
88
88
88
78
10
20
ENDCHAR
STARTCHAR 2080
ENCODING 8320
SWIDTH 360 0
DWIDTH 7 0
BBX 5 7 1 0
BITMAP
F8
88
88
88
88
88
70
ENDCHAR
STARTCHAR 2081
ENCODING 8321
SWIDTH 360 0
DWIDTH 7 0
BBX 4 7 1 0
BITMAP
60
A0
20
20
20
20
70
ENDCHAR
STARTCHAR 2082
ENCODING 8322
SWIDTH 308 0
DWIDTH 6 0
BBX 5 7 1 0
BITMAP
F0
08
10
10
20
40
F0
ENDCHAR
STARTCHAR 2083
ENCODING 8323
SWIDTH 308 0
DWIDTH 6 0
BBX 5 7 1 0
BITMAP
F0
10
10
30
08
08
F0
ENDCHAR
STARTCHAR 2084
ENCODING 8324
SWIDTH 308 0
DWIDTH 6 0
BBX 5 6 0 0
BITMAP
18
28
28
48
88
78
ENDCHAR
STARTCHAR 2085
ENCODING 8325
SWIDTH 308 0
DWIDTH 6 0
BBX 5 7 1 0
BITMAP
E0
80
80
F0
08
08
F0
ENDCHAR
STARTCHAR 2086
ENCODING 8326
SWIDTH 360 0
DWIDTH 7 0
BBX 5 7 1 0
BITMAP
20
40
80
F8
88
88
F0
ENDCHAR
STARTCHAR 2087
ENCODING 8327
SWIDTH 308 0
DWIDTH 6 0
BBX 5 6 1 0
BITMAP
F8
10
10
20
20
40
ENDCHAR
STARTCHAR 2088
ENCODING 8328
SWIDTH 360 0
DWIDTH 7 0
BBX 5 7 1 0
BITMAP
F8
88
88
70
88
88
F8
ENDCHAR
STARTCHAR 2089
ENCODING 8329
SWIDTH 360 0
DWIDTH 7 0
BBX 5 7 1 0
BITMAP
F0
88
88
88
70
10
20
ENDCHAR
STARTCHAR 20A1
ENCODING 8353
SWIDTH 565 0
DWIDTH 11 0
BBX 10 17 1 -2
BITMAP
0800
0E00
3B00
5280
9200
9200
9200
9200
9400
9400
9400
A400
6440
6480
1500
2E00
2000
ENDCHAR
STARTCHAR 20A4
ENCODING 8356
SWIDTH 565 0
DWIDTH 11 0
BBX 9 14 1 0
BITMAP
1E00
2100
4080
4000
4000
4000
7C00
2000
2000
7C00
2000
2000
4000
FF00
ENDCHAR
STARTCHAR 20A6
ENCODING 8358
SWIDTH 617 0
DWIDTH 12 0
BBX 13 14 0 0
BITMAP
2020
2020
3020
2820
2820
FFF8
2420
2220
2220
7DF0
20A0
20A0
2060
2020
ENDCHAR
STARTCHAR 20A8
ENCODING 8360
SWIDTH 668 0
DWIDTH 13 0
BBX 11 14 2 0
BITMAP
E000
9800
8800
8400
8400
89E0
8A00
F100
9100
90C0
8820
8420
8420
83E0
ENDCHAR
STARTCHAR 20A9
ENCODING 8361
SWIDTH 874 0
DWIDTH 17 0
BBX 16 14 1 0
BITMAP
0101
8102
8282
8282
8282
4484
7F7E
4444
4448
3BBE
2828
2828
1030
1010
ENDCHAR
STARTCHAR 20AA
ENCODING 8362
SWIDTH 720 0
DWIDTH 14 0
BBX 11 14 2 0
BITMAP
F820
8620
8220
8220
9220
9220
9220
9220
9220
9220
9220
9020
9020
97C0
ENDCHAR
STARTCHAR 20AB
ENCODING 8363
SWIDTH 514 0
DWIDTH 10 0
BBX 8 14 1 0
BITMAP
01
07
01
19
67
81
81
81
81
81
81
67
18
7E
ENDCHAR
STARTCHAR 20AC
ENCODING 8364
SWIDTH 565 0
DWIDTH 11 0
BBX 10 14 1 0
BITMAP
0E00
3180
4000
8000
8000
8000
F800
8000
8000
F800
8000
4040
4080
3F00
ENDCHAR
STARTCHAR 20AD
ENCODING 8365
SWIDTH 565 0
DWIDTH 11 0
BBX 9 14 1 0
BITMAP
4000
4180
4200
4200
4400
4800
5000
FF00
4800
4400
4200
4200
4100
4080
ENDCHAR
STARTCHAR 20AE
ENCODING 8366
SWIDTH 565 0
DWIDTH 11 0
BBX 10 14 1 0
BITMAP
FFC0
0800
0800
0800
0900
0E00
1800
6900
0E00
1800
6800
0800
0800
0800
ENDCHAR
STARTCHAR 20B1
ENCODING 8369
SWIDTH 565 0
DWIDTH 11 0
BBX 9 14 1 0
BITMAP
7C00
4300
4080
FF80
4080
4080
FF80
4100
4200
7C00
4000
4000
4000
4000
ENDCHAR
STARTCHAR 20B2
ENCODING 8370
SWIDTH 617 0
DWIDTH 12 0
BBX 10 16 1 -2
BITMAP
0200
0E00
3580
4400
8400
8400
8400
8400
8400
8BC0
8840
8840
4840
4880
3900
1600
ENDCHAR
STARTCHAR 20B4
ENCODING 8372
SWIDTH 617 0
DWIDTH 12 0
BBX 10 14 1 0
BITMAP
1E00
6100
0100
0100
0100
FFC0
0400
1800
FFC0
4000
4000
4000
4080
3F00
ENDCHAR
STARTCHAR 20B5
ENCODING 8373
SWIDTH 565 0
DWIDTH 11 0
BBX 10 16 1 -2
BITMAP
0200
0C00
3700
4480
8400
8400
8400
8400
8800
8800
8800
8800
4840
4880
3100
1E00
ENDCHAR
STARTCHAR 20B8
ENCODING 8376
SWIDTH 565 0
DWIDTH 11 0
BBX 10 13 1 0
BITMAP
FFC0
0000
0000
FFC0
0800
0800
0800
0800
0800
0800
0800
0800
0800
ENDCHAR
STARTCHAR 20B9
ENCODING 8377
SWIDTH 565 0
DWIDTH 11 0
BBX 10 14 1 0
BITMAP
FFC0
0200
0100
0100
7F80
0100
0200
FC00
0800
0400
0400
0200
0100
0080
ENDCHAR
STARTCHAR 20BA
ENCODING 8378
SWIDTH 565 0
DWIDTH 11 0
BBX 10 13 1 1
BITMAP
4000
4000
4400
7800
C000
4800
3000
C040
4040
4080
4080
4100
7E00
ENDCHAR
STARTCHAR 20BD
ENCODING 8381
SWIDTH 565 0
DWIDTH 11 0
BBX 11 14 0 0
BITMAP
3F00
20C0
2020
2020
2020
2020
2040
FF80
2000
2000
FE00
2000
2000
2000
ENDCHAR
STARTCHAR 20BF
ENCODING 8383
SWIDTH 565 0
DWIDTH 11 0
BBX 8 17 2 -2
BITMAP
20
28
D6
81
81
81
81
82
FE
81
81
81
81
81
FE
28
20
ENDCHAR
STARTCHAR 2113
ENCODING 8467
SWIDTH 411 0
DWIDTH 8 0
BBX 7 15 1 0
BITMAP
10
68
44
44
44
48
48
50
50
60
40
C0
40
42
3C
ENDCHAR
STARTCHAR 2116
ENCODING 8470
SWIDTH 977 0
DWIDTH 19 0
BBX 17 14 2 0
BITMAP
800700
809880
C09080
A09080
A09080
909080
888D00
888200
848700
848000
828000
818000
818000
808000
ENDCHAR
STARTCHAR 2122
ENCODING 8482
SWIDTH 617 0
DWIDTH 12 0
BBX 11 6 0 8
BITMAP
FA20
2220
23E0
23A0
2220
2220
ENDCHAR
STARTCHAR 2126
ENCODING 8486
SWIDTH 668 0
DWIDTH 13 0
BBX 11 14 1 0
BITMAP
0F00
3080
4040
8020
8020
8020
8020
8020
8020
8020
4040
4040
2080
31C0
ENDCHAR
STARTCHAR 212E
ENCODING 8494
SWIDTH 668 0
DWIDTH 13 0
BBX 12 14 1 0
BITMAP
0F00
3080
4040
8020
8020
8020
8010
FFE0
8000
8000
8000
8020
4040
3F80
ENDCHAR
STARTCHAR 2150
ENCODING 8528
SWIDTH 874 0
DWIDTH 17 0
BBX 15 13 1 0
BITMAP
2008
6010
2020
2020
2040
2080
2080
F93E
0222
0204
0404
0808
0808
ENDCHAR
STARTCHAR 2151
ENCODING 8529
SWIDTH 874 0
DWIDTH 17 0
BBX 15 13 1 0
BITMAP
2008
6010
2020
2020
2040
2080
2080
F93E
0222
0222
0412
080E
0804
ENDCHAR
STARTCHAR 2153
ENCODING 8531
SWIDTH 874 0
DWIDTH 17 0
BBX 15 14 1 0
BITMAP
2008
6010
2020
2020
2040
2080
2080
F91E
0202
0202
040C
0802
0802
003C
ENDCHAR
STARTCHAR 2154
ENCODING 8532
SWIDTH 822 0
DWIDTH 16 0
BBX 14 14 1 0
BITMAP
6000
9030
0820
1040
1080
6080
8100
FA3C
0204
0404
040C
0804
1004
103C
ENDCHAR
STARTCHAR 2155
ENCODING 8533
SWIDTH 822 0
DWIDTH 16 0
BBX 15 14 1 0
BITMAP
2008
6010
2020
2020
2040
2080
2080
F93C
0220
0220
043E
0802
0802
003C
ENDCHAR
STARTCHAR 2156
ENCODING 8534
SWIDTH 822 0
DWIDTH 16 0
BBX 14 14 1 0
BITMAP
6000
9030
0820
1040
1080
6080
8100
FA78
0240
0440
043C
0804
1004
103C
ENDCHAR
STARTCHAR 2157
ENCODING 8535
SWIDTH 822 0
DWIDTH 16 0
BBX 13 14 2 0
BITMAP
C020
2040
2040
2080
6100
1100
2200
C4F0
0480
0880
1078
1008
2008
00F8
ENDCHAR
STARTCHAR 2158
ENCODING 8536
SWIDTH 822 0
DWIDTH 16 0
BBX 15 14 0 0
BITMAP
0800
1818
2810
4820
4840
8840
7880
013C
0120
0220
021E
0402
0802
081E
ENDCHAR
STARTCHAR 2159
ENCODING 8537
SWIDTH 874 0
DWIDTH 17 0
BBX 15 14 1 0
BITMAP
2008
6010
2020
2020
2040
2080
2080
F908
0210
0220
043E
0822
0822
003C
ENDCHAR
STARTCHAR 215A
ENCODING 8538
SWIDTH 822 0
DWIDTH 16 0
BBX 14 14 1 0
BITMAP
F010
8020
8040
F040
0880
0900
1100
6210
0220
0440
087C
0844
1044
003C
ENDCHAR
STARTCHAR 215B
ENCODING 8539
SWIDTH 925 0
DWIDTH 18 0
BBX 16 14 1 0
BITMAP
2008
6010
2020
2020
2040
2080
2080
F91E
0221
0222
041E
0831
0821
001E
ENDCHAR
STARTCHAR 215C
ENCODING 8540
SWIDTH 874 0
DWIDTH 17 0
BBX 14 14 2 0
BITMAP
C020
2040
2040
2080
6100
1100
2200
C47C
0484
0844
1038
10C4
2084
007C
ENDCHAR
STARTCHAR 215D
ENCODING 8541
SWIDTH 874 0
DWIDTH 17 0
BBX 15 14 1 0
BITMAP
F010
8020
8040
F040
0880
0900
1100
623C
0242
0424
081C
0862
1042
003C
ENDCHAR
STARTCHAR 215E
ENCODING 8542
SWIDTH 822 0
DWIDTH 16 0
BBX 15 14 1 0
BITMAP
F800
9020
1040
1080
2080
2100
4200
427C
0444
0844
0838
1044
1042
007C
ENDCHAR
STARTCHAR 2190
ENCODING 8592
SWIDTH 720 0
DWIDTH 14 0
BBX 13 7 0 3
BITMAP
1000
2000
4000
BFF8
4000
2000
1000
ENDCHAR
STARTCHAR 2191
ENCODING 8593
SWIDTH 720 0
DWIDTH 14 0
BBX 7 13 4 0
BITMAP
10
68
64
A2
20
20
20
20
20
20
20
20
20
ENDCHAR
STARTCHAR 2192
ENCODING 8594
SWIDTH 720 0
DWIDTH 14 0
BBX 13 7 1 3
BITMAP
0040
0020
0010
FFE8
0010
0020
0040
ENDCHAR
STARTCHAR 2193
ENCODING 8595
SWIDTH 720 0
DWIDTH 14 0
BBX 7 13 4 1
BITMAP
20
20
20
20
20
20
20
20
20
22
A4
68
10
ENDCHAR
STARTCHAR 2194
ENCODING 8596
SWIDTH 720 0
DWIDTH 14 0
BBX 14 7 0 3
BITMAP
1020
2010
4008
BFF4
4008
2010
1020
ENDCHAR
STARTCHAR 2195
ENCODING 8597
SWIDTH 720 0
DWIDTH 14 0
BBX 7 14 4 0
BITMAP
10
68
64
A2
20
20
20
20
20
20
22
A4
68
10
ENDCHAR
STARTCHAR 2196
ENCODING 8598
SWIDTH 720 0
DWIDTH 14 0
BBX 9 10 3 2
BITMAP
F000
8000
C000
A000
1000
0800
0400
0200
0100
0080
ENDCHAR
STARTCHAR 2197
ENCODING 8599
SWIDTH 720 0
DWIDTH 14 0
BBX 10 10 2 2
BITMAP
03C0
00C0
0140
0240
0440
0800
1000
2000
4000
8000
ENDCHAR
STARTCHAR 2198
ENCODING 8600
SWIDTH 720 0
DWIDTH 14 0
BBX 10 10 2 2
BITMAP
8000
4000
2000
1000
0800
0440
0240
0140
00C0
03C0
ENDCHAR
STARTCHAR 2199
ENCODING 8601
SWIDTH 720 0
DWIDTH 14 0
BBX 9 9 3 3
BITMAP
0180
0200
0400
0800
1000
A000
C000
8000
F000
ENDCHAR
STARTCHAR 21A9
ENCODING 8617
SWIDTH 720 0
DWIDTH 14 0
BBX 13 10 1 2
BITMAP
0020
0010
0008
0008
4008
8008
FFF0
8000
4000
2000
ENDCHAR
STARTCHAR 21AA
ENCODING 8618
SWIDTH 720 0
DWIDTH 14 0
BBX 14 10 0 2
BITMAP
3000
C000
8000
8020
8010
8008
7FFC
0008
0010
0020
ENDCHAR
STARTCHAR 21B0
ENCODING 8624
SWIDTH 720 0
DWIDTH 14 0
BBX 9 13 2 0
BITMAP
1000
2000
4000
8000
FF80
4080
2080
0080
0080
0080
0080
0080
0080
ENDCHAR
STARTCHAR 21B1
ENCODING 8625
SWIDTH 720 0
DWIDTH 14 0
BBX 9 13 3 1
BITMAP
0200
0100
0080
FF80
8100
8200
8000
8000
8000
8000
8000
8000
8000
ENDCHAR
STARTCHAR 21B2
ENCODING 8626
SWIDTH 720 0
DWIDTH 14 0
BBX 9 13 2 1
BITMAP
0080
0080
0080
0080
0080
0080
2080
4080
8080
FF80
8000
4000
2000
ENDCHAR
STARTCHAR 21B3
ENCODING 8627
SWIDTH 720 0
DWIDTH 14 0
BBX 10 14 3 0
BITMAP
8000
8000
8000
8000
8000
8000
8000
8200
8100
8080
FFC0
0080
0100
0200
ENDCHAR
STARTCHAR 21B6
ENCODING 8630
SWIDTH 771 0
DWIDTH 15 0
BBX 14 12 1 1
BITMAP
01E0
0E10
1008
1004
1004
2000
2000
2000
2200
A400
6800
1000
ENDCHAR
STARTCHAR 21B7
ENCODING 8631
SWIDTH 771 0
DWIDTH 15 0
BBX 14 12 1 1
BITMAP
1E00
6180
8040
8040
8020
0020
0020
0020
0124
00A8
00B0
0060
ENDCHAR
STARTCHAR 21BA
ENCODING 8634
SWIDTH 771 0
DWIDTH 15 0
BBX 13 14 1 0
BITMAP
01F0
0300
0280
2260
4210
8010
8008
8008
8008
8008
8010
4010
2020
1FC0
ENDCHAR
STARTCHAR 21BB
ENCODING 8635
SWIDTH 771 0
DWIDTH 15 0
BBX 13 14 1 0
BITMAP
7C00
0C00
1400
2420
4410
8010
8008
8008
8008
8008
8010
4010
2020
1FC0
ENDCHAR
STARTCHAR 21C4
ENCODING 8644
SWIDTH 720 0
DWIDTH 14 0
BBX 14 14 0 0
BITMAP
0020
0010
0008
0004
7FF8
0010
0020
1000
2000
4000
FFFC
4000
2000
1000
ENDCHAR
STARTCHAR 21C6
ENCODING 8646
SWIDTH 720 0
DWIDTH 14 0
BBX 14 13 0 1
BITMAP
2000
4000
8000
7FF8
2000
1000
0020
0010
0008
FFFC
0008
0010
0020
ENDCHAR
STARTCHAR 2202
ENCODING 8706
SWIDTH 565 0
DWIDTH 11 0
BBX 9 14 1 0
BITMAP
2000
1800
0400
0200
1E00
6300
8100
8080
8080
8080
8080
8100
4100
3E00
ENDCHAR
STARTCHAR 2206
ENCODING 8710
SWIDTH 565 0
DWIDTH 11 0
BBX 10 13 1 1
BITMAP
0C00
1400
1400
2200
2200
2200
4100
4100
4100
8080
8080
8080
FFC0
ENDCHAR
STARTCHAR 220F
ENCODING 8719
SWIDTH 668 0
DWIDTH 13 0
BBX 11 17 1 -4
BITMAP
FFE0
4040
4040
4040
4040
4040
4040
4040
4040
4040
4040
4040
4040
4040
4040
4040
4040
ENDCHAR
STARTCHAR 2211
ENCODING 8721
SWIDTH 462 0
DWIDTH 9 0
BBX 9 18 0 -4
BITMAP
FF80
8000
4000
2000
2000
1000
0800
0400
0400
0400
0400
0800
1000
1000
2000
4000
4000
FF80
ENDCHAR
STARTCHAR 2212
ENCODING 8722
SWIDTH 565 0
DWIDTH 11 0
BBX 7 1 2 5
BITMAP
FE
ENDCHAR
STARTCHAR 221A
ENCODING 8730
SWIDTH 565 0
DWIDTH 11 0
BBX 9 13 1 1
BITMAP
0080
0080
0100
C100
2100
2200
2200
2200
1200
1400
1400
0C00
0800
ENDCHAR
STARTCHAR 221E
ENCODING 8734
SWIDTH 720 0
DWIDTH 14 0
BBX 13 7 1 2
BITMAP
F9F0
8610
8208
8408
8610
8910
70E0
ENDCHAR
STARTCHAR 222B
ENCODING 8747
SWIDTH 308 0
DWIDTH 6 0
BBX 3 18 2 -4
BITMAP
60
40
40
40
40
40
40
40
40
40
40
40
40
40
40
40
40
C0
ENDCHAR
STARTCHAR 2248
ENCODING 8776
SWIDTH 565 0
DWIDTH 11 0
BBX 8 5 1 3
BITMAP
F8
07
00
F8
07
ENDCHAR
STARTCHAR 2260
ENCODING 8800
SWIDTH 565 0
DWIDTH 11 0
BBX 9 6 1 3
BITMAP
0200
FF80
0800
0800
1000
7F00
ENDCHAR
STARTCHAR 2264
ENCODING 8804
SWIDTH 565 0
DWIDTH 11 0
BBX 8 11 2 1
BITMAP
02
0C
30
40
80
40
30
0C
03
00
7E
ENDCHAR
STARTCHAR 2265
ENCODING 8805
SWIDTH 565 0
DWIDTH 11 0
BBX 8 11 2 1
BITMAP
80
60
18
06
01
06
18
20
C0
00
7E
ENDCHAR
STARTCHAR 25CA
ENCODING 9674
SWIDTH 565 0
DWIDTH 11 0
BBX 9 13 1 1
BITMAP
1C00
1400
2200
4100
4100
8080
8080
8080
4100
2200
2200
1400
0800
ENDCHAR
STARTCHAR 2713
ENCODING 10003
SWIDTH 874 0
DWIDTH 17 0
BBX 12 13 3 1
BITMAP
0010
0020
0020
0040
0040
8080
8100
4100
2200
2200
1400
1400
0800
ENDCHAR
STARTCHAR 274C
ENCODING 10060
SWIDTH 874 0
DWIDTH 17 0
BBX 12 12 3 1
BITMAP
0010
8020
4040
2080
1100
0A00
0400
0A00
1100
2080
4040
8030
ENDCHAR
STARTCHAR 2B0E
ENCODING 11022
SWIDTH 720 0
DWIDTH 14 0
BBX 13 9 1 2
BITMAP
FFC0
0040
0040
0040
0040
0248
0150
00E0
0040
ENDCHAR
STARTCHAR 2B0F
ENCODING 11023
SWIDTH 720 0
DWIDTH 14 0
BBX 13 9 1 3
BITMAP
0040
01E0
0250
0048
0040
0040
0040
0040
FFC0
ENDCHAR
STARTCHAR 2B10
ENCODING 11024
SWIDTH 720 0
DWIDTH 14 0
BBX 13 9 0 2
BITMAP
0FF8
1000
1000
1000
1000
9100
5200
3400
1800
ENDCHAR
STARTCHAR 2B11
ENCODING 11025
SWIDTH 720 0
DWIDTH 14 0
BBX 13 9 0 3
BITMAP
1800
3400
5200
9100
1000
1000
1000
1000
0FF8
ENDCHAR
STARTCHAR ECE0
ENCODING 60640
SWIDTH 1131 0
DWIDTH 22 0
BBX 20 14 1 0
BITMAP
070070
1F01F0
3C03C0
700700
600600
E00600
C00FE0
C00FE0
C00E00
600600
700700
380380
1F01F0
0F00F0
ENDCHAR
STARTCHAR EFCC
ENCODING 61388
SWIDTH 1028 0
DWIDTH 20 0
BBX 17 14 2 0
BITMAP
FC3800
FDFE00
C38380
C23980
C6FC00
C4C400
FC8000
FD8000
C48000
C4C600
C67C00
C30180
C1C700
80FC00
ENDCHAR
STARTCHAR F6D7
ENCODING 63191
SWIDTH 0 0
DWIDTH 0 0
BBX 4 4 -2 13
BITMAP
10
20
00
90
ENDCHAR
STARTCHAR F6D8
ENCODING 63192
SWIDTH 0 0
DWIDTH 0 0
BBX 4 4 -2 13
BITMAP
80
40
00
90
ENDCHAR
STARTCHAR FB01
ENCODING 64257
SWIDTH 462 0
DWIDTH 9 0
BBX 7 14 1 0
BITMAP
62
40
40
40
FE
42
42
42
42
42
42
42
42
42
ENDCHAR
STARTCHAR FB02
ENCODING 64258
SWIDTH 514 0
DWIDTH 10 0
BBX 7 14 1 0
BITMAP
60
42
42
42
F2
42
42
42
42
42
42
42
42
40
ENDCHAR
ENDFONT
